<svg width="100" height="100" viewBox="0 0 100 100" fill="none" xmlns="http://www.w3.org/2000/svg">
<g clip-path="url(#clip0_2728_961)">
<rect width="100" height="100" fill="white"/>
<path d="M67.2556 73.8934C67.6235 73.4672 67.9297 72.9642 68.2645 72.5088C69.5694 70.7344 71.2811 71.2972 73.2032 71.445C74.6384 71.5553 76.4556 71.1879 76.7967 69.7892C76.8832 69.4358 76.8546 69.0602 76.9547 68.7102C77.5413 66.6593 81.3282 67.5346 82.1976 65.5867C82.6418 64.5914 82.0178 63.4794 81.524 62.5079C80.0388 59.5866 80.155 56.8305 80.1312 53.6724C80.1093 50.7657 81.6072 48.0586 80.5214 45.1329C80.19 44.2392 79.653 43.4178 79.4547 42.4852C78.9978 40.3385 80.4111 38.2497 80.6007 36.0632C80.6799 35.149 80.5394 34.2164 80.1944 33.3664C79.7239 32.2082 78.888 31.2153 78.505 30.0251C77.9145 28.189 78.4657 26.0842 77.6521 24.336C77.1481 23.2527 76.1878 22.463 75.2585 21.7116C73.2854 20.1166 70.0987 17.2185 67.344 17.9276C62.9516 19.0581 59.2536 22.5772 57.9064 26.9084C57.0544 29.6475 57.1045 32.5742 57.1618 35.4421C57.3271 43.7143 57.4845 52.0331 56.27 60.2174C55.6567 64.3518 54.6949 68.4356 54.2901 72.5958C54.154 73.9935 54.3892 75.6255 56.1573 75.6819C57.1988 75.7154 58.162 75.1847 59.1525 74.8611C60.2781 74.4936 61.4892 74.3896 62.6614 74.5597C63.8827 74.7376 65.1842 75.1964 66.2977 74.6633C66.6763 74.4829 66.9829 74.2093 67.2556 73.8934Z" fill="#02020C"/>
<path d="M34.9652 73.8934C34.5973 73.4672 34.2911 72.9642 33.9563 72.5088C32.6514 70.7344 30.9397 71.2972 29.0175 71.445C27.5824 71.5553 25.7652 71.1879 25.4241 69.7892C25.3376 69.4358 25.3662 69.0602 25.2661 68.7102C24.6795 66.6593 20.8926 67.5346 20.0231 65.5867C19.5789 64.5914 20.203 63.4794 20.6967 62.5079C22.182 59.5866 22.0658 56.8305 22.0896 53.6724C22.1115 50.7657 20.6136 48.0586 21.6994 45.1329C22.0308 44.2392 22.5674 43.4178 22.7661 42.4852C23.223 40.3385 21.8097 38.2497 21.6201 36.0632C21.5409 35.149 21.6814 34.2164 22.0264 33.3664C22.4969 32.2082 23.3333 31.2153 23.7158 30.0251C24.3063 28.189 23.7551 26.0842 24.5687 24.336C25.0727 23.2527 26.033 22.463 26.9623 21.7116C28.9354 20.1166 32.1221 17.2185 34.8768 17.9276C39.2692 19.0581 42.9672 22.5772 44.3144 26.9084C45.1663 29.6475 45.1163 32.5742 45.0589 35.4421C44.8937 43.7143 44.7362 52.0331 45.9508 60.2174C46.5641 64.3518 47.5264 68.4356 47.9307 72.5958C48.0668 73.9935 47.8316 75.6255 46.0635 75.6819C45.022 75.7154 44.0588 75.1847 43.0683 74.8611C41.9427 74.4936 40.7316 74.3896 39.5594 74.5597C38.3381 74.7376 37.0365 75.1964 35.9231 74.6633C35.545 74.4829 35.2379 74.2093 34.9652 73.8934Z" fill="#02020C"/>
<path d="M97.7403 101.646L93.2253 92.5286C93.2253 92.5286 90.8536 88.7889 85.8371 87.0558C85.8371 87.0558 74.6178 83.681 72.9761 83.1338L68.1419 80.4885C67.9101 80.7154 67.6637 80.9293 67.4173 81.1402C66.5716 81.8653 65.6808 82.5389 64.7593 83.1649C63.4262 84.0703 62.0227 84.8761 60.5559 85.5453C58.8612 86.3185 57.0766 86.91 55.2376 87.2215C54.2661 87.3863 53.2805 87.4718 52.2949 87.4645C51.7933 87.4606 51.2908 87.3979 50.7917 87.4067C50.1579 87.4174 49.5252 87.4601 48.8914 87.4645C48.2484 87.4689 47.6055 87.4344 46.9664 87.3639C45.089 87.1569 43.2533 86.6417 41.5086 85.9253C39.9651 85.2916 38.4876 84.5004 37.0841 83.5984C36.0552 82.9369 35.0633 82.2157 34.1209 81.4352C34.0509 81.3774 33.0935 80.4617 33.0459 80.488L28.2116 83.1333C26.5699 83.6805 15.3506 87.0553 15.3506 87.0553C10.3336 88.7884 7.96245 92.5281 7.96245 92.5281L3.44702 101.646H97.7403V101.646Z" fill="#FE8783"/>
<path d="M57.9213 101.646C66.3977 95.7557 70.535 85.2392 70.535 85.2392C47.5968 100.844 28.4245 83.0298 28.4245 83.0298C26.813 84.6895 24.5477 85.5978 22.9493 87.2696C22.3933 87.8514 21.8597 88.5206 21.36 89.2239C20.7054 90.1448 20.1081 91.1246 19.5915 92.0441C18.6127 93.7869 17.9454 95.7256 17.8409 97.7318C17.7724 99.0522 17.9799 100.402 18.4416 101.646H57.9213Z" fill="#CE4E4D"/>
<path d="M6.29248 95.4125C7.91669 94.6626 9.59437 93.8728 10.7554 92.512C11.289 91.8866 11.6939 91.1619 12.2013 90.5156C13.9455 88.2936 16.7177 87.1903 19.3571 86.1824C16.4499 86.9609 13.7701 87.6273 11.1262 89.0663C10.8264 89.2296 10.5285 89.4026 10.2738 89.6296C9.90346 89.9601 9.63956 90.3902 9.3815 90.8144C8.44303 92.3546 7.23143 93.8719 6.29248 95.4125Z" fill="#CE4E4D"/>
<path d="M94.8903 95.4125C93.2661 94.6626 91.5885 93.8728 90.4269 92.512C89.8933 91.8866 89.4889 91.1619 88.9811 90.5156C87.2368 88.2936 84.4647 87.1903 81.8257 86.1824C84.7329 86.9609 87.4127 87.6273 90.0566 89.0663C90.3564 89.2296 90.6544 89.4026 90.909 89.6296C91.2794 89.9601 91.5433 90.3902 91.8013 90.8144C92.7398 92.3546 93.9514 93.8719 94.8903 95.4125Z" fill="#CE4E4D"/>
<path d="M74.4282 38.3386C74.2192 38.2706 74.0034 38.2361 73.7862 38.2361C73.653 38.2361 73.5218 38.2492 73.3955 38.2755L73.1165 38.3333L73.1466 38.05C73.4037 35.6467 73.5121 33.6439 73.4883 31.748C73.464 30.3007 73.3648 29.1304 73.1768 28.0666C72.961 26.8977 72.6509 25.6657 71.8514 24.5848C71.6731 24.3739 71.5151 24.196 71.3387 24.008C71.1798 23.833 71.0077 23.6527 70.8099 23.4544C70.5407 23.1735 70.2559 22.9028 69.9808 22.6413C69.8904 22.5558 69.8005 22.4698 69.7106 22.3838C68.8465 21.596 68.1073 20.9666 67.3885 20.4057C66.6926 19.8502 65.9329 19.2933 64.9225 18.5988L63.6424 17.7595L62.3312 16.9785C60.2939 15.8208 58.5491 14.9723 56.8438 14.3108C56.0939 13.9862 55.3109 13.7213 54.5537 13.4652C54.3574 13.3986 54.161 13.3325 53.9647 13.2649C53.6211 13.1376 53.2619 13.0399 52.9149 12.9451C52.7774 12.9077 52.6399 12.8703 52.5028 12.8309L51.0239 12.4217C51.0127 12.4188 50.9986 12.4169 50.987 12.4169H50.9734L50.5928 12.4159H50.5812C50.568 12.4159 50.5549 12.4178 50.5418 12.4212L48.9049 12.8659L48.0919 13.0871L47.2924 13.3529L45.691 13.8928L44.1208 14.5203C41.8667 15.4733 39.9013 16.4774 38.1172 17.5884C36.1718 18.7927 34.3386 20.1326 32.6687 21.5712C31.651 22.4703 30.8972 23.192 30.2265 23.9103C30.193 23.9467 30.158 23.9842 30.1225 24.0221C30.0613 24.0872 30.0005 24.1518 29.9412 24.2203C29.9126 24.2529 29.8853 24.284 29.8576 24.3151C29.7891 24.3924 29.7245 24.4653 29.6535 24.5528C29.4581 24.8181 29.3026 25.0636 29.185 25.2968C28.9391 25.7678 28.7374 26.2965 28.5673 26.9147C28.3 27.9062 28.1353 28.9744 28.0492 30.2759C27.9802 31.3048 27.9647 32.4104 28.0021 33.6556C28.0453 35.0397 28.145 36.4661 28.3058 38.0155L28.3316 38.2619L28.0847 38.2444C28.0361 38.241 27.987 38.239 27.9384 38.239C27.7236 38.239 27.5146 38.2716 27.3173 38.3362C26.896 38.4689 26.5086 38.7143 26.1951 39.0467C25.6532 39.629 25.367 40.4469 25.3466 41.4772C25.3315 42.4089 25.5118 43.29 25.6902 44.0292C25.8856 44.8165 26.1363 45.5771 26.4527 46.4762C26.5864 46.8485 26.7191 47.2232 26.8517 47.5979C27.2814 48.8115 27.7256 50.0668 28.2291 51.2794C28.4055 51.7032 28.5741 52.0866 28.7437 52.4506L28.8035 52.577C28.9624 52.9118 29.1267 53.2584 29.3396 53.5772C29.6122 53.984 29.9223 54.26 30.2605 54.3985C30.4535 54.4782 30.6479 54.5181 30.8398 54.5181H30.8646C30.9847 54.5156 31.1071 54.4913 31.2286 54.4466L31.4162 54.3771L31.4925 54.5618C32.1865 56.239 33.1279 57.9385 34.2909 59.6133C35.053 60.6708 35.7212 61.5218 36.3919 62.2882C37.1608 63.1684 37.9529 63.9951 38.7456 64.7455C39.2467 65.2188 39.6394 65.5673 40.018 65.8749L40.225 66.0436L40.3339 66.132L40.2925 66.2662C40.2828 66.2973 40.2784 66.3225 40.2789 66.3463L40.4349 76.7691L40.4364 76.8653L40.364 76.9285C39.8858 77.3465 39.3555 77.7678 38.6455 78.2942C38.0394 78.7418 37.3804 79.2069 36.63 79.7157C35.7839 80.2868 34.9315 80.8413 34.0931 81.3662L34.0936 81.3667L34.0708 81.3808C34.1067 81.4114 34.1427 81.442 34.1787 81.4726L34.2856 81.564L34.2953 81.5722L34.3036 81.5815C38.5687 86.199 47.8289 87.5476 47.9354 87.5593C48.4501 87.5933 50.3182 87.4329 50.8392 87.4329C57.8794 87.4329 63.1204 84.2763 65.618 82.395L65.6734 82.3532H65.7424L65.8872 82.3528C65.9295 82.2905 65.9738 82.2371 66.0224 82.1895C66.3246 81.8945 66.6736 81.6048 67.1217 81.2782C67.1494 81.2578 67.1785 81.2393 67.2087 81.2218C66.4622 80.7251 65.6856 80.1823 64.8453 79.5699C64.1731 79.0766 63.5695 78.6159 62.9989 78.161C62.3453 77.6381 61.8233 77.1943 61.3563 76.7633L61.2882 76.7001L61.2897 76.6073L61.4433 66.3463C61.4423 66.2662 61.4107 66.1996 61.3543 66.15L61.1672 65.9867L61.3611 65.8317C61.8418 65.4468 62.2981 65.0298 62.6422 64.709C63.4407 63.9591 64.2392 63.1329 65.0144 62.2537C65.7269 61.4377 66.4393 60.5357 67.1314 59.573C68.3134 57.887 69.2703 56.1651 69.975 54.4563L70.0596 54.2517L70.2583 54.3489C70.3973 54.417 70.5533 54.4588 70.722 54.4738C70.7754 54.4792 70.8279 54.4816 70.8804 54.4816C71.0282 54.4816 71.1846 54.4612 71.3455 54.4209C71.5608 54.3625 71.7508 54.2673 71.8923 54.1458C72.0463 54.0194 72.1907 53.8634 72.3243 53.6788C72.5707 53.3371 72.7515 52.9561 72.9265 52.5877L72.9415 52.5556C73.1175 52.1824 73.2885 51.797 73.4645 51.3785C73.983 50.1397 74.4374 48.8562 74.8773 47.6144C75.0036 47.2567 75.1305 46.8995 75.2583 46.5428C75.5781 45.6374 75.8318 44.8715 76.032 44.0798C76.1423 43.6438 76.2293 43.2166 76.2901 42.8108C76.363 42.3345 76.3951 41.9103 76.3887 41.5137C76.3742 40.4756 76.0923 39.6499 75.5514 39.0584C75.2355 38.7211 74.8467 38.4718 74.4282 38.3386Z" fill="#A87059"/>
<path d="M61.2566 65.8934C61.2566 65.8934 58.8888 80.3553 47.6719 77.78C47.6719 77.78 42.4032 76.3089 40.7037 70.9274C40.6206 69.8699 40.6575 68.6141 40.5739 67.5565C40.552 67.281 40.8456 66.5184 41.0662 66.3303C41.3194 66.1141 41.8997 66.9461 42.0674 67.1031C42.4528 67.4642 42.8688 67.7927 43.3096 68.0838C43.7679 68.3861 44.2534 68.6481 44.7584 68.8639C45.5554 69.2046 46.3972 69.4315 47.1986 69.7625C48.4432 70.2772 49.8342 71.27 51.2474 70.8574C51.7684 70.7053 52.2894 70.5517 52.8075 70.3909C53.8432 70.0696 54.8715 69.7202 55.8732 69.3027C57.876 68.4678 59.6309 67.3111 61.2566 65.8934Z" fill="#724B3D"/>
<path d="M35.6858 36.26L38.7466 37.4356L47.5486 38.4844L48.3242 41.6313L48.157 52.3947L48.9779 48.0469L49.0537 41.4033L48.0807 37.2271L45.5978 36.868L38.108 35.8391L35.6858 36.26Z" fill="#724B3D"/>
<path d="M53.313 37.3317L54.2932 38.1982L62.0945 37.6971L65.6953 36.3281L63.3008 36.0316L54.318 36.8189L53.313 37.3317Z" fill="#724B3D"/>
<path d="M75.2933 41.6498C74.9128 41.3339 74.351 41.1827 73.9155 41.4165C73.6812 41.5424 73.5116 41.7606 73.3731 41.9875C73.168 42.3224 73.0154 42.6893 72.9226 43.0713C72.6918 44.0166 72.8303 45.0071 72.8006 45.9795C72.7258 48.4348 71.5861 50.7176 70.4241 52.8817C71.4622 49.1366 72.1499 45.2948 72.474 41.4218C72.5518 40.4945 72.615 39.54 73.014 38.6997C73.0582 38.6064 73.1097 38.5107 73.1952 38.4524C73.29 38.3877 73.4105 38.378 73.5252 38.3707C73.7877 38.3542 74.0525 38.3372 74.3121 38.3785C75.1951 38.5175 75.8605 39.3116 76.119 40.167C76.3776 41.0228 76.3081 41.9384 76.2366 42.8303C76.2327 42.8808 76.2191 42.9207 76.1837 42.9561C75.8799 42.6291 75.7215 42.0045 75.2933 41.6498Z" fill="#724B3D"/>
<path d="M26.5815 41.6498C26.962 41.3339 27.5238 41.1827 27.9593 41.4165C28.1935 41.5424 28.3631 41.7606 28.5016 41.9875C28.7067 42.3224 28.8593 42.6893 28.9522 43.0713C29.183 44.0166 29.0445 45.0071 29.0741 45.9795C29.149 48.4348 30.2887 50.7176 31.4507 52.8817C30.4126 49.1366 29.7249 45.2948 29.4007 41.4218C29.323 40.4945 29.2598 39.54 28.8608 38.6997C28.8166 38.6064 28.765 38.5107 28.6795 38.4524C28.5847 38.3877 28.4642 38.378 28.3495 38.3707C28.0871 38.3542 27.8227 38.3372 27.5627 38.3785C26.6796 38.5175 26.0143 39.3116 25.7557 40.167C25.4972 41.0228 25.5667 41.9384 25.6381 42.8303C25.642 42.8808 25.6556 42.9207 25.6916 42.9561C25.9949 42.6291 26.1533 42.0045 26.5815 41.6498Z" fill="#724B3D"/>
<path d="M49.592 64.0514L51.5579 63.3842L51.6663 64.0514L50.4941 64.3037L49.592 64.0514Z" fill="#724B3D"/>
<path d="M54.0454 56.2677C54.0454 56.2677 50.9185 59.9297 47.9626 56.2677L49.1295 56.5525L50.5039 56.7338L51.9605 56.6823L52.5767 56.501L53.504 56.4363L54.0454 56.2677Z" fill="#724B3D"/>
<path d="M53.4116 50.616C53.4116 50.7166 53.33 50.7982 53.2294 50.7982C53.1288 50.7982 53.0471 50.7166 53.0471 50.616C53.0471 50.5154 53.1288 50.4337 53.2294 50.4337C53.33 50.4332 53.4116 50.5149 53.4116 50.616Z" fill="#724B3D"/>
<path d="M53.1078 51.9233C53.1078 52.0744 52.9853 52.1969 52.8342 52.1969C52.683 52.1969 52.5605 52.0744 52.5605 51.9233C52.5605 51.7721 52.683 51.6497 52.8342 51.6497C52.9853 51.6497 53.1078 51.7721 53.1078 51.9233Z" fill="#724B3D"/>
<path d="M55.4183 51.8018C55.4183 51.953 55.2959 52.0754 55.1447 52.0754C54.9936 52.0754 54.8711 51.953 54.8711 51.8018C54.8711 51.6507 54.9936 51.5282 55.1447 51.5282C55.2959 51.5282 55.4183 51.6507 55.4183 51.8018Z" fill="#724B3D"/>
<path d="M55.1144 53.1092C55.1144 53.2433 55.0056 53.3522 54.8714 53.3522C54.7373 53.3522 54.6279 53.2433 54.6279 53.1092C54.6279 52.9751 54.7368 52.8662 54.8714 52.8662C55.0056 52.8657 55.1144 52.9746 55.1144 53.1092Z" fill="#724B3D"/>
<path d="M57.3643 54.2644C57.3643 54.365 57.2826 54.4467 57.182 54.4467C57.0814 54.4467 56.9998 54.365 56.9998 54.2644C56.9998 54.1638 57.0814 54.0822 57.182 54.0822C57.2826 54.0822 57.3643 54.1638 57.3643 54.2644Z" fill="#724B3D"/>
<path d="M58.5193 53.3522C58.5193 53.5539 58.356 53.7171 58.1543 53.7171C57.9526 53.7171 57.7893 53.5539 57.7893 53.3522C57.7893 53.1505 57.9526 52.9872 58.1543 52.9872C58.356 52.9872 58.5193 53.151 58.5193 53.3522Z" fill="#724B3D"/>
<path d="M63.3843 54.0821C63.5523 54.0821 63.6885 53.9459 63.6885 53.7779C63.6885 53.6098 63.5523 53.4736 63.3843 53.4736C63.2163 53.4736 63.0801 53.6098 63.0801 53.7779C63.0801 53.9459 63.2163 54.0821 63.3843 54.0821Z" fill="#724B3D"/>
<path d="M59.4317 54.6294C59.4317 54.6965 59.3773 54.7509 59.3102 54.7509C59.2432 54.7509 59.1887 54.6965 59.1887 54.6294C59.1887 54.5624 59.2432 54.5079 59.3102 54.5079C59.3773 54.5079 59.4317 54.5624 59.4317 54.6294Z" fill="#724B3D"/>
<path d="M61.5599 53.4435C61.5599 53.5947 61.4375 53.7171 61.2863 53.7171C61.1352 53.7171 61.0127 53.5947 61.0127 53.4435C61.0127 53.2924 61.1352 53.1699 61.2863 53.1699C61.4375 53.1699 61.5599 53.2924 61.5599 53.4435Z" fill="#724B3D"/>
<path d="M61.4382 50.4332C61.4382 50.5338 61.3566 50.6155 61.256 50.6155C61.1554 50.6155 61.0737 50.5338 61.0737 50.4332C61.0737 50.3326 61.1554 50.251 61.256 50.251C61.3566 50.251 61.4382 50.3326 61.4382 50.4332Z" fill="#724B3D"/>
<path d="M64.3571 49.4302C64.3571 49.5478 64.2619 49.643 64.1443 49.643C64.0267 49.643 63.9314 49.5478 63.9314 49.4302C63.9314 49.3126 64.0267 49.2173 64.1443 49.2173C64.2619 49.2173 64.3571 49.3126 64.3571 49.4302Z" fill="#724B3D"/>
<path d="M59.5536 50.1903C59.5536 50.3244 59.4448 50.4333 59.3101 50.4333C59.1755 50.4333 59.0667 50.3244 59.0667 50.1903C59.0667 50.0561 59.1755 49.9473 59.3101 49.9473C59.4448 49.9473 59.5536 50.0561 59.5536 50.1903Z" fill="#724B3D"/>
<path d="M66.5461 52.9265C66.5461 53.0606 66.4372 53.17 66.3031 53.17C66.1684 53.17 66.0596 53.0611 66.0596 52.9265C66.0596 52.7918 66.1684 52.6835 66.3031 52.6835C66.4372 52.6835 66.5461 52.7923 66.5461 52.9265Z" fill="#724B3D"/>
<path d="M56.239 55.4201C56.323 55.4201 56.3912 55.352 56.3912 55.268C56.3912 55.1839 56.323 55.1158 56.239 55.1158C56.155 55.1158 56.0869 55.1839 56.0869 55.268C56.0869 55.352 56.155 55.4201 56.239 55.4201Z" fill="#724B3D"/>
<path d="M58.6415 55.7545C58.6415 55.805 58.6007 55.8458 58.5501 55.8458C58.4996 55.8458 58.4587 55.805 58.4587 55.7545C58.4587 55.7039 58.4996 55.6631 58.5501 55.6631C58.6007 55.6631 58.6415 55.7039 58.6415 55.7545Z" fill="#724B3D"/>
<path d="M62.9283 54.9336C62.9787 54.9336 63.0196 54.8927 63.0196 54.8422C63.0196 54.7918 62.9787 54.7509 62.9283 54.7509C62.8778 54.7509 62.8369 54.7918 62.8369 54.8422C62.8369 54.8927 62.8778 54.9336 62.9283 54.9336Z" fill="#724B3D"/>
<path d="M46.5352 50.616C46.5352 50.7166 46.6168 50.7982 46.7174 50.7982C46.818 50.7982 46.8997 50.7166 46.8997 50.616C46.8997 50.5154 46.818 50.4337 46.7174 50.4337C46.6168 50.4332 46.5352 50.5149 46.5352 50.616Z" fill="#724B3D"/>
<path d="M46.8396 51.9233C46.8396 52.0744 46.9621 52.1969 47.1132 52.1969C47.2644 52.1969 47.3868 52.0744 47.3868 51.9233C47.3868 51.7721 47.2644 51.6497 47.1132 51.6497C46.9621 51.6497 46.8396 51.7721 46.8396 51.9233Z" fill="#724B3D"/>
<path d="M44.5286 51.8018C44.5286 51.953 44.651 52.0754 44.8022 52.0754C44.9533 52.0754 45.0758 51.953 45.0758 51.8018C45.0758 51.6507 44.9533 51.5282 44.8022 51.5282C44.651 51.5282 44.5286 51.6507 44.5286 51.8018Z" fill="#724B3D"/>
<path d="M44.8328 53.1092C44.8328 53.2433 44.9416 53.3522 45.0763 53.3522C45.2109 53.3522 45.3197 53.2433 45.3197 53.1092C45.3197 52.9751 45.2109 52.8662 45.0763 52.8662C44.9416 52.8662 44.8328 52.9746 44.8328 53.1092Z" fill="#724B3D"/>
<path d="M42.5825 54.2644C42.5825 54.365 42.6642 54.4467 42.7648 54.4467C42.8654 54.4467 42.947 54.365 42.947 54.2644C42.947 54.1638 42.8654 54.0822 42.7648 54.0822C42.6642 54.0822 42.5825 54.1638 42.5825 54.2644Z" fill="#724B3D"/>
<path d="M41.4275 53.3522C41.4275 53.5539 41.5908 53.7171 41.7925 53.7171C41.9942 53.7171 42.1575 53.5539 42.1575 53.3522C42.1575 53.1505 41.9942 52.9872 41.7925 52.9872C41.5908 52.9877 41.4275 53.151 41.4275 53.3522Z" fill="#724B3D"/>
<path d="M36.5625 54.0821C36.7306 54.0821 36.8668 53.9459 36.8668 53.7779C36.8668 53.6098 36.7306 53.4736 36.5625 53.4736C36.3945 53.4736 36.2583 53.6098 36.2583 53.7779C36.2583 53.9459 36.3945 54.0821 36.5625 54.0821Z" fill="#724B3D"/>
<path d="M40.5151 54.6294C40.5151 54.6965 40.5696 54.7509 40.6366 54.7509C40.7037 54.7509 40.7581 54.6965 40.7581 54.6294C40.7581 54.5624 40.7037 54.5079 40.6366 54.5079C40.5696 54.5079 40.5151 54.5624 40.5151 54.6294Z" fill="#724B3D"/>
<path d="M38.387 53.4435C38.387 53.5947 38.5094 53.7171 38.6606 53.7171C38.8117 53.7171 38.9342 53.5947 38.9342 53.4435C38.9342 53.2924 38.8117 53.1699 38.6606 53.1699C38.5094 53.1699 38.387 53.2924 38.387 53.4435Z" fill="#724B3D"/>
<path d="M38.5085 50.4332C38.5085 50.5338 38.5902 50.6155 38.6908 50.6155C38.7914 50.6155 38.873 50.5338 38.873 50.4332C38.873 50.3326 38.7914 50.251 38.6908 50.251C38.5902 50.251 38.5085 50.3326 38.5085 50.4332Z" fill="#724B3D"/>
<path d="M35.5896 49.4302C35.5896 49.5478 35.6849 49.643 35.8025 49.643C35.9201 49.643 36.0153 49.5478 36.0153 49.4302C36.0153 49.3126 35.9201 49.2173 35.8025 49.2173C35.6849 49.2173 35.5896 49.3126 35.5896 49.4302Z" fill="#724B3D"/>
<path d="M40.3938 50.1903C40.3938 50.3244 40.5027 50.4333 40.6368 50.4333C40.7709 50.4333 40.8803 50.3244 40.8803 50.1903C40.8803 50.0561 40.7714 49.9473 40.6368 49.9473C40.5027 49.9473 40.3938 50.0561 40.3938 50.1903Z" fill="#724B3D"/>
<path d="M33.4006 52.9265C33.4006 53.0606 33.5095 53.17 33.6436 53.17C33.7778 53.17 33.8866 53.0611 33.8866 52.9265C33.8866 52.7918 33.7778 52.6835 33.6436 52.6835C33.5095 52.6835 33.4006 52.7923 33.4006 52.9265Z" fill="#724B3D"/>
<path d="M43.7078 55.4201C43.7918 55.4201 43.8599 55.352 43.8599 55.268C43.8599 55.1839 43.7918 55.1158 43.7078 55.1158C43.6238 55.1158 43.5557 55.1839 43.5557 55.268C43.5557 55.352 43.6238 55.4201 43.7078 55.4201Z" fill="#724B3D"/>
<path d="M41.3059 55.7545C41.3059 55.805 41.3467 55.8458 41.3973 55.8458C41.4478 55.8458 41.4886 55.805 41.4886 55.7545C41.4886 55.7039 41.4478 55.6631 41.3973 55.6631C41.3467 55.6631 41.3059 55.7039 41.3059 55.7545Z" fill="#724B3D"/>
<path d="M36.9275 54.8422C36.9275 54.8928 36.9683 54.9336 37.0189 54.9336C37.0694 54.9336 37.1102 54.8928 37.1102 54.8422C37.1102 54.7917 37.0694 54.7509 37.0189 54.7509C36.9683 54.7509 36.9275 54.7917 36.9275 54.8422Z" fill="#724B3D"/>
<path d="M54.1924 6.79575C56.6598 6.99598 59.0544 7.70797 61.4105 8.46661C62.9006 8.9463 64.3989 9.45271 65.7349 10.2682C67.5322 11.3651 68.9552 12.9689 70.3116 14.5795C70.6902 15.0296 71.0741 15.4956 71.2642 16.0521C65.8851 14.2811 60.7899 11.3865 55.1552 10.8208C52.956 10.6002 50.7379 10.744 48.5325 10.8884C49.2012 9.84151 49.7659 8.43795 50.6106 7.52962C51.4397 6.63878 53.0926 6.7039 54.1924 6.79575Z" fill="#02020C"/>
<path d="M47.5866 6.79575C45.1192 6.99598 42.7247 7.70797 40.3685 8.46661C38.8785 8.9463 37.3801 9.45271 36.0441 10.2682C34.2469 11.3651 32.8239 12.9689 31.4674 14.5795C31.0884 15.0296 30.7049 15.4956 30.5144 16.0521C35.8935 14.2811 40.9887 11.3865 46.6234 10.8208C48.8225 10.6002 51.0401 10.744 53.2461 10.8884C52.5773 9.84151 52.0126 8.43795 51.1679 7.52962C50.3398 6.63878 48.6869 6.7039 47.5866 6.79575Z" fill="#02020C"/>
<path d="M71.0138 49.1283C71 49.1369 70.9867 49.1521 70.9724 49.1583C70.9819 49.1811 70.9967 49.163 71.0138 49.1283Z" fill="#02020C"/>
<path d="M30.7379 49.1583C30.7237 49.1521 30.7103 49.1369 30.6965 49.1283C30.7137 49.163 30.7284 49.1811 30.7379 49.1583Z" fill="#02020C"/>
<path d="M76.0782 26.8161C76.0184 25.7396 75.8969 24.6665 75.7142 23.6036C75.358 21.5299 74.644 20.103 73.6156 18.2926C73.6098 18.2819 73.6035 18.2722 73.5972 18.262C73.5345 18.0778 73.463 17.898 73.3863 17.7196C73.0009 16.335 72.1056 15.1263 71.0296 14.1674C70.8921 14.045 70.7439 13.9361 70.601 13.8205C70.5373 13.7427 70.4771 13.6596 70.4129 13.5833C68.0062 10.7188 65.082 8.65573 60.9937 7.46454C58.157 6.63834 54.3185 5.7509 51.3875 6.55426C51.2383 6.59508 51.0959 6.64612 50.9574 6.70201C50.8188 6.64612 50.6765 6.59508 50.5272 6.55426C47.3687 5.68869 43.0492 6.48671 40.0539 7.65943C38.2601 8.3617 36.4814 9.85225 34.9407 10.989C33.7462 11.8706 32.589 12.8028 31.4736 13.783C31.06 14.1465 30.6523 14.5164 30.2504 14.8931C28.4293 16.5994 27.398 18.6902 26.7565 21.0774C25.9915 23.9234 25.6786 26.8909 25.8326 29.8341C26.1339 28.9185 26.6428 28.0724 27.3071 27.374C27.5113 33.0315 28.4765 38.6478 29.4397 44.2338C29.5821 45.0595 29.9447 48.6696 30.6965 49.1288C30.5211 48.7673 30.0078 45.65 29.9053 45.8867C30.6863 42.8745 31.6209 36.2216 32.0972 33.2959C33.44 33.1122 34.9898 32.5854 35.8476 31.2085C36.406 30.3129 36.5285 29.2577 36.6476 28.2376C36.7176 27.6369 36.7895 27.0158 36.9508 26.4409C37.2424 25.3999 37.8164 24.5212 38.4915 23.7917C40.5001 23.2425 42.6176 23.1249 44.7079 23.088C44.7045 23.0802 44.7021 23.0719 44.6991 23.0642C46.1766 23.0476 47.654 23.0311 49.1315 23.0146C49.2078 23.0695 49.2841 23.1244 49.3604 23.1789L49.4955 23.2761C49.9946 23.6352 50.4519 23.9443 50.9972 24.0867C51.1216 24.1188 51.2577 24.1407 51.3996 24.1499C51.5274 24.3453 51.6621 24.5387 51.8035 24.7302C54.7545 28.7319 58.8986 31.8117 63.5671 33.5137C65.5937 34.2524 67.7176 34.7233 69.8666 34.9031C70.3769 38.2031 71.1458 43.3425 71.8053 45.8862C71.7028 45.65 71.19 48.7672 71.0141 49.1283C71.7664 48.6691 72.129 45.0591 72.2714 44.2334C73.1097 39.3695 73.9486 34.4827 74.2868 29.5664C74.4195 28.831 74.523 28.0899 74.5843 27.3449C75.2612 28.0486 75.7779 28.9059 76.0836 29.8337C75.8061 29.0944 76.1239 27.636 76.0782 26.8161ZM36.5713 26.334C36.4017 26.939 36.3278 27.5757 36.2563 28.1915C36.1373 29.213 36.025 30.1782 35.5137 30.9991C34.7595 32.2092 33.3914 32.702 32.1657 32.8872C32.2498 32.391 32.3149 32.0508 32.3572 31.922C32.6254 31.1007 33.2159 30.3279 34.0489 30.098C33.3564 28.2692 34.0898 30.0874 33.2845 28.2328C34.2667 26.0059 35.2182 24.9119 37.5107 24.0955C37.6016 24.0629 37.6944 24.0381 37.7863 24.008C37.2565 24.6757 36.8191 25.4485 36.5713 26.334ZM51.0973 23.7042C50.8086 23.6289 50.5394 23.4909 50.2697 23.3227C50.4801 23.4058 50.6959 23.468 50.919 23.505V23.5511C50.9574 23.5511 50.9938 23.5443 51.0312 23.5424C51.0623 23.5983 51.0998 23.6537 51.1323 23.7096C51.1207 23.7062 51.109 23.7071 51.0973 23.7042Z" fill="#02020C"/>
<path d="M71.5532 24.8201C70.2624 23.3475 68.7373 21.9872 67.1641 20.7567C65.5788 19.5276 63.9186 18.3874 62.1671 17.4057C60.418 16.4235 58.6198 15.519 56.7448 14.8022C55.8214 14.4071 54.862 14.1106 53.9119 13.7884C53.4404 13.6159 52.9506 13.5031 52.468 13.3675L51.0163 12.9734L51.1217 12.986L50.7412 12.987L50.8472 12.9743C46.5538 14.0581 42.4165 15.762 38.6413 18.0788C36.7585 19.2423 34.9613 20.5462 33.2846 21.9877C32.4564 22.7182 31.6443 23.471 30.8944 24.2724C30.7097 24.4682 30.5144 24.6835 30.3588 24.8702C30.2305 25.0869 30.0711 25.274 29.9623 25.5107C29.7266 25.9695 29.5399 26.4662 29.4014 26.9838C28.844 29.0639 28.8051 31.3097 28.8527 33.5142C28.9198 35.7294 29.1356 37.9465 29.418 40.1549C29.9934 44.5702 30.839 48.9675 31.8732 53.2978L31.8625 53.2613C32.6022 55.3448 33.6748 57.3097 34.936 59.1419C36.2176 60.962 37.6795 62.6635 39.292 64.2026C39.6959 64.5875 40.1036 64.9618 40.5337 65.3141L41.1753 65.8453L41.8382 66.343C42.7378 66.9879 43.6927 67.5619 44.6788 68.0804C45.6635 68.6019 46.6753 69.0796 47.7115 69.5034C48.7452 69.9301 49.795 70.3321 50.8647 70.6625L50.8661 70.663H50.7626C52.9389 70.0516 55.0676 69.2502 57.0879 68.2442C58.0963 67.7383 59.0761 67.1765 60.0014 66.5379L60.6804 66.0402C60.9044 65.8711 61.1163 65.6849 61.335 65.508C61.7739 65.1523 62.187 64.7747 62.5981 64.3863C64.234 62.8307 65.7154 61.1107 67.0125 59.2668C68.2931 57.4132 69.3769 55.4201 70.1258 53.3051L70.1185 53.3298C70.6886 50.9601 71.1848 48.5627 71.6232 46.1608C72.0601 43.7576 72.4338 41.3431 72.7089 38.9199C72.9801 36.4977 73.1599 34.0624 73.1147 31.6387C73.0836 30.429 72.9981 29.2204 72.7828 28.0457C72.5655 26.8827 72.2112 25.7129 71.5532 24.8201ZM72.1621 24.3351C72.9572 25.432 73.2955 26.6825 73.5234 27.9111C73.7407 29.147 73.8189 30.3887 73.8422 31.6256C73.8719 34.1003 73.6717 36.558 73.382 38.9987C73.088 41.4394 72.6958 43.864 72.2404 46.2756C71.7835 48.6881 71.2703 51.084 70.6789 53.4713L70.6716 53.4961C69.8862 55.667 68.7635 57.6946 67.4475 59.572C66.1144 61.4392 64.6019 63.1713 62.9306 64.7392C62.5121 65.129 62.0825 65.5158 61.6359 65.873C61.4113 66.0519 61.1941 66.2399 60.9632 66.4115L60.2634 66.9174C59.3118 67.5643 58.3102 68.129 57.2828 68.6359C55.2246 69.6434 53.0716 70.4366 50.8656 71.0402C50.8326 71.0494 50.7986 71.0494 50.7674 71.0416L50.7621 71.0402L50.7606 71.0397C48.5523 70.4958 46.4066 69.7139 44.3576 68.7035C43.338 68.1898 42.3446 67.6163 41.3988 66.9621L40.7 66.4557L40.0341 65.9129C39.5899 65.5522 39.1642 65.1644 38.7501 64.7727C37.0919 63.2024 35.5921 61.4723 34.2677 59.608C32.9648 57.7311 31.8465 55.7078 31.067 53.5383L31.0558 53.5019C29.9929 49.1308 29.1278 44.7286 28.5276 40.2696C28.2297 38.0413 28.0154 35.7974 27.9434 33.5385C27.8963 31.2829 27.9206 28.9949 28.5198 26.7374C28.6705 26.1746 28.8761 25.6176 29.1521 25.0811C29.2785 24.8099 29.4777 24.5582 29.6405 24.2986C29.8427 24.0551 30.025 23.8569 30.2233 23.645C31.0023 22.8115 31.8324 22.0407 32.6819 21.2908C34.398 19.8124 36.2331 18.4793 38.1562 17.2891C40.0774 16.093 42.1103 15.085 44.1924 14.2044L45.768 13.575L47.3757 13.0331L48.1805 12.7654L48.9989 12.5428L50.6357 12.0981C50.6668 12.0893 50.6984 12.0854 50.7295 12.0854H50.7417L51.1222 12.0864H51.1358C51.1669 12.0864 51.199 12.0913 51.2277 12.099L52.7085 12.5088C53.2009 12.6497 53.7 12.7678 54.1806 12.9457C55.1487 13.2791 56.1266 13.5872 57.067 13.9945C58.9765 14.7356 60.8072 15.6668 62.5855 16.6772C64.3662 17.6876 66.0531 18.8574 67.6642 20.119C69.2729 21.3977 70.7872 22.7497 72.1621 24.3351Z" fill="#02020C"/>
<path d="M28.615 38.692C27.9915 38.414 27.1653 38.6842 26.6501 39.2236C26.1276 39.7548 25.8992 40.5684 25.8725 41.3693C25.8351 43.0076 26.3371 44.661 26.8654 46.2663C27.4112 47.8832 27.9239 49.5123 28.5445 51.0918C28.8633 51.8713 29.1753 52.6854 29.5972 53.3842C29.8169 53.7249 30.0953 54.0262 30.4521 54.1798C30.8039 54.3368 31.2287 54.3567 31.5388 54.1541L31.6987 54.3961C31.2836 54.675 30.7505 54.6478 30.3286 54.4695C29.8903 54.2901 29.5593 53.9378 29.3134 53.5713C29.0645 53.1986 28.8862 52.8039 28.7015 52.4171C28.5202 52.0278 28.3482 51.6337 28.1834 51.2376C27.5244 49.6508 26.9806 48.0305 26.4032 46.4237C25.8424 44.8112 25.283 43.1471 25.2854 41.3513C25.3029 40.4649 25.5197 39.5031 26.1903 38.7824C26.5194 38.4339 26.931 38.1647 27.399 38.0169C27.8627 37.8653 28.4021 37.8638 28.8828 38.0592L28.615 38.692Z" fill="#02020C"/>
<path d="M26.9077 41.9608C26.5762 41.2935 26.7167 40.4255 27.26 39.8783C27.5201 39.6149 27.9239 39.3889 28.3603 39.5016C28.7768 39.6139 29.0825 39.9633 29.1817 40.3774C29.207 40.4834 29.1418 40.5903 29.0359 40.6156C28.9299 40.6408 28.823 40.5757 28.7977 40.4698C28.7968 40.4649 28.7953 40.4591 28.7948 40.4542C28.7506 40.1791 28.5397 39.905 28.2704 39.82C28.0065 39.7262 27.6824 39.8564 27.4437 40.0727C26.9568 40.5018 26.7668 41.2775 27.0341 41.9025C27.0496 41.9375 27.0336 41.9783 26.9986 41.9939C26.9636 42.0084 26.9242 41.9934 26.9077 41.9608Z" fill="#02020C"/>
<path d="M29.6778 45.1305C29.1592 45.3798 28.8807 45.9625 28.8594 46.5151C28.8419 47.0803 29.0615 47.627 29.3507 48.116C29.6423 48.6088 30.0121 49.0598 30.3358 49.5604C30.6741 50.0566 30.8592 50.6563 31.2714 50.9357C31.3618 50.997 31.3851 51.1194 31.3243 51.2098C31.2631 51.3002 31.1406 51.324 31.0502 51.2628C31.0473 51.2609 31.043 51.2575 31.04 51.2555C30.7659 51.047 30.5968 50.7632 30.4617 50.4973C30.3266 50.2257 30.2134 49.9725 30.0656 49.7266C29.7769 49.2318 29.4236 48.7594 29.1422 48.2331C28.8637 47.7111 28.6523 47.1177 28.6985 46.5054C28.7485 45.9076 29.0761 45.2981 29.6438 45.0551C29.6647 45.0459 29.689 45.0556 29.6982 45.077C29.7069 45.0974 29.6977 45.1207 29.6778 45.1305Z" fill="#02020C"/>
<path d="M73.1452 38.0602C73.6293 37.8628 74.1722 37.8672 74.6387 38.0208C75.1087 38.1719 75.5228 38.4441 75.8513 38.7979C76.5225 39.5279 76.7305 40.4979 76.7436 41.3898C76.7363 43.1962 76.1662 44.8695 75.601 46.4923C75.0202 48.1097 74.471 49.7422 73.8033 51.3382C73.6356 51.7367 73.4611 52.1323 73.2765 52.524C73.0918 52.9128 72.9047 53.3123 72.6398 53.6797C72.5076 53.8625 72.3545 54.0355 72.1752 54.1827C71.9934 54.3387 71.7665 54.4413 71.5434 54.5016C71.0958 54.6109 70.5981 54.6046 70.1753 54.3373L70.3352 54.0953C70.6491 54.2916 71.0865 54.3023 71.4608 54.1997C71.8432 54.1035 72.128 53.8216 72.3652 53.4843C72.598 53.149 72.772 52.7626 72.9479 52.3724C73.1224 51.9831 73.2876 51.589 73.4456 51.1919C74.075 49.6027 74.5916 47.9634 75.1412 46.3343C75.6749 44.7174 76.1871 43.0553 76.158 41.4038C76.1351 40.5961 75.9135 39.7743 75.3896 39.2353C74.8744 38.689 74.0424 38.412 73.414 38.692L73.1452 38.0602Z" fill="#02020C"/>
<path d="M74.995 41.902C75.2623 41.277 75.0723 40.5009 74.5853 40.0722C74.3467 39.8559 74.0226 39.7257 73.7587 39.8195C73.4894 39.905 73.278 40.1791 73.2343 40.4537C73.2173 40.5616 73.1162 40.635 73.0083 40.618C72.9004 40.601 72.827 40.4999 72.844 40.392C72.8445 40.3871 72.8459 40.3813 72.8469 40.3769C72.9461 39.9628 73.2518 39.6134 73.6683 39.5012C74.1047 39.3884 74.5086 39.6144 74.7686 39.8778C75.3114 40.425 75.4519 41.293 75.1209 41.9603C75.1039 41.9948 75.0621 42.0084 75.0281 41.9914C74.9946 41.9759 74.9809 41.9355 74.995 41.902Z" fill="#02020C"/>
<path d="M72.3841 45.0552C72.9517 45.2982 73.2793 45.9081 73.3294 46.5054C73.3755 47.1173 73.1641 47.7107 72.8856 48.2331C72.6042 48.76 72.2509 49.2324 71.9622 49.7266C71.8145 49.9725 71.7013 50.2257 71.5661 50.4974C71.431 50.7633 71.2619 51.0476 70.9878 51.2556C70.9013 51.3222 70.7774 51.3061 70.7108 51.2201C70.6442 51.1341 70.6602 51.0102 70.7463 50.9431C70.7492 50.9411 70.7536 50.9377 70.7565 50.9358C71.1686 50.6568 71.3543 50.0571 71.692 49.5604C72.0157 49.0598 72.3855 48.6088 72.6771 48.116C72.9668 47.6276 73.186 47.0803 73.1685 46.5151C73.1471 45.9625 72.8686 45.3793 72.3501 45.1305C72.3292 45.1208 72.3204 45.0965 72.3301 45.0756C72.3399 45.0557 72.3637 45.0464 72.3841 45.0552Z" fill="#02020C"/>
<path d="M50.7406 56.9184C50.7333 56.9184 50.726 56.9184 50.7192 56.9184C49.6937 56.9121 48.6969 56.4285 48.1176 55.6558C48.0428 55.5562 48.0632 55.4152 48.1628 55.3404C48.263 55.265 48.4039 55.286 48.4787 55.3856C48.9749 56.0475 49.8352 56.4621 50.7221 56.4679C51.5823 56.4762 52.4299 56.1263 53.1011 55.5158C53.1924 55.4322 53.3358 55.4385 53.4194 55.5309C53.5035 55.6232 53.4967 55.7656 53.4043 55.8497C52.6559 56.5291 51.6859 56.9184 50.7406 56.9184Z" fill="#02020C"/>
<path d="M47.7046 53.7648C47.5574 54.0913 47.3819 54.4165 47.2594 54.7421C47.2026 54.9039 47.1793 55.0638 47.222 55.2082C47.2619 55.3554 47.3591 55.4978 47.4655 55.6232C47.9049 56.1282 48.6377 56.3046 49.29 56.2317H49.2929L49.0849 56.4679L49.0805 56.3775C49.0742 56.2531 49.1699 56.1471 49.2943 56.1408C49.4188 56.1345 49.5247 56.2302 49.531 56.3546L49.5354 56.445L49.5359 56.4582C49.5417 56.5753 49.4513 56.6749 49.3342 56.6808H49.3269H49.3235C48.9308 56.6948 48.5396 56.6326 48.176 56.4912C47.8135 56.3512 47.4767 56.1189 47.2415 55.8011C47.1273 55.6422 47.0252 55.4711 46.9829 55.2631C46.9387 55.0517 46.9931 54.8393 47.0694 54.6677C47.2288 54.3266 47.4237 54.0262 47.5987 53.7055C47.6147 53.6758 47.6517 53.6651 47.6808 53.6811C47.709 53.6962 47.7202 53.7302 47.7071 53.7589L47.7046 53.7648Z" fill="#02020C"/>
<path d="M48.111 37.1732C48.3312 37.8891 48.5246 38.6108 48.7136 39.3339C48.9056 40.0561 49.0781 40.7832 49.2507 41.5098C49.2531 41.5209 49.2546 41.5331 49.255 41.5443C49.2735 42.4609 49.273 43.3736 49.2604 44.2882C49.2444 45.2024 49.2249 46.117 49.1647 47.0307C49.1078 47.9439 49.0334 48.8571 48.9124 49.7664C48.7797 50.6728 48.6276 51.5845 48.301 52.4555C48.284 52.5011 48.233 52.5245 48.1868 52.5075C48.1421 52.4904 48.1188 52.4418 48.1338 52.3966L48.1348 52.3937C48.4191 51.5413 48.5387 50.6334 48.6359 49.7329C48.737 48.8309 48.7967 47.9225 48.8371 47.0137C48.9173 45.1961 48.9479 43.3716 48.9114 41.553L48.9158 41.587C48.752 40.858 48.5883 40.1295 48.4439 39.3961C48.2967 38.6633 48.1538 37.9299 48.0376 37.1897C48.0342 37.1693 48.0483 37.1498 48.0687 37.1469C48.0877 37.144 48.1057 37.1557 48.111 37.1732Z" fill="#02020C"/>
<path d="M54.3259 53.7054C54.5009 54.0267 54.6957 54.3265 54.8552 54.6677C54.9315 54.8393 54.9859 55.0517 54.9417 55.2631C54.8999 55.4711 54.7973 55.6421 54.6831 55.8011C54.4484 56.1189 54.1111 56.3512 53.7485 56.4912C53.3845 56.6326 52.9938 56.6953 52.6011 56.6807H52.5977C52.4806 56.6788 52.3868 56.5826 52.3887 56.465V56.4586L52.3892 56.4445L52.3936 56.3541C52.3999 56.2297 52.5058 56.134 52.6302 56.1403C52.7547 56.1466 52.8504 56.2526 52.8441 56.377L52.8397 56.4674L52.6317 56.2312H52.6346C53.2868 56.3041 54.0197 56.1277 54.4591 55.6227C54.5655 55.4973 54.6627 55.3549 54.7025 55.2077C54.7453 55.0633 54.722 54.9039 54.6651 54.7416C54.5422 54.416 54.3667 54.0908 54.22 53.7642L54.2175 53.7589C54.2039 53.7283 54.2175 53.6923 54.2481 53.6787C54.2768 53.6661 54.3108 53.6782 54.3259 53.7054Z" fill="#02020C"/>
<path d="M45.76 72.5176C46.2008 75.297 47.1189 78.0021 48.4637 80.4778C48.4909 80.5283 48.4724 80.5915 48.4219 80.6187C48.3718 80.6459 48.3091 80.6275 48.2814 80.5774C46.909 78.0896 45.9637 75.3655 45.5 72.5594C45.4884 72.4874 45.5365 72.4199 45.6084 72.4077C45.6803 72.3961 45.7479 72.4447 45.76 72.5161V72.5176Z" fill="#02020C"/>
<path d="M61.7977 66.2282L61.5873 80.312C61.5853 80.4524 61.4696 80.5647 61.3292 80.5628C61.1917 80.5608 61.0808 80.449 61.0789 80.312L60.8685 66.2282C60.8646 65.9716 61.0697 65.7602 61.3263 65.7563C61.5829 65.7524 61.7943 65.9575 61.7982 66.2141C61.7977 66.218 61.7977 66.2238 61.7977 66.2282Z" fill="#02020C"/>
<path d="M67.214 81.3802C65.0645 80.034 62.9965 78.5361 61.1672 76.7671C61.088 76.6903 61.0861 76.5639 61.1624 76.4847C61.2372 76.4074 61.3611 76.4045 61.4404 76.4765C63.2969 78.1551 65.3857 79.564 67.5503 80.8203C67.7068 80.9102 67.7608 81.11 67.6709 81.2665C67.581 81.423 67.3807 81.4769 67.2242 81.3865C67.2218 81.3846 67.217 81.3817 67.214 81.3802Z" fill="#02020C"/>
<path d="M41.148 66.2282L40.9376 80.312C40.9357 80.4524 40.82 80.5647 40.6795 80.5628C40.5415 80.5608 40.4312 80.449 40.4292 80.312L40.2188 66.2282C40.2149 65.9716 40.42 65.7602 40.6766 65.7563C40.9332 65.7524 41.1446 65.9575 41.1485 66.2141C41.148 66.218 41.148 66.2238 41.148 66.2282Z" fill="#02020C"/>
<path d="M33.7244 80.9005C34.9151 80.2123 36.1101 79.5518 37.2731 78.8403C38.4318 78.1274 39.5734 77.377 40.575 76.4759L40.577 76.474C40.6591 76.4001 40.785 76.4069 40.8588 76.4891C40.9313 76.5692 40.9259 76.6922 40.8486 76.7666C39.8402 77.7317 38.7039 78.5273 37.555 79.285C36.4032 80.0398 35.2212 80.7415 34.0617 81.4608C33.9086 81.5566 33.7069 81.5094 33.6111 81.3563C33.5154 81.2032 33.5625 81.0016 33.7156 80.9058C33.7171 80.9048 33.7214 80.9019 33.7244 80.9005Z" fill="#02020C"/>
<path d="M56.5421 72.5594C56.0785 75.3655 55.1327 78.0895 53.7607 80.5774C53.733 80.6274 53.6698 80.6459 53.6198 80.6182C53.5697 80.5905 53.5513 80.5278 53.5785 80.4778C54.9232 78.0021 55.8413 75.297 56.2821 72.5176C56.2933 72.4456 56.3608 72.3965 56.4328 72.4082C56.5047 72.4194 56.5538 72.4869 56.5421 72.5589V72.5594Z" fill="#02020C"/>
<path d="M65.6983 36.3092C65.0524 36.5317 64.4046 36.6654 63.7563 36.7675C63.4321 36.8272 63.1075 36.8535 62.7833 36.8962C62.4587 36.9317 62.134 36.9546 61.8094 36.9745L61.8803 36.9696C61.179 37.0707 60.4772 37.1674 59.7721 37.235C59.0678 37.3108 58.3593 37.3511 57.6507 37.3891L55.5235 37.4945C54.8144 37.53 54.1029 37.5441 53.3714 37.3915C53.2912 37.375 53.2397 37.2962 53.2563 37.216C53.266 37.1689 53.2981 37.1315 53.3379 37.112C54.013 36.7922 54.7079 36.6387 55.4058 36.507L57.4986 36.1104C58.1964 35.9811 58.8943 35.8543 59.5971 35.7624C60.2984 35.6623 61.0031 35.5918 61.7088 35.5252L61.7496 35.5213L61.7802 35.5204C62.1053 35.5272 62.431 35.5369 62.7566 35.5593C63.0822 35.5889 63.4078 35.602 63.7339 35.6487C64.3861 35.7245 65.0384 35.8319 65.693 36.0282C65.7712 36.0521 65.8155 36.1342 65.7921 36.2124C65.7776 36.2591 65.7411 36.2941 65.6983 36.3092Z" fill="#02020C"/>
<path d="M35.7077 36.0282C36.3618 35.8319 37.0145 35.7245 37.6668 35.6487C37.9929 35.602 38.3185 35.5889 38.6441 35.5593C38.9697 35.5369 39.2953 35.5277 39.6205 35.5204L39.6511 35.5213L39.6919 35.5252C40.3971 35.5918 41.1023 35.6623 41.8036 35.7624C42.5059 35.8543 43.2042 35.9811 43.9021 36.1104L45.9949 36.507C46.6923 36.6387 47.3872 36.7922 48.0628 37.112C48.1367 37.147 48.1682 37.2355 48.1333 37.3094C48.1128 37.3526 48.073 37.3818 48.0292 37.391C47.2978 37.5431 46.5863 37.5295 45.8772 37.494L43.75 37.3886C43.0414 37.3507 42.3328 37.3098 41.6286 37.2345C40.9234 37.167 40.2217 37.0702 39.5204 36.9691L39.5913 36.974C39.2667 36.9541 38.9415 36.9312 38.6174 36.8958C38.2932 36.853 37.9686 36.8268 37.6444 36.767C36.9961 36.6649 36.3482 36.5318 35.7023 36.3087C35.6251 36.282 35.5842 36.1979 35.611 36.1206C35.6265 36.0749 35.664 36.0414 35.7077 36.0282Z" fill="#02020C"/>
<path d="M3.81151 101.646L8.24383 92.6958C9.28387 91.2087 10.7064 89.9213 12.2548 88.9182C13.0392 88.42 13.8717 87.9962 14.728 87.6434L15.3744 87.3965C15.5931 87.3178 15.8264 87.2555 16.0514 87.1841L17.4142 86.7686L28.3142 83.4443C28.3297 83.4395 28.3462 83.4327 28.3613 83.4244L28.3676 83.421L32.0126 81.4265L32.6201 81.094L32.9239 80.9278L33.0206 80.8749C33.0561 80.905 33.093 80.9371 33.1231 80.9638L33.3754 81.1922L33.8881 81.667C34.2623 81.979 34.6181 82.258 34.9938 82.5423C35.7393 83.1037 36.5096 83.6314 37.3023 84.1238C38.8866 85.1094 40.5653 85.954 42.327 86.5922C44.0883 87.2167 45.9346 87.6813 47.8208 87.7367C48.2883 87.7493 48.767 87.813 49.2258 87.7819L50.6123 87.7396C51.0653 87.7168 51.4964 87.7615 51.9765 87.7833C52.4591 87.8023 52.9223 87.7897 53.3947 87.7624C55.276 87.6502 57.1247 87.2215 58.8841 86.5829C60.6448 85.9424 62.322 85.0963 63.9064 84.1102C65.4203 83.1591 66.8535 82.1039 68.1842 80.8855L72.8177 83.421L72.8255 83.4254C72.84 83.4332 72.8551 83.4395 72.8716 83.4448L83.7721 86.7691L85.1344 87.1846C85.3599 87.256 85.5927 87.3187 85.8114 87.397L86.4578 87.6439C87.3141 87.9967 88.1466 88.4205 88.931 88.9186C89.7115 89.4236 90.4493 89.9956 91.1292 90.6289C91.467 90.9477 91.795 91.2777 92.1002 91.6266C92.4015 91.9634 92.7131 92.3561 92.9386 92.69L97.3738 101.647H98.1033L93.5082 92.3692C93.2054 91.9143 92.9182 91.5669 92.5896 91.1936C92.2693 90.8276 91.9277 90.4836 91.5749 90.1511C90.8653 89.4907 90.0969 88.8943 89.2829 88.368C88.464 87.8475 87.5984 87.4067 86.6998 87.0369L86.0155 86.7764C85.7876 86.6947 85.5611 86.6344 85.3341 86.5625L83.9723 86.1475L73.102 82.8325L68.2964 80.2032C68.1764 80.1376 68.0223 80.1522 67.9164 80.2508L67.9105 80.2562C66.5915 81.4882 65.1034 82.588 63.5594 83.5561C62.009 84.5213 60.3707 85.347 58.6595 85.9696C56.9498 86.5902 55.1628 87.0033 53.3543 87.1112C52.9053 87.1375 52.4441 87.1491 52.0038 87.1316C51.5615 87.1117 51.0716 87.0636 50.6007 87.0874L49.2185 87.1297C48.9867 87.1433 48.7592 87.1384 48.5342 87.1209L47.8562 87.0854C46.0449 87.0344 44.2589 86.5858 42.5477 85.9788C40.8355 85.3587 39.1967 84.5344 37.6459 83.5702C36.8697 83.0881 36.115 82.571 35.3855 82.0218C35.0244 81.7497 34.654 81.4576 34.3192 81.1786L33.8162 80.712L33.5547 80.4759C33.4541 80.3913 33.4021 80.332 33.2354 80.2188C33.2223 80.2115 33.2398 80.2192 33.2009 80.1998C33.1504 80.176 33.0794 80.1604 33.0123 80.1677C32.8393 80.2056 32.8918 80.21 32.8748 80.21L32.8369 80.2309L32.7611 80.2722L32.609 80.3553L32.3052 80.5215L31.6977 80.854L30.4827 81.5188L28.0814 82.8329L17.211 86.148L15.8492 86.563C15.6223 86.6349 15.3958 86.6952 15.1679 86.7768L14.4836 87.0373C13.585 87.4072 12.7199 87.8485 11.901 88.3685C10.2743 89.4304 8.8212 90.728 7.68445 92.3547L7.6723 92.3756L7.66792 92.3848L3.08105 101.647H3.81151V101.646ZM33.1858 80.7845L33.1907 80.782C33.1878 80.7776 33.2077 80.7752 33.1858 80.7845Z" fill="#02020C"/>
<path d="M50.8679 91.9901C47.343 91.9901 44.1883 91.4128 41.5353 90.6337C33.3326 88.2271 28.0424 83.4225 27.99 83.3743C27.8568 83.2524 27.8485 83.0453 27.9705 82.9126C28.0925 82.779 28.2995 82.7707 28.4322 82.8927C28.4837 82.9403 33.68 87.6545 41.7447 90.0146C49.1694 92.1875 60.6258 92.7498 73.0397 83.0886C73.1826 82.9778 73.3872 83.0035 73.4985 83.1459C73.6093 83.2883 73.5836 83.4934 73.4412 83.6042C65.2249 89.9985 57.4109 91.9901 50.8679 91.9901Z" fill="#02020C"/>
<path d="M87.4248 101.646C86.1709 98.348 86.2876 94.6515 86.6122 91.1363C86.7347 89.8114 86.8985 88.5357 87.5521 87.4854C87.5905 87.4237 87.5716 87.3425 87.5098 87.3041C87.4476 87.2653 87.367 87.2847 87.3286 87.3464C86.6443 88.4448 86.4752 89.7541 86.3498 91.1115C86.0251 94.6257 85.907 98.3218 87.1424 101.646H87.4248V101.646Z" fill="#02020C"/>
<path d="M15.2747 91.1362C15.5994 94.6515 15.716 98.348 14.4621 101.646H14.7445C15.9799 98.3222 15.8618 94.6262 15.5372 91.1119C15.4118 89.7545 15.2427 88.4453 14.5584 87.3469C14.52 87.2852 14.4393 87.2657 14.3771 87.3046C14.3154 87.343 14.2964 87.4242 14.3348 87.4859C14.988 88.5357 15.1523 89.8114 15.2747 91.1362Z" fill="#02020C"/>
<path d="M29.9904 84.6793C29.9467 84.6793 29.9034 84.6579 29.8786 84.6175C29.8398 84.5563 29.8587 84.4747 29.9199 84.4358L34.207 81.7448C34.2687 81.7054 34.3498 81.7249 34.3887 81.7866C34.4276 81.8478 34.4086 81.9295 34.3474 81.9684L30.0604 84.6593C30.0385 84.673 30.0142 84.6793 29.9904 84.6793Z" fill="#02020C"/>
<path d="M33.0002 86.6403C32.9599 86.6403 32.92 86.6218 32.8943 86.5873C32.851 86.5285 32.8632 86.4464 32.922 86.4031L36.7988 83.5294C36.8571 83.4861 36.9393 83.4988 36.9835 83.5571C37.0267 83.6159 37.0141 83.698 36.9558 83.7413L33.079 86.615C33.0551 86.6325 33.0274 86.6403 33.0002 86.6403Z" fill="#02020C"/>
<path d="M36.6029 88.5104C36.5689 88.5104 36.5344 88.4973 36.5086 88.4706C36.4581 88.4181 36.4591 88.335 36.5115 88.2839L39.7493 85.1366C39.8008 85.0861 39.8849 85.087 39.9354 85.139C39.986 85.1915 39.985 85.2746 39.9325 85.3257L36.6948 88.473C36.6695 88.4983 36.6364 88.5104 36.6029 88.5104Z" fill="#02020C"/>
<path d="M40.9812 90.1973C40.9555 90.1973 40.9287 90.1895 40.9059 90.174C40.8466 90.1322 40.8315 90.05 40.8733 89.9903L43.1993 86.6612C43.2411 86.6014 43.3228 86.5873 43.383 86.6281C43.4423 86.6699 43.4574 86.752 43.4156 86.8118L41.0896 90.1409C41.0638 90.1779 41.023 90.1973 40.9812 90.1973Z" fill="#02020C"/>
<path d="M45.7248 91.2923C45.7063 91.2923 45.6874 91.2889 45.6694 91.2802C45.6033 91.25 45.5746 91.1713 45.6047 91.1057L47.2465 87.5482C47.2771 87.4821 47.3553 87.452 47.4214 87.4835C47.4875 87.5137 47.5162 87.5924 47.486 87.658L45.8443 91.2155C45.822 91.2637 45.7744 91.2923 45.7248 91.2923Z" fill="#02020C"/>
<path d="M71.0361 84.6791C71.0123 84.6791 70.988 84.6728 70.9661 84.6592L66.6791 81.9682C66.6174 81.9293 66.5989 81.8477 66.6378 81.7864C66.6767 81.7247 66.7578 81.7067 66.8196 81.7446L71.1066 84.4356C71.1683 84.4745 71.1867 84.5561 71.1479 84.6174C71.1226 84.6572 71.0798 84.6791 71.0361 84.6791Z" fill="#02020C"/>
<path d="M68.0263 86.6403C67.9991 86.6403 67.9714 86.632 67.9481 86.6145L64.0717 83.7408C64.0134 83.6975 64.0008 83.6149 64.044 83.5566C64.0878 83.4983 64.1699 83.4856 64.2287 83.5289L68.1051 86.4026C68.1634 86.4459 68.176 86.5285 68.1328 86.5868C68.106 86.6218 68.0662 86.6403 68.0263 86.6403Z" fill="#02020C"/>
<path d="M64.4229 88.5104C64.3899 88.5104 64.3568 88.4982 64.3311 88.4734L61.0928 85.3261C61.0404 85.2751 61.0394 85.192 61.0899 85.1395C61.1405 85.087 61.2241 85.0865 61.2761 85.137L64.5138 88.2844C64.5663 88.3354 64.5673 88.4185 64.5167 88.471C64.4919 88.4972 64.4574 88.5104 64.4229 88.5104Z" fill="#02020C"/>
<path d="M60.0451 90.1973C60.0033 90.1973 59.9625 90.1779 59.9368 90.1409L57.6108 86.8118C57.569 86.7525 57.5835 86.6704 57.6433 86.6281C57.7036 86.5873 57.7852 86.6009 57.827 86.6612L60.153 89.9903C60.1948 90.0496 60.1802 90.1317 60.1205 90.174C60.0971 90.19 60.0709 90.1973 60.0451 90.1973Z" fill="#02020C"/>
<path d="M55.3018 91.2922C55.2517 91.2922 55.2046 91.264 55.1822 91.2154L53.5405 87.6579C53.5099 87.5923 53.539 87.5136 53.6051 87.4834C53.6712 87.4518 53.7495 87.482 53.7801 87.5481L55.4218 91.1056C55.4524 91.1717 55.4233 91.2499 55.3572 91.2801C55.3392 91.2883 55.3202 91.2922 55.3018 91.2922Z" fill="#02020C"/>
<path d="M50.8326 91.9309C50.7597 91.9309 50.7009 91.8716 50.7009 91.7992V87.4072C50.7009 87.3348 50.7597 87.2755 50.8326 87.2755C50.9055 87.2755 50.9643 87.3348 50.9643 87.4072V91.7992C50.9643 91.8716 50.9055 91.9309 50.8326 91.9309Z" fill="#02020C"/>
<path d="M66.6082 80.4166L68.1011 80.1464L67.4183 80.9084L66.6082 80.4166Z" fill="#02020C"/>
<path d="M34.6041 80.4166L33.1111 80.1464L33.7939 80.9084L34.6041 80.4166Z" fill="#02020C"/>
<path d="M41.0397 52.4686C36.4446 52.4686 32.7058 48.7298 32.7058 44.1347C32.7058 39.5391 36.4441 35.8008 41.0397 35.8008C45.6349 35.8008 49.3737 39.5396 49.3737 44.1347C49.3742 48.7298 45.6354 52.4686 41.0397 52.4686ZM41.0397 36.3932C36.7707 36.3932 33.2978 39.8657 33.2978 44.1347C33.2978 48.4037 36.7707 51.8762 41.0397 51.8762C45.3088 51.8762 48.7817 48.4037 48.7817 44.1347C48.7822 39.8657 45.3088 36.3932 41.0397 36.3932Z" fill="#02020C"/>
<path d="M33.1791 42.6233L32.125 42.6087V40.8324L33.5689 40.847L33.1791 42.6233Z" fill="#02020C"/>
<path d="M32.8 41.7343C32.124 41.5564 31.5004 41.2677 30.892 40.9475C30.2869 40.6204 29.6945 40.2666 29.1497 39.8127L29.1958 39.7159C29.8913 39.853 30.5396 40.0897 31.1748 40.3531C31.8071 40.6233 32.4238 40.9256 32.9881 41.3387L32.8 41.7343Z" fill="#02020C"/>
<path d="M60.9797 52.4686C56.3841 52.4686 52.6458 48.7298 52.6458 44.1347C52.6458 39.5391 56.3845 35.8008 60.9797 35.8008C65.5748 35.8008 69.3136 39.5396 69.3136 44.1347C69.3136 48.7298 65.5753 52.4686 60.9797 52.4686ZM60.9797 36.3932C56.7107 36.3932 53.2377 39.8657 53.2377 44.1347C53.2377 48.4037 56.7107 51.8762 60.9797 51.8762C65.2487 51.8762 68.7217 48.4037 68.7217 44.1347C68.7217 39.8657 65.2487 36.3932 60.9797 36.3932Z" fill="#02020C"/>
<path d="M68.8407 42.6233L69.8948 42.6087V40.8324L68.4504 40.847L68.8407 42.6233Z" fill="#02020C"/>
<path d="M69.0317 41.3387C69.596 40.9261 70.2127 40.6238 70.845 40.3531C71.4802 40.0897 72.1285 39.853 72.824 39.7159L72.8702 39.8127C72.3254 40.2666 71.7329 40.6199 71.1279 40.9475C70.5194 41.2677 69.8958 41.5564 69.2198 41.7343L69.0317 41.3387Z" fill="#02020C"/>
<path d="M52.9856 42.9975C52.952 42.9975 52.918 42.9916 52.885 42.9795C50.7174 42.1951 49.1962 42.9562 49.1812 42.964C49.0354 43.0378 48.857 42.9824 48.7822 42.8371C48.7068 42.6923 48.7622 42.5144 48.9066 42.4386C48.9775 42.4021 50.662 41.5434 53.0862 42.4225C53.2398 42.4779 53.3195 42.648 53.2641 42.8016C53.2203 42.9226 53.1066 42.9975 52.9856 42.9975Z" fill="#02020C"/>
<path d="M42.275 47.6743C43.7266 47.6743 44.9033 45.9434 44.9033 43.8082C44.9033 41.673 43.7266 39.942 42.275 39.942C40.8235 39.942 39.6467 41.673 39.6467 43.8082C39.6467 45.9434 40.8235 47.6743 42.275 47.6743Z" fill="#02020C"/>
<path d="M45.103 42.8074C45.103 43.4626 44.6948 43.9933 44.1908 43.9933C43.6868 43.9933 43.2786 43.4626 43.2786 42.8074C43.2786 42.1523 43.6868 41.6216 44.1908 41.6216C44.6948 41.6216 45.103 42.1523 45.103 42.8074Z" fill="#F4EFE9"/>
<path d="M39.4937 47.75C40.3374 47.6261 41.1768 47.5969 42.02 47.5853C42.8622 47.5765 43.7045 47.5984 44.5452 47.6431C44.6541 47.6489 44.7377 47.7418 44.7319 47.8506C44.726 47.9595 44.6332 48.0431 44.5243 48.0373C44.5219 48.0373 44.5185 48.0368 44.5161 48.0368C43.685 47.9571 42.8515 47.9002 42.0171 47.8735C41.185 47.8492 40.3428 47.8448 39.5224 47.9299L39.5161 47.9303C39.4661 47.9357 39.4218 47.8992 39.4165 47.8492C39.4116 47.8011 39.4456 47.7573 39.4937 47.75Z" fill="#02020C"/>
<path d="M62.2036 43.9117C62.2036 46.0467 61.027 47.7778 59.5753 47.7778C58.1236 47.7778 56.947 46.0467 56.947 43.9117C56.947 41.7767 58.1236 40.0455 59.5753 40.0455C61.027 40.045 62.2036 41.7762 62.2036 43.9117Z" fill="#02020C"/>
<path d="M62.8852 42.7039C62.8852 43.359 62.477 43.8897 61.973 43.8897C61.469 43.8897 61.0608 43.359 61.0608 42.7039C61.0608 42.0493 61.469 41.5181 61.973 41.5181C62.477 41.5181 62.8852 42.0493 62.8852 42.7039Z" fill="#F4EFE9"/>
<path d="M56.7938 47.75C57.6375 47.6261 58.4768 47.5969 59.32 47.5853C60.1623 47.5765 61.0045 47.5984 61.8453 47.6431C61.9542 47.6489 62.0377 47.7418 62.0319 47.8506C62.0261 47.9595 61.9333 48.0431 61.8244 48.0373C61.822 48.0373 61.8186 48.0368 61.8161 48.0368C60.9851 47.9571 60.1516 47.9002 59.3171 47.8735C58.4851 47.8492 57.6428 47.8448 56.8225 47.9299L56.8162 47.9303C56.7661 47.9357 56.7219 47.8992 56.7165 47.8492C56.7117 47.8011 56.7457 47.7573 56.7938 47.75Z" fill="#02020C"/>
<path d="M48.3097 59.6075C49.5845 60.2918 51.1344 60.5008 52.5792 60.1586C52.6133 60.1504 52.6478 60.1718 52.656 60.2058C52.6638 60.2388 52.6444 60.2714 52.6128 60.2816C51.1635 60.7297 49.5364 60.6349 48.1192 59.9944C48.0104 59.9458 47.9618 59.818 48.0108 59.7091C48.0594 59.6002 48.1873 59.5521 48.2961 59.6007C48.3005 59.6027 48.3054 59.6051 48.3097 59.6075Z" fill="#02020C"/>
</g>
<defs>
<clipPath id="clip0_2728_961">
<rect width="100" height="100" fill="white"/>
</clipPath>
</defs>
</svg>
