<svg width="100" height="100" viewBox="0 0 100 100" fill="none" xmlns="http://www.w3.org/2000/svg">
<g clip-path="url(#clip0_2728_18)">
<rect width="100" height="100" fill="white"/>
<path d="M74.2026 39.3798C74.0553 39.15 73.8755 38.9429 73.7243 38.7155C73.6237 38.5643 73.579 38.4579 73.4012 38.3782C73.234 38.3033 73.0444 38.2815 72.8627 38.2781C72.2435 38.2659 71.6219 38.4404 71.099 38.7728C70.9877 38.8438 70.5736 39.1665 70.4905 39.0246C70.4774 39.0027 70.4915 38.9308 70.4915 38.905C70.4924 38.782 70.4934 38.6586 70.4944 38.5356C70.5002 37.8178 70.5065 37.1 70.5124 36.3822C70.5211 35.328 70.5299 34.2739 70.5391 33.2198C70.5425 32.8271 70.5459 32.4344 70.5488 32.0412C70.5663 31.5917 70.5819 31.1421 70.5921 30.6921C70.6091 29.9164 70.611 29.1325 70.5799 28.3505C70.5853 27.6891 70.5911 27.0277 70.5965 26.3657C70.6033 25.5517 70.6101 24.7376 70.6169 23.9236C70.6198 23.6057 70.6222 23.2884 70.6246 22.9705L69.5025 22.8928C69.3941 22.6396 69.2784 22.3888 69.1482 22.1434C68.0819 20.1289 66.324 18.5343 64.3402 17.4126C62.3558 16.2909 60.1475 15.6173 57.9167 15.1503C52.1892 13.9504 46.1881 14.0753 40.515 15.5133C37.7268 16.22 34.9391 17.2877 32.8469 19.2619C31.1736 20.8404 30.0587 22.9069 29.3117 25.0623C28.8019 26.5334 28.3281 28.0837 28.3485 29.6472C28.364 30.8423 28.3796 32.0369 28.3951 33.2319C28.4209 35.192 28.4462 37.1525 28.4719 39.1125C28.4719 39.1125 26.1469 37.2001 25.5083 38.2946C24.8697 39.3891 24.2311 39.5718 24.5052 41.1221C24.7788 42.673 26.4205 46.1391 26.6941 47.1422C26.9677 48.1453 27.7886 51.3379 27.7886 51.8856C27.7886 52.4333 28.6095 53.6187 28.6095 53.6187C28.6095 53.6187 28.6095 53.8009 29.4303 54.0745C30.2512 54.3481 31.8929 54.6218 31.8929 54.6218L32.6228 57.4493L35.4504 60.1855L35.9976 61.7363L36.5449 72.8643C36.5449 72.8643 33.8996 76.3304 32.9873 76.8776C32.0751 77.4249 28.1531 80.3438 27.0586 80.6174C26.0021 80.8818 38.2886 89.5584 49.4798 89.4223C60.6709 89.5584 72.9574 80.8813 71.9009 80.6174C70.8064 80.3438 66.8839 77.4249 65.9722 76.8776C65.0599 76.3304 62.4146 72.8643 62.4146 72.8643L62.9619 61.7363L63.5091 60.1855L66.3367 57.4493L67.0666 54.6218C67.0666 54.6218 68.7083 54.3481 69.5292 54.0745C70.35 53.8009 70.35 53.6187 70.35 53.6187C70.35 53.6187 71.1709 52.4328 71.1709 51.8856C71.1709 51.3383 71.9918 48.1458 72.2654 47.1422C72.539 46.1391 74.1807 42.6725 74.4543 41.1221C74.5656 40.5069 74.5467 39.9173 74.2026 39.3798Z" fill="#F9BF9A"/>
<path d="M47.6815 50.8509C47.6815 50.8509 48.3746 42.4888 47.768 41.1892C47.768 41.1892 47.1183 48.5113 47.6815 50.8509Z" fill="#BF7D5D"/>
<path d="M24.9046 41.5323C25.1631 40.4617 26.1769 39.4066 27.1509 40.503C27.441 40.8301 27.6028 41.25 27.7273 41.6694C28.4475 44.0901 28.1272 46.7481 28.9889 49.1222C29.5896 50.778 30.723 52.1772 31.8364 53.5419C31.3494 51.3573 30.4644 49.2947 30.0392 47.0747C29.7097 45.3523 29.3087 43.6678 29.1357 41.9168C29.0536 41.0837 28.9996 40.2308 28.6745 39.4595C28.6225 39.3361 28.5622 39.2131 28.4728 39.1135C28.3931 39.0246 28.293 38.957 28.1938 38.8904C27.7428 38.5867 27.2631 38.2732 26.7203 38.2397C25.898 38.1886 25.1519 38.8268 24.8409 39.5898C24.5187 40.38 24.5138 41.2495 24.839 42.0329C24.8424 41.8638 24.8647 41.6961 24.9046 41.5323Z" fill="#BF7D5D"/>
<path d="M74.2021 41.5323C73.944 40.4617 72.9297 39.4066 71.9558 40.503C71.6652 40.8301 71.5038 41.25 71.3794 41.6694C70.6591 44.0901 70.9794 46.7481 70.1177 49.1222C69.517 50.778 68.3837 52.1772 67.2703 53.5419C67.7572 51.3573 68.6422 49.2947 69.0675 47.0747C69.397 45.3523 69.7979 43.6678 69.971 41.9168C70.0531 41.0837 70.107 40.2308 70.4322 39.4595C70.4842 39.3361 70.5444 39.2131 70.6339 39.1135C70.7136 39.0246 70.8137 38.957 70.9128 38.8904C71.3638 38.5867 71.8435 38.2732 72.3864 38.2397C73.2087 38.1886 73.9547 38.8268 74.2657 39.5898C74.588 40.38 74.5928 41.2495 74.2677 42.0329C74.2638 41.8638 74.2419 41.6961 74.2021 41.5323Z" fill="#BF7D5D"/>
<path d="M66.9509 35.0656L61.4693 37.0951L52.072 39.0614L52.3034 36.9507L62.6892 35.9899L66.9509 35.0656Z" fill="#BF7D5D"/>
<path d="M46.8817 37.8023L46.7884 36.9509L36.4026 35.99L32.4421 35.2178L37.6224 37.0952L44.7724 38.5911C45.4271 39.3765 47.1432 41.5338 47.1432 41.5338L47.6014 46.6091L48.0228 42.047C48.0228 42.047 47.4484 39.2044 46.8817 37.8023Z" fill="#BF7D5D"/>
<path d="M63.3516 60.7726C63.3516 60.7726 59.8854 79.0855 45.2121 77.0633C45.2121 77.0633 38.742 75.8502 36.3159 68.1671L35.738 60.8304C35.738 60.8304 41.2838 66.0296 42.0925 66.7227C42.9012 67.4157 46.7139 70.131 49.3135 70.3045C49.3135 70.3045 54.9171 69.6115 59.0762 64.6431L63.3516 60.7726Z" fill="#BF7D5D"/>
<path d="M49.7413 65.3031L48.7737 63.7435L49.9002 63.9457L50.55 63.7868L49.7413 65.3031Z" fill="#BF7D5D"/>
<path d="M52.4905 55.1856C52.4905 55.1856 51.4903 55.2881 51.2079 55.134L49.6819 55.3377L48.1558 55.134C47.8735 55.2881 46.8733 55.1856 46.8733 55.1856C48.5539 56.5779 49.5599 56.3976 49.6819 56.3685C49.8044 56.3972 50.8104 56.5779 52.4905 55.1856Z" fill="#BF7D5D"/>
<path d="M99.9704 100.894C99.9704 100.894 97.972 91.3716 93.3613 89.3786C93.3613 89.3786 84.3139 85.8259 82.313 85.3059C82.313 85.3059 79.4811 84.2279 77.3933 83.2282C76.3474 82.7272 75.7277 82.2266 75.3137 81.6968C74.9356 81.2133 73.0047 79.5866 73.0047 79.5866C73.0047 79.5866 60.4776 88.3385 49.3423 87.992C49.3423 87.992 38.0331 88.252 25.506 79.5001L23.1571 81.4067L23.5921 82.0132C23.5921 82.0132 17.6765 85.4794 11.8479 86.7789C11.8479 86.7789 2.97452 89.8116 1.8436 92.0647L-0.685059 100.988L99.9704 100.894Z" fill="#B85530"/>
<path d="M34.6817 98.9829C31.5188 98.8419 28.3345 98.3909 25.3957 97.2124C23.5547 96.4741 21.7492 95.3797 20.768 93.6558C20.1381 92.5497 19.8937 91.2584 19.8665 89.9856C19.7979 86.7818 21.1699 83.497 23.7365 81.5782C27.6672 84.7645 32.3397 86.898 37.0621 88.7152C40.1861 89.9175 43.4025 91.0062 46.7413 91.2482C50.3241 91.5077 53.9006 90.7816 57.3973 89.9583C60.5223 89.2225 63.6657 88.3915 66.4748 86.8377C68.2108 85.8779 69.7825 84.6614 71.3878 83.5048C72.1742 82.9381 72.9795 82.2844 73.8474 81.846C74.7164 81.4072 74.3607 82.0973 73.9884 82.6027C72.9809 83.9713 71.5127 85.1732 70.2447 86.2934C68.8937 87.4875 67.477 88.6068 66.0044 89.6473C60.2049 93.7457 53.5443 96.6233 46.5853 98.0361C42.6754 98.8308 38.6688 99.1608 34.6817 98.9829Z" fill="#9B3923"/>
<path d="M84.7207 86.6263C86.1427 88.1037 88.1227 88.8847 90.0507 89.5826C90.4166 89.7153 90.784 89.8465 91.1651 89.9253C92.4738 90.1965 93.8555 89.8349 95.1585 90.1342C95.3549 90.1794 95.5726 90.2606 95.6465 90.4482C93.6689 89.2172 91.5908 88.1485 89.4402 87.2532C88.3652 86.8056 87.2717 86.4018 86.1636 86.0426C85.1761 85.7223 83.928 85.1717 82.8977 85.161C83.6471 85.5289 84.1409 86.0242 84.7207 86.6263Z" fill="#9B3923"/>
<path d="M15.4238 86.6263C14.0018 88.1037 12.0218 88.8847 10.0939 89.5826C9.72789 89.7153 9.36048 89.8465 8.97945 89.9253C7.67066 90.1965 6.28896 89.8349 4.98599 90.1342C4.78965 90.1794 4.57192 90.2606 4.49805 90.4482C6.47558 89.2172 8.55372 88.1485 10.7043 87.2532C11.7793 86.8056 12.8728 86.4018 13.9809 86.0426C14.9684 85.7223 16.2165 85.1717 17.2468 85.161C16.4979 85.5289 16.0036 86.0242 15.4238 86.6263Z" fill="#9B3923"/>
<path d="M58.8731 90.0303C58.8731 90.0303 64.1302 88.1816 66.152 85.4668C66.152 85.4668 49.2255 94.1321 30.7974 84.3694L24.616 80.441L25.829 79.401C25.829 79.401 37.3827 88.2399 50.1494 88.0085C50.1494 88.0085 64.086 87.0511 73.0041 79.5867L75.7718 81.5112C75.7728 81.5107 68.5202 87.4885 58.8731 90.0303Z" fill="#02020C"/>
<path d="M47.6659 86.1626C48.3653 86.634 49.2371 86.844 50.0906 86.8289C50.944 86.808 51.8061 86.5621 52.4856 86.063C52.5555 86.0114 52.6542 86.0265 52.7057 86.0965C52.7572 86.1665 52.7422 86.2651 52.6722 86.3166C52.66 86.3259 52.645 86.3332 52.6314 86.338C51.7954 86.6398 50.9488 86.8143 50.0906 86.8289C49.2323 86.8493 48.3803 86.7103 47.5323 86.4435C47.4491 86.4182 47.4025 86.3303 47.4278 86.2471C47.453 86.164 47.541 86.1174 47.6246 86.1427C47.6387 86.147 47.6538 86.1543 47.6659 86.1626Z" fill="#02020C"/>
<path d="M57.8904 85.0944C58.3648 85.0327 58.8391 85.0025 59.3134 84.9729C59.7878 84.9466 60.2621 84.9321 60.7365 84.9262C61.6851 84.917 62.6338 84.9248 63.5825 84.9962C63.6685 85.0025 63.7331 85.0774 63.7263 85.1634C63.7205 85.2416 63.6583 85.3019 63.5825 85.3073C62.6338 85.3782 61.6851 85.3865 60.7365 85.3772C60.2621 85.3714 59.7878 85.3573 59.3134 85.3306C58.8391 85.3009 58.3648 85.2708 57.8904 85.2091C57.8588 85.2047 57.836 85.1755 57.8404 85.144C57.8438 85.1177 57.8652 85.0978 57.8904 85.0944Z" fill="#02020C"/>
<path d="M42.9075 85.2095C42.3884 85.2708 41.8689 85.3014 41.3498 85.331C40.8308 85.3573 40.3112 85.3718 39.7922 85.3777C38.7536 85.3869 37.7155 85.3791 36.6769 85.3077C36.5909 85.3019 36.5263 85.2275 36.5321 85.1415C36.5374 85.0627 36.6006 85.0015 36.6769 84.9967C37.7155 84.9257 38.7536 84.9174 39.7922 84.9267C40.3112 84.9325 40.8308 84.9466 41.3498 84.9733C41.8689 85.003 42.3884 85.0331 42.9075 85.0948C42.939 85.0987 42.9619 85.1274 42.958 85.1595C42.9546 85.1857 42.9332 85.2066 42.9075 85.2095Z" fill="#02020C"/>
<path d="M47.7618 61.1672L50.9665 60.6107L50.8382 60.651L51.8666 60.3458C51.922 60.3293 51.9798 60.3609 51.9963 60.4163C52.0085 60.4561 51.9949 60.4979 51.9652 60.5242L51.1614 61.2352C51.1327 61.2605 51.0972 61.2736 51.0618 61.2746L51.0326 61.2755L47.7818 61.3693C47.7259 61.3708 47.6787 61.3271 47.6773 61.2707C47.6763 61.2192 47.7127 61.1759 47.7618 61.1672Z" fill="#02020C"/>
<path d="M28.3729 39.3526C27.9068 39.163 27.4981 38.9356 27.0884 38.8136C26.6884 38.6872 26.2602 38.6741 25.8967 38.8034C25.5341 38.9273 25.2887 39.2189 25.1162 39.6199C24.9422 40.0091 24.8615 40.4446 24.8498 40.8859C24.8246 41.7743 25.0962 42.6646 25.4272 43.538L26.4731 46.1838C26.8152 47.0741 27.1394 47.9786 27.3814 48.9117C27.5029 49.3778 27.605 49.8506 27.6813 50.3279C27.7551 50.8042 27.8072 51.2732 27.8971 51.7251C27.9879 52.1752 28.1162 52.6126 28.3422 52.9868C28.5663 53.3605 28.8919 53.6589 29.2841 53.8704C30.0709 54.3039 31.0177 54.3734 31.9581 54.4283L31.9362 54.8224C30.9977 54.7767 29.9839 54.7296 29.0795 54.2499C28.6324 54.0186 28.2285 53.6614 27.9588 53.2215C27.6866 52.7832 27.5418 52.2957 27.4388 51.8194C27.3377 51.3412 27.2794 50.8664 27.2016 50.4061C27.1224 49.9474 27.0179 49.4925 26.8944 49.0419C26.6485 48.1399 26.32 47.2578 25.9701 46.3816L24.8887 43.7455C24.5403 42.8566 24.2229 41.8968 24.2365 40.8747C24.2438 40.3688 24.3293 39.8507 24.5369 39.3691C24.6379 39.1295 24.7701 38.8899 24.9606 38.6765C25.1507 38.4603 25.4068 38.294 25.6702 38.1949C26.2029 37.9981 26.7729 38.0243 27.2769 38.1735C27.7804 38.3203 28.2091 38.5555 28.6246 38.7154L28.3729 39.3526Z" fill="#02020C"/>
<path d="M25.8023 41.4968C25.5992 41.1425 25.4063 40.7158 25.5122 40.2657C25.5589 40.0475 25.6993 39.8332 25.8957 39.7102C26.0881 39.5848 26.3029 39.5178 26.5231 39.4847C26.9653 39.422 27.4139 39.5178 27.8124 39.6932C28.2129 39.8691 28.5677 40.117 28.9045 40.3654C28.9924 40.43 29.0109 40.5539 28.9463 40.6414C28.8816 40.7294 28.7582 40.7478 28.6702 40.6832C28.6668 40.6808 28.6634 40.6779 28.6605 40.6754C28.3456 40.4115 28.0277 40.1612 27.6764 39.98C27.3284 39.7996 26.9376 39.6927 26.5508 39.7233C26.1693 39.7525 25.7678 39.9221 25.6711 40.307C25.555 40.6813 25.6979 41.0919 25.8796 41.4555C25.8903 41.4768 25.8816 41.5031 25.8602 41.5138C25.8388 41.5249 25.8135 41.5167 25.8023 41.4968Z" fill="#02020C"/>
<path d="M29.6345 43.9982C29.2093 44.3432 28.9478 44.8725 28.9065 45.41C28.8574 45.9534 29.0756 46.4743 29.3915 46.9244C29.704 47.3812 30.0982 47.7948 30.4238 48.2847C30.748 48.776 30.9812 49.3286 31.1076 49.9075C31.1309 50.0139 31.0634 50.1194 30.9569 50.1427C30.8505 50.166 30.745 50.0984 30.7217 49.992C30.7212 49.9901 30.7207 49.9867 30.7203 49.9847C30.624 49.4496 30.4272 48.9306 30.1424 48.4631C29.8566 47.9941 29.4776 47.5659 29.1646 47.0731C28.8492 46.5915 28.6193 45.9898 28.6975 45.3896C28.7656 44.7981 29.0708 44.2383 29.5432 43.8815C29.5757 43.8567 29.6219 43.8636 29.6467 43.8961C29.671 43.9277 29.6651 43.9729 29.6345 43.9982Z" fill="#02020C"/>
<path d="M35.7533 60.3438C36.3574 61.8781 36.5377 63.5266 36.6825 65.1212C36.8162 66.7211 36.9066 68.3254 36.9425 69.9331C36.9795 71.5403 36.9994 73.1504 36.9148 74.7581C36.8502 76.3658 36.7039 77.9715 36.4662 79.5612C36.458 79.6157 36.4069 79.6536 36.3525 79.6453C36.302 79.6375 36.2655 79.5923 36.2675 79.5423C36.3287 77.9419 36.3564 76.3449 36.3384 74.7489C36.3093 73.1528 36.2709 71.5578 36.1839 69.9627L35.8991 65.1771C35.816 63.5835 35.7076 62.0089 35.3164 60.4862C35.2843 60.3633 35.3577 60.2374 35.4806 60.2053C35.5944 60.1757 35.711 60.2374 35.7533 60.3438Z" fill="#02020C"/>
<path d="M27.2915 80.0258C28.2256 79.6273 29.1325 79.1846 29.9937 78.6675C30.8587 78.1572 31.6835 77.5832 32.4538 76.9422C33.2387 76.3181 33.9507 75.6086 34.6267 74.8665C35.2984 74.1195 35.9093 73.3166 36.475 72.4749L36.7773 72.6469C36.3311 73.5839 35.7591 74.4611 35.1064 75.2742C34.4576 76.0912 33.7038 76.8212 32.9067 77.4948C32.0951 78.1513 31.2228 78.734 30.2994 79.2181C29.3726 79.6949 28.3996 80.0832 27.3916 80.3286L27.2915 80.0258Z" fill="#02020C"/>
<path d="M45.1082 70.1542C45.4421 71.2229 45.8601 72.262 46.3835 73.2476C46.9001 74.2366 47.5202 75.1678 48.2045 76.0528C48.2405 76.0995 48.2322 76.166 48.1856 76.202C48.1414 76.236 48.0787 76.2297 48.0417 76.1894C47.2763 75.35 46.6372 74.3975 46.1099 73.3905C45.5894 72.3796 45.1792 71.3099 44.925 70.2038C44.9133 70.1528 44.9454 70.1017 44.9964 70.0901C45.045 70.0789 45.0936 70.1076 45.1082 70.1542Z" fill="#02020C"/>
<path d="M41.3428 41.0132C40.7805 40.8198 40.0855 40.517 39.4829 40.4548C38.6406 41.0341 38.0671 42.1796 38.0671 43.4991C38.0671 45.4028 39.2603 46.9463 40.7324 46.9463C42.2045 46.9463 43.3976 45.4028 43.3976 43.4991C43.3976 42.8027 43.2192 42.1067 42.9446 41.5649C42.4052 41.3637 41.8876 41.2008 41.3428 41.0132Z" fill="#02020C"/>
<path d="M35.9885 40.0704C35.9934 40.067 36.0648 40.0607 36.1095 40.0549L36.2597 40.0422L36.5581 40.0272C36.7559 40.0243 36.9537 40.0252 37.1501 40.0359C37.5432 40.052 37.9325 40.0957 38.3194 40.1506C39.0931 40.2624 39.8522 40.4417 40.5987 40.6565C41.3476 40.8646 42.0776 41.1309 42.8018 41.4055L43.8753 41.8497L44.9314 42.3323C44.945 42.3386 44.9513 42.3546 44.945 42.3682C44.9387 42.3818 44.9222 42.3872 44.9091 42.3818L43.8394 41.9367L42.7551 41.5309C42.0246 41.283 41.2913 41.0434 40.5433 40.8636C39.7978 40.6765 39.0426 40.5253 38.282 40.4427C37.9019 40.4024 37.5209 40.3727 37.1408 40.3703C36.9508 40.3669 36.7618 40.3722 36.5732 40.3815L36.2932 40.4053L35.989 40.4451C35.9006 40.4568 35.8194 40.3946 35.8077 40.3061C35.8 40.2459 35.8267 40.1885 35.8724 40.155L35.9885 40.0704Z" fill="#02020C"/>
<path d="M37.2039 46.104C37.6495 46.3208 38.1671 46.4744 38.6745 46.5871C39.1873 46.6994 39.7107 46.7664 40.2375 46.8029C40.7648 46.8286 41.295 46.8311 41.8233 46.7893C42.3526 46.7543 42.8784 46.6756 43.4023 46.5832C43.4193 46.5798 43.4359 46.5905 43.4398 46.6075C43.4432 46.624 43.432 46.6406 43.4159 46.6445C42.8949 46.763 42.3696 46.868 41.8369 46.9293C41.3052 46.9978 40.7677 47.0216 40.2292 47.0216C39.6912 47.0109 39.1518 46.9691 38.6177 46.8787C38.0811 46.7844 37.5601 46.6634 37.0348 46.4389C36.9395 46.3981 36.8953 46.2877 36.9361 46.1925C36.9769 46.0972 37.0872 46.053 37.1825 46.0938C37.1854 46.0948 37.1878 46.0962 37.1903 46.0972L37.2039 46.104Z" fill="#02020C"/>
<path d="M37.9748 38.4559C39.0207 38.3645 40.0753 38.4972 41.0813 38.7733C42.0893 39.0498 43.0511 39.4683 43.9716 39.9509C44.0231 39.9781 44.043 40.0417 44.0163 40.0932C43.989 40.1448 43.9254 40.1647 43.8739 40.1375C42.9646 39.6558 42.0173 39.2403 41.0283 38.9652C40.0418 38.6907 39.0105 38.5575 37.9908 38.6425C37.9393 38.6469 37.8936 38.6085 37.8897 38.557C37.8854 38.506 37.9233 38.4603 37.9748 38.4559Z" fill="#02020C"/>
<path d="M47.8363 54.7009C48.1138 54.8467 48.4015 54.9658 48.6916 55.0489C48.9823 55.1315 49.2773 55.1826 49.5693 55.1753C49.8609 55.1864 50.1496 55.1354 50.4247 55.0426C50.7056 54.9634 50.9617 54.8132 51.229 54.6713L51.2422 54.6645C51.317 54.6246 51.4098 54.6533 51.4497 54.7277C51.4842 54.7923 51.4672 54.871 51.4137 54.9167C51.1629 55.1306 50.8801 55.3211 50.5564 55.429C50.2395 55.5524 49.8911 55.5869 49.5543 55.5704C49.217 55.5403 48.888 55.4571 48.5905 55.3138C48.2946 55.1685 48.0214 54.9838 47.8023 54.7422C47.792 54.7311 47.793 54.714 47.8042 54.7043C47.8125 54.6961 47.8265 54.6956 47.8363 54.7009Z" fill="#02020C"/>
<path d="M46.6402 52.6583C46.4652 52.9829 46.3131 53.3187 46.1853 53.6623C46.1207 53.8422 46.0492 53.9977 46.1168 54.1304C46.178 54.2689 46.3054 54.419 46.4171 54.5532C46.6485 54.821 46.9347 55.0421 47.2526 55.0931C47.5719 55.1476 47.913 55.0499 48.2625 54.942C48.3665 54.9094 48.4773 54.9677 48.5098 55.0717C48.5424 55.1757 48.4841 55.2866 48.3801 55.3191C48.3752 55.3206 48.3699 55.322 48.365 55.323C48.0063 55.4042 47.6025 55.5019 47.1865 55.4032C46.7685 55.3011 46.4589 55.0061 46.231 54.7038C46.1187 54.5449 46.0055 54.4045 45.9277 54.1984C45.8908 54.0963 45.8913 53.9661 45.9253 53.8679C45.9574 53.7673 45.9977 53.6876 46.0356 53.6011C46.1902 53.2599 46.368 52.9309 46.5673 52.616C46.5799 52.5961 46.6057 52.5902 46.6256 52.6029C46.6446 52.6145 46.6509 52.6388 46.6402 52.6583Z" fill="#02020C"/>
<path d="M48.0501 42.0974C48.1356 42.8342 48.1725 43.5724 48.2012 44.3112C48.2221 45.0499 48.225 45.7896 48.2109 46.5293C48.1808 47.2685 48.1618 48.0087 48.086 48.7464C48.0151 49.4837 47.9256 50.2219 47.7531 50.9456C47.7468 50.9723 47.7196 50.9893 47.6928 50.983C47.6685 50.9771 47.6525 50.9543 47.6545 50.93C47.7094 50.1952 47.7395 49.4613 47.7648 48.7265C47.7847 47.9916 47.8158 47.2568 47.8202 46.521L47.8727 44.3126C47.8965 43.5758 47.9174 42.8386 47.964 42.1004C47.9655 42.0765 47.9859 42.0581 48.0097 42.0595C48.0306 42.0605 48.0476 42.077 48.0501 42.0974Z" fill="#02020C"/>
<path d="M27.273 42.1179C27.2419 41.9789 27.2016 41.8171 27.273 41.6562C27.3459 41.4973 27.5038 41.4079 27.6535 41.3641C27.9597 41.2796 28.2892 41.3262 28.573 41.4696C28.8564 41.6081 29.096 41.8739 29.2126 42.168C29.3317 42.4571 29.4138 42.7235 29.5149 43C29.5523 43.1025 29.4999 43.2163 29.3968 43.2537C29.2943 43.2911 29.181 43.2386 29.1431 43.1361C29.1412 43.1303 29.1392 43.1249 29.1378 43.1191L29.1368 43.1147C29.0634 42.8372 28.9978 42.5398 28.9181 42.2827C28.8399 42.027 28.6839 41.8205 28.4569 41.6771C28.2348 41.5367 27.9549 41.471 27.6924 41.5187C27.5641 41.5439 27.4402 41.6042 27.3799 41.7102C27.3172 41.8161 27.3313 41.9624 27.3522 42.1033C27.3556 42.1252 27.3406 42.1456 27.3187 42.149C27.2973 42.1519 27.2774 42.1383 27.273 42.1179Z" fill="#02020C"/>
<path d="M49.492 14.1229C49.4584 14.0908 49.4332 14.0301 49.4342 13.9824L49.6315 14.1773C49.5518 14.1788 49.4721 14.1788 49.3924 14.1764L49.5887 13.9805V13.9839L49.5872 14.1793L49.3928 14.1798C46.142 14.1895 42.8697 14.6065 39.8089 15.6917C38.2921 16.2598 36.8317 16.9791 35.503 17.9011C34.1864 18.8376 33.0117 19.9661 32.0339 21.2467C30.0641 23.8108 28.9449 26.946 28.4701 30.1361C28.2441 31.737 28.1527 33.3597 28.2193 34.9762C28.2518 35.78 28.315 36.5999 28.4346 37.3765L28.9755 39.7623C29.7094 42.949 30.4111 46.1425 31.1129 49.336L32.1685 54.126C32.3469 54.9158 32.5155 55.742 32.7012 56.5021C32.9145 57.2462 33.3228 57.9081 33.8962 58.4563C36.1882 60.7852 38.5011 63.0976 40.8971 65.3133C41.4953 65.8683 42.1058 66.4082 42.7239 66.9365C43.3489 67.4604 43.973 67.9659 44.667 68.3722C46.055 69.1881 47.5903 69.7616 49.1703 70.0746L49.1323 70.0712L49.89 70.0717L49.8521 70.0751C51.4326 69.7646 52.9693 69.1935 54.3598 68.3794C55.0523 67.9702 55.6788 67.4667 56.3038 66.9428C56.9224 66.4145 57.5329 65.8751 58.1316 65.3201C60.5281 63.1044 62.8477 60.7983 65.1281 58.4578C65.6991 57.9066 66.1035 57.2423 66.3129 56.4987C66.4947 55.7386 66.6604 54.9114 66.8349 54.1207L67.8691 49.3263L69.9419 39.74L70.4624 37.3532C70.5751 36.5892 70.634 35.7679 70.6612 34.9699C70.7175 33.3622 70.6169 31.7487 70.3827 30.1604C69.8831 26.9975 68.7658 23.9041 66.8271 21.3701C65.8571 20.1109 64.7169 18.979 63.4188 18.0439C62.111 17.1225 60.671 16.3945 59.1707 15.8088C58.4077 15.5493 57.65 15.2684 56.8593 15.0915C56.0817 14.864 55.2807 14.7382 54.4822 14.5972C54.0847 14.5151 53.6808 14.4752 53.277 14.4334L52.0658 14.3017C51.2231 14.2468 50.3289 14.1963 49.492 14.1229ZM49.7714 13.8439C50.5685 13.8371 51.3106 13.8143 52.0989 13.8566L53.3294 13.964C53.7401 13.998 54.1508 14.0301 54.5571 14.1044L55.7803 14.2949C56.19 14.3494 56.5876 14.4689 56.9929 14.5511C57.8065 14.7076 58.5933 14.971 59.3865 15.2145C60.9504 15.768 62.4696 16.479 63.8625 17.4112C65.2408 18.3594 66.4966 19.5049 67.524 20.835C68.5578 22.1594 69.384 23.6393 70.0056 25.1935C70.6233 26.7506 71.0296 28.3816 71.2784 30.0277C71.5122 31.6767 71.606 33.3422 71.5384 35.0034C71.5039 35.8393 71.4441 36.6524 71.3129 37.5058L70.7642 39.9076L68.5442 49.4731L67.4322 54.2548C67.2407 55.0587 67.075 55.8338 66.8626 56.6605C66.6196 57.4916 66.1239 58.259 65.5076 58.833C63.1845 61.14 60.8571 63.4427 58.4266 65.6442C57.8206 66.1963 57.2009 66.7348 56.5715 67.2631C55.9402 67.7841 55.2822 68.3041 54.5614 68.7216C53.1297 69.5624 51.5575 70.1499 49.9299 70.4726L49.9114 70.4761H49.8915L49.1338 70.4765H49.1144L49.0959 70.4726C47.4678 70.1524 45.8941 69.5677 44.4599 68.7284C43.7402 68.308 43.0802 67.7904 42.4489 67.2689C41.819 66.7407 41.1989 66.2027 40.5928 65.6506C38.1624 63.449 35.8281 61.1531 33.5162 58.8344C32.9024 58.258 32.4101 57.4882 32.1709 56.6576C31.962 55.8309 31.8001 55.0543 31.612 54.25L30.5215 49.4638C29.7925 46.2737 29.0635 43.0827 28.3665 39.8858L27.8383 37.483C27.7138 36.6422 27.6584 35.8277 27.6293 34.9976C27.5719 33.3447 27.675 31.6889 27.917 30.0525C28.4215 26.7919 29.6107 23.5805 31.6631 20.959C32.6827 19.6507 33.9035 18.5013 35.2634 17.5545C36.6358 16.6229 38.1346 15.9031 39.6816 15.3321C42.8071 14.2619 46.1089 13.8196 49.3924 13.7861L49.197 13.982V13.9785V13.7783L49.3938 13.7827C49.4735 13.7841 49.5532 13.7842 49.6329 13.7817L49.8302 13.9766C49.8302 13.9324 49.805 13.8741 49.7714 13.8439Z" fill="#02020C"/>
<path d="M70.4191 38.7699C70.7957 38.6381 71.2171 38.3572 71.7181 38.1881C72.2406 38.0175 72.7966 37.9995 73.3351 38.1881C73.6004 38.2839 73.8565 38.4481 74.0505 38.6624C74.2434 38.8748 74.3785 39.1144 74.4801 39.354C74.69 39.8357 74.778 40.3537 74.7868 40.8601C74.8028 41.8827 74.4874 42.8445 74.1389 43.7348L73.0566 46.3733C72.7062 47.2506 72.3772 48.1331 72.1308 49.0356C72.0068 49.4866 71.9023 49.942 71.8226 50.4008C71.7444 50.8615 71.6861 51.3368 71.5855 51.8151C71.4824 52.2913 71.3386 52.7798 71.0664 53.2186C70.7972 53.6589 70.3933 54.0171 69.9462 54.249C69.0413 54.7296 68.0265 54.7768 67.0871 54.8224L67.0652 54.4283C68.0066 54.3734 68.9543 54.3039 69.7411 53.8694C70.1333 53.6575 70.4589 53.3586 70.683 52.9839C70.909 52.6097 71.0368 52.1713 71.1272 51.7208C71.2166 51.2683 71.2686 50.7988 71.343 50.3221C71.4193 49.8438 71.5218 49.3715 71.6438 48.9049C71.8863 47.9708 72.211 47.0659 72.5536 46.175L73.6004 43.5268C73.9314 42.653 74.2006 41.7617 74.1734 40.8728C74.1598 40.4315 74.0777 39.996 73.9017 39.6072C73.7273 39.2073 73.4804 38.9186 73.1144 38.7985C72.7543 38.6727 72.3077 38.6872 71.9334 38.8194C71.5315 38.9555 71.1578 39.2204 70.6417 39.4182L70.4191 38.7699Z" fill="#02020C"/>
<path d="M73.1446 41.4561C73.3264 41.0925 73.4698 40.6819 73.3536 40.3076C73.2569 39.9227 72.8555 39.7536 72.4739 39.724C72.0871 39.6933 71.6963 39.8003 71.3484 39.9806C70.997 40.1618 70.6791 40.4121 70.3642 40.676C70.2806 40.746 70.1562 40.7353 70.0862 40.6517C70.0162 40.5681 70.0269 40.4437 70.1105 40.3737C70.1134 40.3713 70.1168 40.3684 70.1202 40.366C70.4575 40.1176 70.8118 39.8698 71.2123 39.6938C71.6108 39.5179 72.0594 39.4221 72.5016 39.4853C72.7218 39.5184 72.9371 39.5854 73.1291 39.7108C73.3254 39.8338 73.4654 40.0481 73.5125 40.2663C73.6185 40.7164 73.4255 41.1431 73.2224 41.4974C73.2107 41.5183 73.184 41.526 73.1631 41.5144C73.1422 41.5027 73.1349 41.477 73.1446 41.4561Z" fill="#02020C"/>
<path d="M69.4807 43.8816C69.9531 44.2384 70.2583 44.7982 70.3263 45.3897C70.4046 45.9899 70.1752 46.5916 69.8593 47.0732C69.5468 47.5655 69.1677 47.9942 68.8815 48.4632C68.5967 48.9307 68.3998 49.4497 68.3036 49.9848C68.2842 50.0922 68.1816 50.1637 68.0742 50.1442C67.9668 50.1248 67.8954 50.0223 67.9148 49.9149C67.9153 49.9129 67.9158 49.9095 67.9163 49.9076C68.0421 49.3287 68.2759 48.7757 68.6001 48.2848C68.9257 47.7949 69.3198 47.3813 69.6318 46.9245C69.9477 46.4745 70.166 45.9535 70.1169 45.4101C70.0756 44.8726 69.8141 44.3434 69.3888 43.9983C69.3573 43.9725 69.3519 43.9264 69.3777 43.8943C69.4039 43.8632 69.4491 43.8578 69.4807 43.8816Z" fill="#02020C"/>
<path d="M63.6779 60.4767C63.2969 62.008 63.2065 63.5836 63.1429 65.1787C63.0836 66.7772 62.9183 68.3678 62.8221 69.9624C62.6112 73.1501 62.5626 76.348 62.7575 79.5424C62.7609 79.5974 62.7191 79.645 62.6642 79.6484C62.6117 79.6518 62.566 79.6129 62.5587 79.5619C62.1441 76.3747 62.0591 73.1481 62.1009 69.9342C62.1295 68.327 62.1597 66.7184 62.3249 65.1204C62.4887 63.5268 62.687 61.8792 63.3013 60.3537C63.3426 60.2516 63.4583 60.2025 63.5603 60.2434C63.6527 60.2808 63.7018 60.3819 63.6779 60.4767Z" fill="#02020C"/>
<path d="M71.6327 80.3278C70.6243 80.0823 69.6518 79.694 68.725 79.2172C67.8016 78.7337 66.9287 78.151 66.1176 77.4939C65.321 76.8203 64.5667 76.0903 63.9179 75.2734C63.2652 74.4608 62.6932 73.5831 62.2471 72.646L62.5494 72.474C63.1151 73.3158 63.726 74.1186 64.3976 74.8656C65.0732 75.6082 65.7856 76.3173 66.5705 76.9413C67.3408 77.5823 68.1661 78.1563 69.0307 78.6666C69.8918 79.1837 70.7987 79.6265 71.7328 80.025L71.6327 80.3278Z" fill="#02020C"/>
<path d="M58.0966 41.0132C58.6589 40.8198 59.3538 40.517 59.9565 40.4548C60.7987 41.0341 61.3722 42.1796 61.3722 43.4991C61.3722 45.4028 60.1791 46.9463 58.707 46.9463C57.2349 46.9463 56.0417 45.4028 56.0417 43.4991C56.0417 42.8027 56.2201 42.1067 56.4947 41.5649C57.0342 41.3637 57.5522 41.2008 58.0966 41.0132Z" fill="#02020C"/>
<path d="M63.4513 40.4452L63.1471 40.4053L62.8671 40.3815C62.6786 40.3723 62.4895 40.367 62.2995 40.3704C61.9194 40.3728 61.5384 40.4024 61.1584 40.4428C60.3978 40.5259 59.6425 40.6765 58.897 40.8636C58.1486 41.0439 57.4152 41.2831 56.6852 41.5309L55.601 41.9367L54.5313 42.3819C54.5177 42.3882 54.5011 42.3819 54.4953 42.3683C54.489 42.3547 54.4958 42.3387 54.5089 42.3323L55.565 41.8497L56.6386 41.4055C57.3632 41.1314 58.0927 40.8646 58.8416 40.6566C59.5881 40.4418 60.3472 40.262 61.1209 40.1507C61.5078 40.0958 61.8971 40.052 62.2903 40.036C62.4866 40.0258 62.6839 40.0248 62.8822 40.0272L63.1806 40.0423L63.3308 40.0549C63.376 40.0608 63.4474 40.0671 63.4518 40.0705L63.568 40.1551C63.6399 40.2075 63.6559 40.3086 63.6034 40.3806C63.5665 40.4296 63.5077 40.4525 63.4513 40.4452Z" fill="#02020C"/>
<path d="M62.3964 46.3349C61.8783 46.5765 61.3617 46.7145 60.8285 46.8263C60.2973 46.9337 59.7598 46.9935 59.2223 47.0212C58.6843 47.0387 58.1463 47.0323 57.6127 46.9813C57.0781 46.9376 56.5498 46.8491 56.0254 46.748C56.0084 46.7446 55.9972 46.7281 56.0006 46.7111C56.004 46.6946 56.0205 46.6839 56.0371 46.6858C56.5639 46.7611 57.0917 46.8229 57.6219 46.8404C58.1516 46.8651 58.6814 46.8452 59.2077 46.8025C59.7331 46.749 60.2541 46.6654 60.7629 46.5361C61.2664 46.4069 61.7787 46.2368 62.217 46.0054L62.2302 45.9986C62.322 45.95 62.4352 45.9855 62.4838 46.0769C62.5324 46.1682 62.497 46.282 62.4056 46.3301C62.4022 46.332 62.3993 46.3335 62.3964 46.3349Z" fill="#02020C"/>
<path d="M61.4486 38.643C60.429 38.558 59.3977 38.6911 58.4111 38.9657C57.4221 39.2408 56.4759 39.6568 55.5661 40.138C55.5145 40.1652 55.4509 40.1457 55.4232 40.0942C55.396 40.0427 55.4154 39.979 55.4669 39.9518H55.4674C56.3879 39.4692 57.3492 39.0508 58.3577 38.7743C59.3637 38.4982 60.4183 38.3655 61.4642 38.4569C61.5157 38.4613 61.5541 38.507 61.5492 38.5585C61.5453 38.6095 61.5001 38.6474 61.4486 38.643Z" fill="#02020C"/>
<path d="M52.4566 52.6155C52.6559 52.9304 52.8338 53.26 52.9883 53.6006C53.0262 53.6871 53.0661 53.7673 53.0986 53.8675C53.1327 53.9656 53.1331 54.0964 53.0962 54.1979C53.0184 54.404 52.9052 54.5449 52.7929 54.7034C52.565 55.0061 52.2554 55.3012 51.837 55.4027C51.421 55.5014 51.0176 55.4037 50.6589 55.3225C50.5525 55.2982 50.4859 55.1928 50.5097 55.0863C50.534 54.9799 50.6395 54.9133 50.7459 54.9376C50.7508 54.9386 50.7566 54.9401 50.761 54.9415C51.1109 55.0494 51.4521 55.1471 51.7709 55.0927C52.0887 55.0416 52.375 54.8205 52.6063 54.5527C52.7181 54.4191 52.8454 54.2689 52.9067 54.1299C52.9742 53.9972 52.9028 53.8417 52.8381 53.6619C52.7103 53.3178 52.5582 52.982 52.3832 52.6578C52.3721 52.6374 52.3798 52.6116 52.4003 52.6005C52.4207 52.5902 52.445 52.5971 52.4566 52.6155Z" fill="#02020C"/>
<path d="M71.6726 42.1033C71.6935 41.9619 71.7072 41.8161 71.6449 41.7102C71.5847 41.6042 71.4608 41.5435 71.3324 41.5187C71.0705 41.471 70.7901 41.5366 70.568 41.6771C70.341 41.8205 70.185 42.027 70.1068 42.2827C70.0271 42.5398 69.9614 42.8367 69.8881 43.1147L69.8871 43.1186C69.8594 43.224 69.751 43.2867 69.6455 43.259C69.5401 43.2313 69.4774 43.123 69.5051 43.0175C69.5065 43.0117 69.5085 43.0058 69.5104 43.0005C69.6115 42.7239 69.6937 42.4576 69.8127 42.1684C69.9294 41.8749 70.169 41.6086 70.4523 41.4701C70.7356 41.3262 71.0656 41.28 71.3718 41.3646C71.521 41.4083 71.6795 41.4978 71.7524 41.6567C71.8238 41.8176 71.7835 41.9794 71.7524 42.1184C71.7475 42.1398 71.7261 42.1534 71.7047 42.1485C71.6829 42.1437 71.6697 42.1237 71.6726 42.1033Z" fill="#02020C"/>
<path d="M67.0239 35.3776C66.1039 35.5176 65.1829 35.6493 64.261 35.7713L61.4942 36.1226L61.5268 36.1187L57.2179 36.9202C55.7808 37.1826 54.3422 37.4353 52.9027 37.6798L53.3945 37.3269L52.5358 37.9442C52.4366 38.0156 52.2986 37.9928 52.2276 37.8936C52.199 37.8533 52.1854 37.8071 52.1863 37.7614L52.2029 36.7039C52.2053 36.5387 52.3287 36.4035 52.4872 36.3807L52.6947 36.3511C54.1401 36.1431 55.5869 35.9428 57.0356 35.7528L61.3829 35.1963L61.4101 35.1929L61.4155 35.1924L64.2012 35.0675C65.1305 35.0301 66.0602 35.0034 66.9909 34.9844C67.1002 34.982 67.1906 35.069 67.1925 35.1783C67.194 35.2785 67.1206 35.363 67.0239 35.3776Z" fill="#02020C"/>
<path d="M32.4572 34.9844C33.3879 35.0034 34.3176 35.0301 35.2468 35.0675L38.0326 35.1924L38.0379 35.1929L38.0651 35.1963L42.4124 35.7528C43.8607 35.9428 45.3075 36.1426 46.7534 36.351L46.9609 36.3807C47.1247 36.404 47.2427 36.5435 47.2452 36.7039L47.2617 37.7614C47.2637 37.8834 47.1664 37.984 47.0445 37.986C46.9949 37.9869 46.9492 37.9714 46.9118 37.9446L46.053 37.3274L46.5449 37.6803C45.1048 37.4358 43.6663 37.1831 42.2297 36.9206L37.9208 36.1192L37.9533 36.1231L35.187 35.7717C34.2651 35.6502 33.3441 35.518 32.4241 35.3781C32.3162 35.3616 32.2419 35.2609 32.2584 35.1526C32.2725 35.0529 32.3595 34.9825 32.4572 34.9844Z" fill="#02020C"/>
<path d="M54.1791 70.3584C53.9254 71.4645 53.5147 72.5342 52.9942 73.5451C52.4669 74.5521 51.8278 75.5051 51.0623 76.344C51.0225 76.3872 50.9554 76.3906 50.9117 76.3508C50.8704 76.3134 50.866 76.2502 50.8995 76.2069C51.5838 75.3219 52.204 74.3908 52.7206 73.4017C53.2435 72.4161 53.6615 71.3771 53.9953 70.3084C54.0109 70.2583 54.0644 70.2306 54.1144 70.2461C54.1625 70.2617 54.1898 70.3108 54.1791 70.3584Z" fill="#02020C"/>
<path d="M49.7335 88.3661C48.6065 88.2966 47.5737 88.1499 46.5006 87.9905C45.4382 87.8257 44.3817 87.6303 43.3304 87.4073C41.2285 86.9621 39.1504 86.3993 37.1126 85.7106C35.0757 85.0205 33.0783 84.2016 31.1586 83.2199C29.2379 82.2411 27.4008 81.0883 25.7003 79.7494L26.1411 79.7537L23.5619 81.6073L23.5784 81.1908C25.3761 82.7052 27.3731 84.0291 29.425 85.2096C31.4822 86.3915 33.6347 87.4039 35.846 88.2558C36.9546 88.6743 38.0792 89.049 39.2155 89.3833C40.3561 89.7012 41.5045 89.9918 42.6675 90.2129C44.9901 90.6688 47.3545 90.8933 49.7175 90.9084L49.7145 91.6267C47.304 91.5966 44.8963 91.3521 42.5368 90.8739C41.3553 90.6411 40.1899 90.3388 39.0332 90.0088C37.8814 89.6618 36.7422 89.275 35.6201 88.8429C33.3825 87.9647 31.2086 86.9256 29.1329 85.716C27.0572 84.5024 25.0636 83.1674 23.2183 81.5937L22.967 81.3794L23.2343 81.1767L25.7061 79.1817L25.9107 79.0165L26.1469 79.1861C27.8037 80.4905 29.6 81.619 31.4852 82.5793C33.3689 83.5426 35.3343 84.3489 37.3424 85.0293C39.3511 85.7082 41.403 86.2642 43.4796 86.704C44.5177 86.9247 45.5617 87.1176 46.61 87.2799C47.6481 87.4359 48.7338 87.5837 49.7388 87.6469L49.7335 88.3661Z" fill="#02020C"/>
<path d="M23.9137 81.8945C22.7823 82.7266 21.5654 83.4342 20.3042 84.0451C19.0406 84.6516 17.7318 85.1454 16.4186 85.609C13.7903 86.528 11.1256 87.2979 8.59597 88.3583C7.32751 88.8788 6.11008 89.5053 4.96944 90.2401C3.81325 90.9647 2.74453 91.7934 2.15161 92.9462C1.84154 93.5235 1.60924 94.1636 1.36186 94.8134C1.12178 95.4612 0.870515 96.1027 0.644039 96.7511C0.194003 98.0472 -0.18702 99.3614 -0.39357 100.711L-0.86499 100.66C-0.768762 99.2501 -0.442655 97.8664 -0.0261534 96.5304C0.181369 95.8617 0.402497 95.1988 0.644525 94.547C0.883151 93.8992 1.11546 93.228 1.4542 92.5778C1.78468 91.9236 2.26728 91.3161 2.81306 90.8389C3.35641 90.3485 3.94738 89.9563 4.54468 89.5787C5.73878 88.8205 7.00384 88.1824 8.30389 87.6595C10.8967 86.5815 13.5896 85.8632 16.2106 84.9986C17.5184 84.5593 18.817 84.0985 20.0748 83.5479C21.3272 82.9871 22.5349 82.3324 23.6644 81.5543L23.9137 81.8945Z" fill="#02020C"/>
<path d="M49.6201 87.6477C50.6086 87.6156 51.6793 87.4757 52.7033 87.3255C53.7375 87.1705 54.7673 86.9814 55.7899 86.7608C57.8364 86.3224 59.8553 85.7548 61.8308 85.0685C63.804 84.3765 65.7334 83.558 67.5802 82.5846C69.4285 81.6145 71.1888 80.4812 72.8203 79.1879L73.0565 79.0168L73.2621 79.1831L75.7338 81.1781L76.0011 81.3807L75.7499 81.5951C73.9045 83.1687 71.911 84.5043 69.8353 85.7173C67.7596 86.927 65.5857 87.9661 63.3481 88.8443C62.226 89.2758 61.0873 89.6632 59.9354 90.0102C58.7788 90.3402 57.6133 90.6429 56.4319 90.8753C54.0723 91.3535 51.6647 91.5979 49.2541 91.6281L49.2512 90.9098C51.6142 90.8947 53.9785 90.6702 56.3011 90.2143C57.4636 89.9932 58.6126 89.702 59.7532 89.3847C60.8895 89.0498 62.0136 88.6756 63.1226 88.2572C65.3339 87.4047 67.4864 86.3929 69.5437 85.2109C71.5951 84.0304 73.592 82.7066 75.3898 81.1922L75.4063 81.6087L72.8271 79.7551L73.2689 79.7497C71.597 81.0751 69.7983 82.2327 67.9151 83.2212C66.0328 84.2132 64.0713 85.0452 62.068 85.7479C60.0623 86.4444 58.0157 87.0198 55.941 87.464C54.9039 87.6876 53.86 87.8795 52.8097 88.037C51.7497 88.1896 50.7262 88.3315 49.6079 88.367L49.6201 87.6477Z" fill="#02020C"/>
<path d="M75.3033 81.5538C76.423 82.3241 77.6191 82.9749 78.8593 83.5328C80.1069 84.0776 81.3914 84.5393 82.6876 84.9753C85.2857 85.8321 87.9519 86.5485 90.5272 87.6011C91.8185 88.1139 93.0714 88.7447 94.266 89.4766L95.1491 90.0496C95.4368 90.2523 95.7216 90.4661 95.9957 90.6994C96.5449 91.1572 97.0459 91.7307 97.4017 92.3737C97.7599 93.0123 98.0038 93.6761 98.2396 94.3264C98.4782 94.9815 98.6736 95.6469 98.8689 96.3069L100.05 100.259L99.5974 100.398C99.111 99.1281 98.6182 97.828 98.1958 96.5192C97.9781 95.8685 97.7521 95.225 97.5208 94.5888C97.2817 93.9512 97.0391 93.3228 96.7169 92.7649C96.0876 91.6583 94.9926 90.8554 93.8486 90.1419C92.706 89.4314 91.4997 88.8113 90.239 88.301C87.725 87.2648 85.0855 86.4965 82.4796 85.5852C81.1776 85.125 79.8824 84.6302 78.6295 84.03C77.3804 83.422 76.1756 82.7183 75.054 81.8945L75.3033 81.5538Z" fill="#02020C"/>
<path d="M43.2245 44.1786C43.7868 44.1786 44.2426 43.7227 44.2426 43.1604C44.2426 42.5981 43.7868 42.1422 43.2245 42.1422C42.6621 42.1422 42.2063 42.5981 42.2063 43.1604C42.2063 43.7227 42.6621 44.1786 43.2245 44.1786Z" fill="#F4EFE9"/>
<path d="M61.0831 44.1786C61.6454 44.1786 62.1013 43.7227 62.1013 43.1604C62.1013 42.5981 61.6454 42.1422 61.0831 42.1422C60.5208 42.1422 60.0649 42.5981 60.0649 43.1604C60.0649 43.7227 60.5208 44.1786 61.0831 44.1786Z" fill="#F4EFE9"/>
<path d="M55.8673 58.8311C55.8245 58.8174 55.7817 58.8038 55.7394 58.7907C55.5723 58.7382 55.408 58.6648 55.2277 58.6707C55.1475 58.6731 55.0683 58.6916 54.9886 58.7018C54.8015 58.7261 54.6114 58.7066 54.4238 58.6823C53.083 58.5113 51.78 58.1225 50.5004 57.687C50.4527 57.671 50.4012 57.6544 50.3531 57.6685C50.3128 57.6807 50.2812 57.7118 50.252 57.7424C50.1159 57.8829 49.9799 58.0228 49.8438 58.1633C49.7077 58.0228 49.5716 57.8824 49.4355 57.7424C49.4059 57.7123 49.3748 57.6807 49.3345 57.6685C49.2863 57.6544 49.2348 57.671 49.1872 57.687C47.9076 58.1225 46.6046 58.5118 45.2637 58.6823C45.0766 58.7062 44.8866 58.7256 44.6995 58.7018C44.6198 58.6916 44.5405 58.6731 44.4604 58.6707C44.2801 58.6648 44.1158 58.7382 43.9486 58.7907C43.9058 58.8043 43.8636 58.8174 43.8208 58.8311C43.5972 58.902 43.3717 58.9715 43.1409 59.0109C43.4412 59.0566 43.7474 59.0648 44.0497 59.0361C44.2368 59.0182 44.4283 58.9866 44.6105 59.0332C44.6727 59.0493 44.733 59.074 44.7957 59.0881C44.8963 59.111 45.0013 59.1052 45.1043 59.0993C46.485 59.0191 47.8643 58.901 49.2358 58.7236C49.4423 58.6969 49.6717 58.6551 49.8365 58.7781V58.7878C49.8389 58.7859 49.8413 58.7849 49.8438 58.7829C49.8462 58.7849 49.8486 58.7859 49.8511 58.7878V58.7781C50.0158 58.6556 50.2452 58.6969 50.4518 58.7236C51.8233 58.901 53.2025 59.0191 54.5833 59.0993C54.6863 59.1052 54.7908 59.111 54.8919 59.0881C54.9546 59.074 55.0148 59.0488 55.077 59.0332C55.2593 58.9866 55.4508 59.0182 55.6379 59.0361C55.9407 59.0648 56.2463 59.0566 56.5467 59.0109C56.3158 58.9715 56.0903 58.902 55.8673 58.8311Z" fill="#02020C"/>
<path d="M49.8077 70.2608C50.9576 70.1315 52.0579 69.7495 53.1461 69.37C53.8138 69.1372 54.5302 68.8679 54.9088 68.292C54.3834 68.3032 53.8522 68.3144 53.338 68.2094C52.992 68.1389 52.6523 68.016 52.2985 68.0179C52.0788 68.0194 51.8621 68.0689 51.6424 68.0791C51.2123 68.0986 50.7822 67.9484 50.4522 67.6869C50.1893 67.4785 50.0624 67.1135 49.7718 66.9701C49.7718 66.9716 49.7718 66.973 49.7713 66.974C49.7713 66.9725 49.7708 66.9711 49.7708 66.9701C49.4802 67.1135 49.3533 67.4785 49.0904 67.6869C48.7604 67.9484 48.3303 68.0986 47.9002 68.0791C47.6805 68.0694 47.4638 68.0194 47.2436 68.0179C46.8898 68.016 46.5501 68.1389 46.2041 68.2094C45.6899 68.3139 45.1587 68.3032 44.6333 68.292C45.0124 68.8679 45.7283 69.1372 46.396 69.37C47.4842 69.7495 48.584 70.1315 49.7344 70.2608" fill="#02020C"/>
<path d="M77.0171 29.5627C76.3085 26.6671 75.1372 23.8566 73.3395 21.4786C72.7869 20.7471 72.1756 20.0604 71.5151 19.4247C70.32 18.2744 68.9383 17.2256 67.4453 16.4917C67.1032 16.3236 66.7343 16.2229 66.3547 16.1525C66.6473 14.5827 66.7688 12.9818 66.59 11.3892C58.6473 7.18578 49.2597 5.09501 40.5564 7.33255C40.0267 7.46863 39.4969 7.62221 39.0124 7.87638C38.2732 8.26421 37.6744 8.8688 37.1005 9.47484C35.0447 11.6443 33.1405 13.9572 31.406 16.3911C31.3195 16.5126 31.2378 16.6375 31.1523 16.7595C29.8552 17.4705 28.6518 18.408 27.5953 19.4252C26.9348 20.0609 26.3239 20.7481 25.7708 21.479C23.9731 23.857 22.8018 26.6676 22.0933 29.5632C22.6084 28.9931 23.2324 28.5217 23.9216 28.182C23.4317 30.1648 23.9945 32.2376 24.5573 34.2015C24.0966 34.4096 23.6358 34.6132 23.1785 34.8129C24.464 34.913 25.7514 34.915 27.0339 34.8338C27.3965 35.2557 27.7707 35.6707 28.0978 36.1086L29.567 43.6732L30.3543 34.4382C33.2168 33.943 36.0274 33.0701 38.7077 31.9446C41.6737 30.6994 44.4998 29.1515 47.2355 27.4632C50.6035 27.035 53.935 26.322 57.1825 25.3306C58.0266 25.073 60.7667 24.5535 61.816 23.79L64.5424 23.3963L64.7203 28.6534L68.8178 31.1373L69.8865 43.6732L71.4655 35.5424C72.2383 34.6283 73.1101 33.7603 73.4649 32.6347C73.9815 33.0308 74.3669 33.596 74.5468 34.2215C75.1115 32.2517 75.6796 30.1711 75.1883 28.1815C75.8779 28.5212 76.5019 28.9926 77.0171 29.5627ZM24.5733 34.1938C24.7565 33.5795 25.1361 33.0245 25.6449 32.6347C25.7421 32.9433 25.8811 33.2305 26.0435 33.5066C25.556 33.7432 25.0652 33.9717 24.5733 34.1938Z" fill="#02020C"/>
<path d="M87.4499 101.181C87.3643 101.181 87.2948 101.113 87.2943 101.027C87.2759 98.895 87.4163 96.744 87.7113 94.6342C87.8605 93.5665 88.0734 92.3155 88.5176 91.1297C88.9662 89.9322 89.6587 88.7988 90.5199 87.8526C90.5782 87.7889 90.6759 87.7836 90.7401 87.8424C90.8037 87.9002 90.8081 87.9984 90.7503 88.0621C89.9153 88.9796 89.2442 90.078 88.8097 91.2391C88.3757 92.3967 88.1672 93.6268 88.0204 94.678C87.7274 96.7726 87.5884 98.9081 87.6063 101.025C87.6068 101.111 87.5378 101.182 87.4518 101.182C87.4508 101.181 87.4499 101.181 87.4499 101.181Z" fill="#02020C"/>
<path d="M10.1425 101.366C10.1391 101.366 10.1352 101.366 10.1313 101.365C10.0457 101.359 9.9811 101.285 9.98694 101.2C10.2878 96.846 9.1758 92.4127 6.85515 88.7172C6.80947 88.6443 6.83134 88.548 6.90424 88.5024C6.97665 88.4562 7.07288 88.4785 7.11905 88.551C9.47372 92.3024 10.6027 96.8023 10.2975 101.221C10.2917 101.303 10.2231 101.366 10.1425 101.366Z" fill="#02020C"/>
</g>
<defs>
<clipPath id="clip0_2728_18">
<rect width="100" height="100" fill="white"/>
</clipPath>
</defs>
</svg>
