<svg width="100" height="100" viewBox="0 0 100 100" fill="none" xmlns="http://www.w3.org/2000/svg">
<g clip-path="url(#clip0_2728_697)">
<rect width="100" height="100" fill="white"/>
<path d="M32.8396 50.0501C33.66 54.1369 34.4697 58.4453 33.1628 62.4037C31.8545 66.3656 28.3548 69.5246 24.2797 70.4213C22.4028 70.8344 20.4389 70.7979 18.5911 71.3272C14.8994 72.3847 12.224 75.4971 9.77651 78.4563C9.38674 78.9272 8.97996 79.44 8.93136 80.0489C8.90075 80.4353 9.01982 80.8168 9.1559 81.1794C10.5687 84.9468 13.8983 87.7603 17.5967 89.3451C21.2952 90.93 25.362 91.4238 29.3764 91.6945C35.4184 92.1022 42.0566 91.8475 46.6717 87.927C48.9063 86.0287 50.4426 83.4291 51.5856 80.7293C54.1182 74.7462 54.8763 68.1638 55.1009 61.6703C55.3152 55.4685 55.0163 49.0348 52.2879 43.4619C51.1395 41.116 49.5464 38.9435 47.426 37.4185C44.5202 35.3282 40.8494 34.5972 37.2763 34.3868C35.812 34.3008 34.2855 34.3047 32.9539 34.9199C30.4053 36.0985 30.4976 38.2588 30.9579 40.5532C31.5916 43.717 32.2044 46.8862 32.8396 50.0501Z" fill="#02020C"/>
<path d="M50.5442 92.0366C50.3634 92.0463 50.2162 92.0526 50.2152 92.0526C50.17 92.0526 50.1345 92.0424 50.101 92.023C50.0854 92.0132 50.0679 92.0079 50.05 92.0069C47.5869 91.8431 39.2583 91.0971 35.5103 88.3639C35.122 88.0805 34.7366 87.7957 34.3517 87.5114L34.2875 87.4643C32.1836 85.9086 30.1959 84.4389 28.0604 83.4018L27.6935 82.9804C27.2079 82.4245 26.7069 81.851 26.2773 81.2498C28.2835 80.9961 29.8931 80.3852 31.1936 79.386C31.6976 79.193 32.186 78.9855 32.6589 78.7683C33.4093 78.4189 34.1286 78.0412 34.7978 77.6447C35.4665 77.2432 36.1382 76.7854 36.7948 76.2824C38.0088 75.359 39.1529 74.3175 40.2201 73.3304C40.2439 73.3081 40.2575 73.277 40.2571 73.2439L40.1176 63.9263C40.1166 63.8661 40.1132 63.8043 40.1098 63.7416C40.1035 63.6235 40.0962 63.503 40.1088 63.3898C40.1171 63.3159 40.1511 63.2367 40.1871 63.1531C40.2551 62.9942 40.3324 62.8148 40.2434 62.6234C40.1671 62.4596 40.0257 62.3463 39.9008 62.2462L39.8648 62.2176C39.5232 61.941 39.2224 61.6033 38.9317 61.2757C38.8102 61.1391 38.6887 61.0026 38.5638 60.8694C38.2401 60.5243 37.8893 60.1987 37.55 59.8838C37.2239 59.5815 36.8866 59.269 36.5771 58.9414C35.9978 58.3291 35.502 57.6511 35.1351 57.1291C33.9186 55.3975 32.8431 53.5298 31.8041 51.7229L31.5042 51.2024C31.4702 51.1431 31.4128 51.0449 31.304 51.0109C31.2787 51.0026 31.251 50.9987 31.2223 50.9987C31.1689 50.9987 31.1212 51.0123 31.0731 51.0274L30.9608 51.0634C30.7567 51.129 30.6095 51.1766 30.4491 51.1766C30.3281 51.1766 30.2027 51.1489 30.0554 51.0882C29.6997 50.9428 29.3755 50.6546 29.0922 50.2323C28.8759 49.9086 28.7102 49.5597 28.5503 49.2224L28.4891 49.0936C28.3087 48.7063 28.1377 48.3136 27.9734 47.9194C27.4694 46.7059 27.0252 45.451 26.5956 44.2375C26.4624 43.8613 26.3298 43.4852 26.1946 43.1105C25.8778 42.2099 25.626 41.4479 25.4292 40.6547C25.2499 39.9097 25.0681 39.0208 25.0832 38.0794C25.104 37.0267 25.3981 36.1879 25.9575 35.5872C26.2811 35.2446 26.6821 34.9909 27.1166 34.8538C27.3246 34.7858 27.5428 34.7513 27.7673 34.7513C27.8184 34.7513 27.8694 34.7532 27.9204 34.7566C27.9233 34.7571 27.9258 34.7571 27.9287 34.7571C27.9598 34.7571 27.9899 34.7445 28.0118 34.7221C28.0356 34.6978 28.0473 34.6638 28.0434 34.6303C27.882 33.078 27.7829 31.6496 27.7392 30.2631C27.7017 29.0145 27.7178 27.9064 27.7868 26.8752C27.8733 25.5673 28.039 24.4933 28.3078 23.495C28.4803 22.8695 28.6844 22.3354 28.9313 21.8616C29.6107 20.5188 30.7237 19.2095 31.7049 18.0542L31.7759 17.9707C33.2475 16.239 34.4843 15.0513 35.7868 14.1211C37.0504 13.2186 38.5789 12.4283 40.4602 11.7061C44.0318 10.3346 47.6549 9.63916 51.2295 9.63916C52.8449 9.63916 54.441 9.78642 55.9728 10.078C61.3349 11.0962 66.1594 13.984 69.209 18.0013C72.0327 21.7206 73.3677 25.0099 73.4095 28.3521C73.4338 30.2514 73.325 32.2571 73.0674 34.6652C73.0635 34.7017 73.0771 34.7381 73.1048 34.7629C73.1262 34.7824 73.1539 34.7926 73.1826 34.7926C73.1904 34.7926 73.1981 34.7916 73.2059 34.7901C73.3386 34.762 73.4766 34.7483 73.6161 34.7483C73.843 34.7483 74.0681 34.7843 74.2848 34.8548C74.7188 34.9933 75.1212 35.2509 75.4493 35.6008C76.0048 36.2083 76.2949 37.0544 76.31 38.1158C76.3163 38.5173 76.2837 38.9464 76.2099 39.428C76.1481 39.8382 76.0607 40.2679 75.9503 40.7062C75.7491 41.5028 75.4945 42.2707 75.1737 43.179C75.0464 43.5338 74.92 43.89 74.7942 44.2467C74.3538 45.4904 73.8985 46.7769 73.3784 48.0186C73.2117 48.4152 73.0373 48.8093 72.8536 49.1996C72.6626 49.602 72.4798 49.9879 72.2276 50.3373C72.0886 50.5288 71.9394 50.6906 71.7834 50.8184C71.6303 50.9501 71.4272 51.0522 71.1944 51.1154C71.0281 51.1567 70.8634 51.1781 70.7079 51.1781C70.653 51.1781 70.598 51.1756 70.5431 51.1698C70.3623 51.1538 70.1956 51.1091 70.0464 51.0362C70.0304 51.0284 70.0129 51.0245 69.9959 51.0245C69.9823 51.0245 69.9682 51.0274 69.9551 51.0323C69.9254 51.0434 69.9016 51.0668 69.8894 51.0959C69.1823 52.8101 68.222 54.5383 67.0347 56.2325C66.3426 57.1947 65.6282 58.0992 64.9118 58.9196C64.1367 59.7992 63.3362 60.6274 62.5333 61.3811C62.1888 61.7024 61.7305 62.1208 61.2474 62.5077C61.2207 62.5296 61.2046 62.5612 61.2041 62.5952C61.2037 62.6292 61.2177 62.6622 61.2435 62.6851C61.3198 62.7517 61.3626 62.843 61.364 62.9417L61.208 73.3853C61.2075 73.4184 61.2211 73.45 61.245 73.4719C62.3093 74.457 63.4504 75.497 64.664 76.4258C65.3429 76.9468 65.9864 77.389 66.6313 77.7773C67.3107 78.1831 68.0213 78.554 68.743 78.8806C69.4336 79.1877 70.1529 79.4676 70.9407 79.7364C71.0787 79.9993 71.3178 80.183 71.6342 80.27C72.5406 80.5174 73.4752 80.7016 74.3781 80.879C74.6814 80.9383 74.9842 80.9985 75.2865 81.0603C74.8661 81.7251 74.2634 82.3414 73.7726 82.8424C73.6287 82.9887 73.4786 83.1272 73.3255 83.2623C71.0899 84.2839 68.9996 85.8294 66.7863 87.4653C66.3805 87.7656 65.9733 88.0669 65.564 88.3648C61.816 91.0981 53.4874 91.8441 51.0244 92.0079C51.0064 92.0089 50.9889 92.0142 50.9733 92.0239C50.9393 92.0439 50.9034 92.0541 50.8669 92.0541C50.8679 92.0526 50.7119 92.0458 50.5442 92.0366Z" fill="#F9BF9A"/>
<path d="M60.8843 62.4304C60.8843 62.4304 58.5165 76.8923 47.2996 74.317C47.2996 74.317 42.0309 72.8459 40.3314 67.4644C40.2482 66.4069 40.2852 65.151 40.2016 64.0935C40.1797 63.8179 40.4733 63.0554 40.6939 62.8673C40.9476 62.6511 41.5279 63.4831 41.6951 63.6401C42.0805 64.0012 42.4965 64.3297 42.9373 64.6208C43.3956 64.9231 43.8811 65.1851 44.3861 65.4009C45.1831 65.7415 46.0249 65.9685 46.8263 66.2995C48.0709 66.8141 49.4618 67.807 50.8751 67.3944C51.3961 67.2423 51.9171 67.0887 52.4352 66.9279C53.4709 66.6066 54.4992 66.2572 55.5009 65.8397C57.5042 65.0048 59.2591 63.8481 60.8843 62.4304Z" fill="#BF7D5D"/>
<path d="M49.2621 47.8198L48.5933 37.2999L46.2751 35.4526L39.0235 33.5825L34.4629 34.2439L41.4788 31.8265L45.8873 33.7419L48.259 35.6572L49.7184 37.0559C49.7184 37.0559 49.7179 45.9954 49.2621 47.8198Z" fill="#BF7D5D"/>
<path d="M52.9835 51.0803C52.7045 51.162 52.3964 51.1979 52.0927 51.1838C52.0275 51.1809 51.9614 51.1756 51.8973 51.1838C51.8263 51.1931 51.7627 51.2179 51.698 51.2392C51.3734 51.3452 51.0035 51.3564 50.639 51.353C50.639 51.352 50.639 51.3515 50.639 51.3505C50.6094 51.351 50.5793 51.3515 50.5491 51.352C50.5195 51.3515 50.4893 51.351 50.4597 51.3505C50.4597 51.3515 50.4597 51.352 50.4597 51.353C50.0952 51.3569 49.7258 51.3452 49.4007 51.2392C49.3356 51.2179 49.2719 51.1931 49.2014 51.1838C49.1373 51.1756 49.0712 51.1809 49.0061 51.1838C48.7028 51.1979 48.3942 51.162 48.1152 51.0803C48.1235 51.3087 48.2411 51.5508 48.4928 51.7044C49.0187 52.0256 49.7866 52.221 50.5025 52.2253V52.2268C50.518 52.2273 50.5341 52.2258 50.5496 52.2258C50.5652 52.2258 50.5812 52.2268 50.5967 52.2268V52.2253C51.3121 52.2205 52.0805 52.0251 52.6064 51.7044C52.8576 51.5508 52.9752 51.3087 52.9835 51.0803Z" fill="#BF7D5D"/>
<path d="M49.8916 59.6719L51.7807 59.601L51.4424 60.6881L50.8539 61.0089L50.1054 61.3297L49.8916 59.6719Z" fill="#BF7D5D"/>
<path d="M53.5491 39.2166L54.7349 38.8521L64.3626 36.46L61.3479 35.7505L53.9141 38.0308L53.5491 39.2166Z" fill="#BF7D5D"/>
<path d="M92.9745 87.5566C90.2378 83.5432 78.3901 82.0857 78.3901 82.0857L78.7551 80.9912L75.7448 80.079L75.2889 81.0821C67.5562 91.1345 52.0572 91.7989 50.2838 91.8421C48.5575 91.7989 33.4618 91.1345 25.7291 81.0821L25.2732 80.079L22.2634 80.9912L22.6284 82.0857C22.6284 82.0857 10.4055 84.2746 7.66932 88.288C4.93314 92.3014 2.28784 100.602 2.28784 100.602H47.6793H50.449H98.7321C98.7311 100.602 95.7111 91.57 92.9745 87.5566Z" fill="#D96704"/>
<path d="M34.1772 102.334C31.0221 102.069 27.8582 101.493 24.968 100.2C23.1576 99.3902 21.3964 98.2253 20.4837 96.4645C19.8975 95.3346 19.7041 94.0345 19.7274 92.7617C19.7848 89.558 21.2846 86.3295 23.9245 84.5133C27.727 87.8516 32.3119 90.1669 36.9595 92.1683C40.034 93.4926 43.2299 93.601 46.5571 93.9738C50.1272 94.3738 53.3076 94.2941 56.834 93.6088C59.9853 92.9964 63.7561 92.4356 66.6245 90.9941C68.3969 90.1033 69.8151 89.4034 71.4646 88.3104C72.2728 87.7749 73.1034 87.1537 73.9874 86.7494C74.8729 86.3446 74.4904 87.0206 74.0982 87.511C73.0378 88.8387 71.5234 89.9818 70.2126 91.0519C68.8159 92.1916 67.3559 93.2545 65.844 94.2367C59.8881 98.1043 53.1195 100.718 46.11 101.856C42.17 102.496 38.1541 102.668 34.1772 102.334Z" fill="#AF4D04"/>
<path d="M94.7925 90.7049L94.8975 90.7759C94.9398 90.7963 94.9821 90.8181 95.0229 90.8434C94.0509 88.7123 92.4058 86.9175 90.4487 85.6311C89.1005 84.7451 87.6065 84.0934 86.0567 83.6521C85.75 83.5646 84.3853 83.0577 84.2347 83.4188C84.1341 83.3862 84.0335 83.3566 83.9343 83.3347L84.2293 83.5349C84.2755 83.7643 84.6978 84.0953 84.8295 84.2717C85.039 84.5531 85.2247 84.8515 85.4093 85.1494C86.4902 86.8918 88.2622 88.0713 90.0011 89.1575C90.3311 89.3635 90.663 89.5691 91.0187 89.7261C92.2284 90.2597 93.6383 90.2043 94.8411 90.7506C94.8246 90.735 94.8086 90.72 94.7925 90.7049Z" fill="#AF4D04"/>
<path d="M94.897 90.7759C94.8911 90.773 94.8848 90.77 94.879 90.7671C94.8663 90.7613 94.8532 90.7564 94.8401 90.7506C94.9907 90.892 95.1414 91.033 95.2901 91.1763C95.2658 91.0301 95.1526 90.9236 95.0223 90.8434C95.0262 90.8522 95.0306 90.8609 95.035 90.8697L94.897 90.7759Z" fill="#AF4D04"/>
<path d="M6.71816 90.7049L6.61318 90.7759C6.5709 90.7963 6.52862 90.8181 6.48779 90.8434C7.45979 88.7123 9.10491 86.9175 11.062 85.6311C12.4102 84.7451 13.9042 84.0934 15.454 83.6521C15.7607 83.5646 17.1254 83.0577 17.276 83.4188C17.3766 83.3862 17.4772 83.3566 17.5764 83.3347L17.2814 83.5349C17.2352 83.7643 16.8129 84.0953 16.6816 84.2717C16.4722 84.5531 16.2865 84.8515 16.1019 85.1494C15.021 86.8918 13.249 88.0713 11.5101 89.1575C11.1801 89.3635 10.8482 89.5691 10.4924 89.7261C9.28279 90.2597 7.8729 90.2043 6.67053 90.7506C6.68608 90.735 6.70212 90.72 6.71816 90.7049Z" fill="#AF4D04"/>
<path d="M6.61314 90.7759C6.61897 90.773 6.6253 90.77 6.63113 90.7671C6.64377 90.7613 6.65688 90.7564 6.67 90.7506C6.51934 90.892 6.36869 91.033 6.21997 91.1763C6.24427 91.0301 6.35751 90.9236 6.48824 90.8434C6.48436 90.8522 6.47998 90.8609 6.47561 90.8697L6.61314 90.7759Z" fill="#AF4D04"/>
<path d="M71.4534 67.6908C70.1761 67.6908 69.8384 61.7825 69.8384 58.6585C69.8384 55.5987 70.0872 52.7886 70.5042 51.1425C70.5309 51.0366 70.6398 50.971 70.7438 50.9997C70.8497 51.0264 70.9134 51.1333 70.8867 51.2393C70.4775 52.8562 70.233 55.6293 70.233 58.659C70.233 64.3302 71.0271 67.2967 71.4529 67.2967C71.8786 67.2967 72.6727 64.3302 72.6727 58.659C72.6727 52.9879 71.8786 50.0213 71.4529 50.0213C71.344 50.0213 71.2555 49.9329 71.2555 49.824C71.2555 49.7152 71.344 49.6267 71.4529 49.6267C72.7301 49.6267 73.0678 55.5355 73.0678 58.6595C73.0678 61.7835 72.7306 67.6908 71.4534 67.6908Z" fill="#02020C"/>
<path d="M29.7168 67.7565C28.4396 67.7565 28.1018 61.8482 28.1018 58.7242C28.1018 55.6002 28.4396 49.6914 29.7168 49.6914C29.8256 49.6914 29.9141 49.7799 29.9141 49.8887C29.9141 49.9981 29.8256 50.086 29.7168 50.086C29.291 50.086 28.4969 53.0526 28.4969 58.7237C28.4969 64.3948 29.291 67.3614 29.7168 67.3614C30.1425 67.3614 30.9366 64.3948 30.9366 58.7237C30.9366 55.6945 30.6927 52.9204 30.283 51.3035C30.2562 51.198 30.3204 51.0906 30.4259 51.0639C30.5323 51.0347 30.6387 51.1008 30.6659 51.2068C31.0829 52.8528 31.3318 55.6629 31.3318 58.7232C31.3318 61.8482 30.994 67.7565 29.7168 67.7565Z" fill="#02020C"/>
<path d="M28.3093 35.4215C27.6858 35.1435 26.8596 35.4137 26.3444 35.9531C25.822 36.4843 25.5936 37.2979 25.5668 38.0988C25.5294 39.7371 26.0315 41.3905 26.5597 42.9958C27.1055 44.6127 27.6182 46.2418 28.2389 47.8213C28.5577 48.6003 28.8697 49.4149 29.2915 50.1137C29.5112 50.4544 29.7897 50.7557 30.1464 50.9088C30.4983 51.0658 30.923 51.0857 31.2331 50.8831L31.393 51.1251C30.9779 51.4041 30.4443 51.3768 30.023 51.1985C29.5846 51.0191 29.2536 50.6668 29.0077 50.3003C28.7589 49.9281 28.5805 49.533 28.3958 49.1466C28.2146 48.7568 28.0425 48.3632 27.8778 47.9671C27.2187 46.3803 26.6749 44.7599 26.0975 43.1532C25.5372 41.5407 24.9773 39.8766 24.9797 38.0808C24.9972 37.1944 25.214 36.2326 25.8847 35.5119C26.2137 35.1634 26.6253 34.8941 27.0934 34.7469C27.557 34.5953 28.0965 34.5938 28.5771 34.7892L28.3093 35.4215Z" fill="#02020C"/>
<path d="M26.6014 38.6903C26.27 38.023 26.4109 37.155 26.9538 36.6073C27.2138 36.3439 27.6176 36.1179 28.0541 36.2306C28.4706 36.3429 28.7763 36.6923 28.8754 37.1064C28.9007 37.2124 28.8356 37.3193 28.7296 37.3446C28.6237 37.3698 28.5167 37.3047 28.4915 37.1988C28.4905 37.1939 28.489 37.1886 28.4886 37.1837C28.4443 36.9086 28.2334 36.6345 27.9642 36.5495C27.7003 36.4552 27.3761 36.5859 27.1375 36.8022C26.6505 37.2313 26.4605 38.007 26.7278 38.6325C26.7433 38.6675 26.7273 38.7083 26.6923 38.7238C26.6578 38.7379 26.6184 38.7229 26.6014 38.6903Z" fill="#02020C"/>
<path d="M29.3716 41.86C28.8531 42.1093 28.5746 42.692 28.5532 43.2446C28.5357 43.8098 28.7554 44.3566 29.0445 44.8455C29.3361 45.3383 29.706 45.7893 30.0297 46.2899C30.3674 46.7866 30.5531 47.3858 30.9652 47.6653C31.0556 47.7265 31.0789 47.849 31.0182 47.9394C30.957 48.0298 30.8345 48.0531 30.7441 47.9923C30.7412 47.9904 30.7368 47.987 30.7339 47.9851C30.4598 47.7766 30.2906 47.4927 30.1555 47.2269C30.0204 46.9552 29.9072 46.702 29.7595 46.4561C29.4708 45.9618 29.1174 45.4894 28.8361 44.9626C28.5576 44.4407 28.3462 43.8472 28.3923 43.2349C28.4424 42.6371 28.77 42.0272 29.3376 41.7842C29.3585 41.7749 29.3828 41.7852 29.392 41.806C29.4013 41.8265 29.3915 41.8503 29.3716 41.86Z" fill="#02020C"/>
<path d="M72.8391 34.7895C73.3231 34.5922 73.866 34.5965 74.3326 34.7496C74.8025 34.9008 75.2166 35.1729 75.5451 35.5267C76.2158 36.2567 76.4243 37.2268 76.4374 38.1186C76.4301 39.925 75.8601 41.5983 75.2948 43.2211C74.7141 44.8385 74.1649 46.471 73.4971 48.067C73.3295 48.4655 73.155 48.8611 72.9703 49.2524C72.7856 49.6412 72.5985 50.0406 72.3337 50.4081C72.2015 50.5908 72.0479 50.7643 71.869 50.9111C71.6873 51.0671 71.4603 51.1696 71.2372 51.2299C70.7896 51.3392 70.292 51.3334 69.8691 51.0656L70.029 50.8236C70.343 51.0199 70.7804 51.0301 71.1546 50.9276C71.5371 50.8314 71.8219 50.5495 72.0591 50.2122C72.2919 49.8769 72.4658 49.4905 72.6418 49.1007C72.8163 48.7114 72.9815 48.3173 73.1394 47.9202C73.7688 46.331 74.2854 44.6917 74.8351 43.0631C75.3682 41.4462 75.881 39.7841 75.8518 38.1327C75.829 37.3254 75.6073 36.5031 75.0834 35.9641C74.5683 35.4174 73.7362 35.1404 73.1078 35.4208L72.8391 34.7895Z" fill="#02020C"/>
<path d="M74.6894 38.6315C74.9567 38.0065 74.7667 37.2303 74.2797 36.8012C74.0411 36.5849 73.7169 36.4547 73.453 36.5485C73.1837 36.634 72.9723 36.9081 72.9286 37.1827C72.9116 37.2906 72.8105 37.364 72.7026 37.347C72.5947 37.33 72.5213 37.2289 72.5383 37.121C72.5388 37.1161 72.5403 37.1103 72.5413 37.1059C72.6404 36.6919 72.9461 36.3424 73.3626 36.2302C73.799 36.1174 74.2029 36.3434 74.4629 36.6068C75.0058 37.1545 75.1462 38.022 74.8152 38.6898C74.7982 38.7243 74.7564 38.7379 74.7224 38.7209C74.6889 38.7049 74.6753 38.665 74.6894 38.6315Z" fill="#02020C"/>
<path d="M72.0784 41.7841C72.6461 42.0271 72.9736 42.637 73.0237 43.2348C73.0699 43.8467 72.8585 44.4401 72.58 44.9625C72.2986 45.4894 71.9453 45.9617 71.6566 46.456C71.5088 46.7019 71.3956 46.9551 71.2605 47.2268C71.1254 47.4927 70.9563 47.777 70.6821 47.985C70.5956 48.0516 70.4717 48.036 70.4051 47.9495C70.3385 47.863 70.3546 47.7391 70.4406 47.6725C70.4435 47.6705 70.4479 47.6671 70.4508 47.6652C70.8629 47.3862 71.0486 46.7865 71.3864 46.2898C71.71 45.7892 72.0799 45.3382 72.3715 44.8454C72.6611 44.357 72.8803 43.8097 72.8628 43.2445C72.8414 42.6919 72.563 42.1087 72.0444 41.8599C72.0235 41.8502 72.0148 41.8254 72.0245 41.805C72.0337 41.7846 72.058 41.7758 72.0784 41.7841Z" fill="#02020C"/>
<path d="M50.4637 51.6461C50.4569 51.6461 50.4506 51.6461 50.4438 51.6461C49.5471 51.6407 48.6753 51.214 48.1693 50.5331C48.1042 50.4452 48.1227 50.3212 48.2102 50.2561C48.2981 50.19 48.4216 50.2085 48.4872 50.2965C48.9207 50.8797 49.6711 51.2451 50.4462 51.2495C50.4521 51.2495 50.4579 51.2495 50.4637 51.2495C51.1927 51.2495 51.9422 50.9443 52.5234 50.4107C52.6041 50.3363 52.729 50.3422 52.8033 50.4223C52.8772 50.503 52.8719 50.6279 52.7912 50.7018C52.1375 51.3025 51.2904 51.6461 50.4637 51.6461Z" fill="#02020C"/>
<path d="M47.8107 48.8671C47.6824 49.1543 47.5298 49.4401 47.4224 49.7263C47.3023 50.0131 47.3976 50.276 47.5988 50.502C47.9803 50.9486 48.6237 51.1061 49.1948 51.0419L49.1972 51.0415L49.015 51.2485L49.0111 51.1688C49.0057 51.0594 49.0898 50.9666 49.1992 50.9613C49.3085 50.9559 49.4013 51.04 49.4067 51.1494L49.4106 51.2291L49.4111 51.2407C49.4164 51.3437 49.3372 51.4307 49.2342 51.4361L49.2278 51.4366H49.2249C48.8803 51.4492 48.5363 51.3938 48.2174 51.2679C47.8996 51.1435 47.6046 50.9379 47.401 50.657C47.3018 50.5171 47.2134 50.3659 47.1779 50.1832C47.1405 49.9975 47.1886 49.8124 47.2552 49.6617C47.3946 49.3623 47.5643 49.0979 47.7169 48.8156C47.731 48.7898 47.763 48.7801 47.7888 48.7942C47.8136 48.8073 47.8233 48.8374 47.8121 48.8622L47.8107 48.8671Z" fill="#02020C"/>
<path d="M41.8707 44.5908C43.3223 44.5908 44.499 42.8599 44.499 40.7247C44.499 38.5894 43.3223 36.8585 41.8707 36.8585C40.4192 36.8585 39.2424 38.5894 39.2424 40.7247C39.2424 42.8599 40.4192 44.5908 41.8707 44.5908Z" fill="#02020C"/>
<path d="M44.6987 39.724C44.6987 40.3787 44.2905 40.9099 43.7865 40.9099C43.283 40.9099 42.8743 40.3792 42.8743 39.724C42.8743 39.0689 43.2825 38.5382 43.7865 38.5382C44.2905 38.5382 44.6987 39.0694 44.6987 39.724Z" fill="#F4EFE9"/>
<path d="M48.1094 35.5964L49.7468 36.8852C49.7881 36.9178 49.8099 36.9654 49.8109 37.0135V37.0257C49.8406 38.8492 49.8454 40.6702 49.8231 42.4932C49.8095 43.4044 49.789 44.3157 49.7506 45.2274C49.704 46.1392 49.6622 47.0504 49.5052 47.9622C49.4955 48.0176 49.443 48.055 49.3871 48.0458C49.3322 48.036 49.2953 47.9845 49.3035 47.9296L49.3045 47.9243C49.4411 47.0378 49.4683 46.1246 49.4984 45.2187C49.5208 44.3104 49.5251 43.4015 49.5227 42.4922C49.513 40.6736 49.4761 38.854 49.4148 37.0369L49.479 37.1773L48.0506 35.6605C48.0341 35.643 48.0351 35.6158 48.0526 35.5993C48.0691 35.5842 48.0929 35.5837 48.1094 35.5964Z" fill="#02020C"/>
<path d="M39.0894 44.6671C39.9331 44.5432 40.7724 44.5141 41.6156 44.5024C42.4578 44.4936 43.3001 44.5155 44.1404 44.5602C44.2492 44.5661 44.3328 44.6589 44.327 44.7677C44.3212 44.8766 44.2283 44.9602 44.1195 44.9544C44.117 44.9544 44.1136 44.9539 44.1112 44.9539C43.2801 44.8747 42.4466 44.8173 41.6122 44.7906C40.7802 44.7663 39.9379 44.7614 39.1176 44.847L39.1112 44.8474C39.0612 44.8523 39.0165 44.8163 39.0116 44.7663C39.0072 44.7177 39.0412 44.6739 39.0894 44.6671Z" fill="#02020C"/>
<path d="M53.5958 48.8156C53.7484 49.098 53.9181 49.3619 54.0575 49.6617C54.1241 49.8124 54.1727 49.9976 54.1348 50.1832C54.0993 50.366 54.0109 50.5171 53.9117 50.6571C53.7081 50.938 53.4131 51.1435 53.0953 51.268C52.7764 51.3934 52.4328 51.4492 52.0878 51.4366H52.0849C51.9818 51.4347 51.8997 51.3501 51.9016 51.2471V51.2417L51.9021 51.2291L51.906 51.1494C51.9114 51.04 52.0042 50.956 52.1135 50.9613C52.2229 50.9666 52.307 51.0595 52.3016 51.1688L52.2977 51.2485L52.1155 51.0415L52.1179 51.042C52.6895 51.1061 53.3324 50.9487 53.7139 50.502C53.9151 50.276 54.0109 50.0131 53.8904 49.7264C53.783 49.4401 53.6303 49.1548 53.502 48.8671L53.5001 48.8623C53.4879 48.8355 53.5001 48.8039 53.5268 48.7923C53.5531 48.7811 53.5827 48.7918 53.5958 48.8156Z" fill="#02020C"/>
<path d="M59.1708 44.6943C60.6223 44.6943 61.7991 42.9634 61.7991 40.8282C61.7991 38.693 60.6223 36.962 59.1708 36.962C57.7192 36.962 56.5425 38.693 56.5425 40.8282C56.5425 42.9634 57.7192 44.6943 59.1708 44.6943Z" fill="#02020C"/>
<path d="M62.4809 39.621C62.4809 40.2757 62.0727 40.8069 61.5687 40.8069C61.0647 40.8069 60.6565 40.2761 60.6565 39.621C60.6565 38.9659 61.0647 38.4352 61.5687 38.4352C62.0722 38.4352 62.4809 38.9659 62.4809 39.621Z" fill="#F4EFE9"/>
<path d="M56.3895 44.6671C57.2332 44.5432 58.0725 44.5141 58.9157 44.5024C59.758 44.4936 60.6002 44.5155 61.441 44.5602C61.5499 44.5661 61.6334 44.6589 61.6276 44.7677C61.6218 44.8766 61.529 44.9602 61.4201 44.9544C61.4177 44.9544 61.4142 44.9539 61.4118 44.9539C60.5808 44.8747 59.7473 44.8173 58.9128 44.7906C58.0808 44.7663 57.2385 44.7614 56.4182 44.847L56.4119 44.8474C56.3618 44.8523 56.3176 44.8163 56.3122 44.7663C56.3074 44.7177 56.3414 44.6739 56.3895 44.6671Z" fill="#02020C"/>
<path d="M47.7881 56.1644C48.7203 56.2907 49.6786 56.3607 50.6254 56.3622C51.5706 56.3583 52.5271 56.2932 53.4116 56.02L53.312 56.0968L54.127 55.1034C54.1518 55.0733 54.1965 55.0689 54.2266 55.0937C54.2534 55.1156 54.2597 55.1525 54.2441 55.1817L53.6391 56.3155L53.5851 56.4166C53.5783 56.4292 53.5628 56.4341 53.5501 56.4273C53.5375 56.4205 53.5326 56.4049 53.5394 56.3923C52.5893 56.715 51.6047 56.8049 50.6322 56.838C49.6558 56.8637 48.6896 56.8214 47.7128 56.7174C47.5597 56.7009 47.4489 56.5639 47.4649 56.4108C47.4814 56.2577 47.6185 56.1469 47.7721 56.1629C47.7745 56.1634 47.7764 56.1634 47.7789 56.1639L47.7881 56.1644Z" fill="#02020C"/>
<path d="M45.4539 69.2466C45.8947 72.026 46.8127 74.7311 48.1575 77.2068C48.1847 77.2573 48.1663 77.3205 48.1157 77.3477C48.0657 77.3749 48.003 77.3565 47.9753 77.3064C46.6028 74.8186 45.6575 72.0945 45.1939 69.2884C45.1822 69.2164 45.2308 69.1489 45.3023 69.1367C45.3742 69.1251 45.4417 69.1737 45.4539 69.2451V69.2466Z" fill="#02020C"/>
<path d="M61.4913 62.9573L61.2809 77.0411C61.2789 77.1816 61.1632 77.2938 61.0228 77.2919C60.8853 77.2899 60.7745 77.1782 60.7725 77.0411L60.5621 62.9573C60.5582 62.7007 60.7633 62.4893 61.0199 62.4854C61.2765 62.4815 61.4879 62.6866 61.4918 62.9432C61.4913 62.9476 61.4913 62.9534 61.4913 62.9573Z" fill="#02020C"/>
<path d="M75.0358 81.4049C72.3749 80.7522 69.7019 79.9542 67.2709 78.608C64.8268 77.2686 62.7929 75.3659 60.8207 73.4826C60.741 73.4063 60.7381 73.2804 60.8144 73.2007C60.8898 73.122 61.0147 73.1181 61.0944 73.192C63.0933 75.0441 65.1311 76.8851 67.5222 78.1453C69.907 79.4181 72.5382 80.1622 75.1864 80.7682C75.3623 80.8081 75.4727 80.9831 75.4328 81.1595C75.393 81.3354 75.218 81.4457 75.0416 81.4059C75.0406 81.4059 75.0372 81.4049 75.0358 81.4049Z" fill="#02020C"/>
<path d="M56.2362 69.2888C55.7726 72.095 54.8268 74.819 53.4548 77.3069C53.4271 77.3569 53.3639 77.3754 53.3139 77.3477C53.2638 77.32 53.2454 77.2573 53.2726 77.2072C54.6173 74.7316 55.5354 72.0265 55.9762 69.247C55.9874 69.1751 56.0549 69.126 56.1268 69.1377C56.1988 69.1489 56.2479 69.2169 56.2362 69.2888Z" fill="#02020C"/>
<path d="M48.1705 84.6323C48.8699 85.1037 49.7418 85.3137 50.5952 85.2986C51.4486 85.2777 52.3108 85.0318 52.9902 84.5327C53.0602 84.4812 53.1588 84.4962 53.2104 84.5662C53.2619 84.6362 53.2468 84.7349 53.1768 84.7864C53.1647 84.7956 53.1496 84.8029 53.136 84.8082C52.3001 85.1101 51.454 85.2845 50.5957 85.2991C49.7374 85.3195 48.885 85.1805 48.0369 84.9137C47.9538 84.8884 47.9071 84.8005 47.9324 84.7174C47.9577 84.6343 48.0456 84.5876 48.1287 84.6129C48.1428 84.6168 48.1584 84.6245 48.1705 84.6323Z" fill="#02020C"/>
<path d="M54.2358 83.5641C55.1821 83.4509 56.1303 83.3688 57.079 83.2871C58.0276 83.2157 58.9763 83.1438 59.9259 83.0859C60.8761 83.0363 61.8247 82.9702 62.7758 82.9348C63.7265 82.8925 64.6771 82.8565 65.6287 82.8424C65.7147 82.841 65.7856 82.91 65.7866 82.996C65.7881 83.0777 65.7254 83.1457 65.6457 83.1535C64.698 83.2434 63.7488 83.3114 62.7997 83.3731C61.8505 83.4412 60.8999 83.4791 59.9502 83.534C59.0001 83.5802 58.049 83.6123 57.0984 83.6448C56.1468 83.6672 55.1957 83.6886 54.2422 83.6793C54.2101 83.6788 54.1848 83.6531 54.1848 83.621C54.1853 83.5918 54.2077 83.5675 54.2358 83.5641Z" fill="#02020C"/>
<path d="M47.564 83.6793C46.7072 83.6885 45.8523 83.6672 44.9974 83.6448C44.143 83.6122 43.2886 83.5802 42.4352 83.534C41.5823 83.4796 40.7284 83.4417 39.8764 83.3731C39.024 83.3114 38.172 83.2434 37.321 83.1535C37.2355 83.1442 37.1733 83.0679 37.1825 82.9819C37.1913 82.9012 37.2603 82.8414 37.34 82.8424C38.1954 82.8565 39.0493 82.8925 39.9032 82.9348C40.7571 82.9702 41.6095 83.0363 42.4629 83.0859C43.3159 83.1437 44.1673 83.2157 45.0193 83.2871C45.8708 83.3688 46.7217 83.4509 47.5713 83.5641C47.6029 83.5685 47.6252 83.5972 47.6209 83.6288C47.6165 83.6579 47.5922 83.6788 47.564 83.6793Z" fill="#02020C"/>
<path d="M50.5393 94.4982C50.359 94.4982 50.2122 94.3519 50.2122 94.1711C50.2122 93.9908 50.3585 93.844 50.5393 93.844C55.9728 93.844 60.9548 93.0693 65.3468 91.5414C69.5302 90.0863 72.9177 88.1335 75.4152 85.7375C75.5401 85.6175 75.6709 85.4955 75.804 85.3711C76.393 84.8205 77.002 84.2509 77.3889 83.6341C77.713 83.117 77.9944 82.5295 78.2671 81.9613C78.3681 81.7509 78.4692 81.5405 78.5718 81.3339L75.9367 80.5918C74.5511 82.4882 73.0635 84.0113 71.5117 85.1213C70.8454 85.5976 70.1314 86.0117 69.4413 86.4126C69.0671 86.6294 68.7016 86.8451 68.3357 87.0604C66.8018 87.9634 65.216 88.898 63.5592 89.6192C62.1114 90.2486 60.4984 90.7263 58.3279 91.1671C55.6637 91.709 52.9411 92.0473 50.2356 92.1717C50.0533 92.1936 49.9022 92.041 49.8939 91.8602C49.8856 91.6799 50.0251 91.5268 50.2054 91.519C52.8779 91.396 55.567 91.0622 58.1977 90.5271C60.3215 90.095 61.8947 89.6304 63.2983 89.02C64.9191 88.3148 66.4869 87.3909 68.0037 86.4977C68.3711 86.2814 68.7381 86.0646 69.1055 85.8522C69.7903 85.4547 70.4906 85.0479 71.1316 84.5896C72.6751 83.4854 74.1584 81.9497 75.5401 80.0251C75.6203 79.9133 75.7617 79.8642 75.8944 79.9012L79.1321 80.8134C79.2269 80.8401 79.3047 80.9087 79.344 80.9986C79.3829 81.089 79.379 81.1925 79.3333 81.28C79.1691 81.5934 79.0131 81.9186 78.8566 82.2447C78.5762 82.8293 78.286 83.4339 77.9424 83.9821C77.5104 84.6713 76.8411 85.2967 76.2507 85.8493C76.1194 85.9718 75.9911 86.0918 75.8682 86.2099C73.3021 88.6715 69.835 90.6734 65.5616 92.1596C61.1001 93.7114 56.0462 94.4982 50.5393 94.4982Z" fill="#02020C"/>
<path d="M98.8594 100.35C98.7452 100.35 98.6349 100.29 98.5746 100.183C97.6541 98.5514 96.9966 96.7741 96.3609 95.0556C96.0537 94.225 95.7364 93.3667 95.3938 92.5391C94.0971 89.4039 92.6235 87.3559 90.7563 86.0937C89.7921 85.4415 88.7171 85.0046 87.7932 84.6635C84.7606 83.5437 81.7245 82.8808 78.6214 82.2456C78.4445 82.2096 78.3308 82.0366 78.3667 81.8602C78.4027 81.6823 78.5772 81.5701 78.7526 81.6055C81.8815 82.2456 84.9443 82.9143 88.0197 84.0506C88.9805 84.4054 90.1002 84.8612 91.1223 85.5519C93.1008 86.8898 94.6502 89.0302 95.9978 92.2893C96.3444 93.1281 96.6646 93.9927 96.9737 94.8286C97.6007 96.5228 98.249 98.2753 99.1442 99.8621C99.2327 100.02 99.1773 100.219 99.0198 100.307C98.9693 100.336 98.9143 100.35 98.8594 100.35Z" fill="#02020C"/>
<path d="M40.7921 62.9573L40.5816 77.0411C40.5797 77.1816 40.464 77.2938 40.3236 77.2919C40.186 77.2899 40.0752 77.1782 40.0733 77.0411L39.8628 62.9573C39.859 62.7007 40.0641 62.4893 40.3207 62.4854C40.5773 62.4815 40.7887 62.6866 40.7926 62.9432C40.7921 62.9476 40.7921 62.9534 40.7921 62.9573Z" fill="#02020C"/>
<path d="M26.1678 80.7688C28.8156 80.1627 31.4473 79.4187 33.8321 78.1458C36.2227 76.8856 38.261 75.0447 40.2599 73.1925C40.3406 73.1177 40.4669 73.1225 40.5418 73.2032C40.6161 73.2834 40.6118 73.4078 40.533 73.4832C38.5613 75.3664 36.5269 77.2696 34.0828 78.6085C31.6519 79.9547 28.9784 80.7523 26.318 81.4054C26.1426 81.4487 25.9657 81.3413 25.9229 81.1658C25.8797 80.9904 25.987 80.8135 26.1625 80.7707C26.1635 80.7698 26.1669 80.7688 26.1678 80.7688Z" fill="#02020C"/>
<path d="M50.8149 94.4981C45.3081 94.4981 40.2537 93.7113 35.7932 92.1595C31.5203 90.6728 28.0526 88.6715 25.4866 86.2099C25.3636 86.0918 25.2353 85.9717 25.1041 85.8493C24.5136 85.2972 23.8439 84.6712 23.4123 83.982C23.0682 83.4338 22.7781 82.8293 22.4977 82.2441C22.3412 81.9175 22.1852 81.5924 22.0209 81.2799C21.9752 81.1924 21.9708 81.0894 22.0102 80.9985C22.0491 80.9081 22.1268 80.8396 22.2216 80.8133L25.4598 79.9011C25.5925 79.8647 25.7339 79.9133 25.8141 80.025C27.1958 81.9496 28.6791 83.4854 30.2231 84.5895C30.8637 85.0478 31.564 85.4541 32.241 85.8473C32.6162 86.0646 32.9831 86.2808 33.3505 86.4976C34.8673 87.3908 36.4356 88.3147 38.0565 89.0199C39.46 89.6303 41.0332 90.0954 43.157 90.527C45.7878 91.0621 48.4768 91.396 51.1493 91.5189C51.3296 91.5272 51.4691 91.6798 51.4608 91.8601C51.4531 92.0409 51.3116 92.1945 51.1192 92.1716C48.4131 92.0472 45.6906 91.709 43.0268 91.1671C40.8563 90.7263 39.2428 90.2485 37.7955 89.6192C36.1382 88.8979 34.5524 87.9634 33.0186 87.0604C32.6526 86.8451 32.2872 86.6293 31.9207 86.4169C31.2223 86.0116 30.5084 85.597 29.8426 85.1212C28.2908 84.0112 26.8031 82.4881 25.4175 80.5917L22.7825 81.3338C22.885 81.5409 22.9861 81.7503 23.0867 81.9608C23.3593 82.5289 23.6412 83.117 23.9659 83.6341C24.3527 84.2508 24.9617 84.8204 25.5507 85.371C25.6839 85.4954 25.8141 85.6174 25.939 85.7375C28.4366 88.1335 31.824 90.0862 36.0075 91.5413C40.3995 93.0693 45.3815 93.844 50.8149 93.844C50.9952 93.844 51.142 93.9902 51.142 94.171C51.142 94.3518 50.9952 94.4981 50.8149 94.4981Z" fill="#02020C"/>
<path d="M2.49486 100.35C2.44043 100.35 2.38551 100.336 2.33448 100.307C2.17701 100.219 2.12161 100.02 2.21006 99.8621C3.10479 98.2753 3.7531 96.5233 4.38004 94.8291C4.68914 93.9927 5.00894 93.1286 5.35594 92.2893C6.70362 89.0301 8.25298 86.8893 10.2315 85.5518C11.254 84.8612 12.3738 84.4054 13.3346 84.0506C16.4095 82.9143 19.4728 82.2456 22.6016 81.6055C22.7786 81.5696 22.9516 81.6833 22.9875 81.8602C23.024 82.0371 22.9098 82.2096 22.7329 82.2456C19.6298 82.8808 16.5932 83.5437 13.5611 84.6634C12.6372 85.0046 11.5626 85.4415 10.5979 86.0937C8.73072 87.3559 7.25717 89.4039 5.96052 92.5391C5.61838 93.3667 5.30054 94.2255 4.99339 95.056C4.3577 96.7745 3.70062 98.5518 2.78014 100.183C2.71939 100.29 2.60858 100.35 2.49486 100.35Z" fill="#02020C"/>
<path d="M67.1402 38.353C66.1269 37.7037 65.1568 37.1783 64.1425 36.8051C63.9025 36.7147 63.6055 36.6087 63.3732 36.5319C63.1331 36.4571 62.9368 36.4148 62.7876 36.4192C62.6243 36.4187 62.5883 36.4357 62.2442 36.5485C61.9682 36.6413 61.6941 36.72 61.4107 36.8056C60.2813 37.1453 59.1333 37.4238 57.9781 37.6774L56.2455 38.0585C55.6667 38.1805 55.0932 38.3219 54.5022 38.405L54.7671 38.2232C54.4191 38.5532 54.0576 38.8725 53.6304 39.1418C53.5404 39.1986 53.4214 39.1714 53.3645 39.0815C53.3334 39.0319 53.3276 38.9731 53.3436 38.9216C53.4938 38.4395 53.7101 38.0079 53.9394 37.587C53.9681 37.5346 54.0114 37.4957 54.0619 37.4719L54.2043 37.4048C54.7443 37.1511 55.3012 36.9557 55.8528 36.7409L57.5116 36.1116C58.6172 35.6916 59.7306 35.297 60.862 34.9631C61.1439 34.8805 61.435 34.7896 61.7237 34.7133C61.8778 34.674 61.9769 34.6356 62.2355 34.586C62.4615 34.5461 62.6943 34.5384 62.913 34.5578C63.3538 34.602 63.7285 34.7362 64.0342 34.8815C64.3481 35.0278 64.5872 35.1682 64.8764 35.3378C65.9743 36.0158 66.9001 36.9727 67.4167 38.1197C67.4595 38.2145 67.4172 38.3258 67.3224 38.3685C67.2627 38.3953 67.1961 38.3885 67.1446 38.3559L67.1402 38.353Z" fill="#02020C"/>
<path d="M34.3406 34.7561C34.8567 33.6092 35.783 32.6518 36.8809 31.9738C37.1701 31.8042 37.4097 31.6637 37.7232 31.5174C38.0289 31.3721 38.4036 31.238 38.8444 31.1938C39.0635 31.1738 39.2959 31.1816 39.5218 31.2219C39.7804 31.272 39.8795 31.3099 40.0336 31.3493C40.3223 31.4256 40.6134 31.517 40.8953 31.5991C42.0267 31.933 43.1396 32.3276 44.2458 32.7475L45.9045 33.3769C46.4561 33.5917 47.013 33.7871 47.553 34.0408L47.6954 34.1078C47.7493 34.1331 47.7911 34.1744 47.8179 34.223C48.0477 34.6439 48.2635 35.0754 48.4137 35.5576C48.4453 35.6591 48.3884 35.767 48.2873 35.7991C48.2315 35.8166 48.1731 35.8069 48.1274 35.7782C47.7003 35.5094 47.3382 35.1897 46.9907 34.8597L47.2556 35.0414C46.6651 34.9583 46.0916 34.8169 45.5123 34.6949L43.7797 34.3139C42.6245 34.0602 41.4765 33.7817 40.3471 33.442C40.0637 33.3565 39.7896 33.2777 39.5136 33.1849C39.169 33.0722 39.133 33.0551 38.9698 33.0556C38.8206 33.0517 38.6242 33.0935 38.3841 33.1684C38.1518 33.2452 37.8549 33.3511 37.6148 33.4415C36.6005 33.8148 35.6304 34.3401 34.6171 34.9889L34.6142 34.9909C34.5267 35.0468 34.4106 35.0215 34.3542 34.934C34.3182 34.8796 34.3158 34.812 34.3406 34.7561Z" fill="#02020C"/>
<path d="M75.8056 80.2161L78.7639 80.8605C78.7639 80.8605 77.0211 88.9927 61.9911 92.5507C61.9911 92.5507 71.2853 89.0656 73.4636 85.1446C73.4636 85.1446 56.8356 98.9407 32.729 87.9036C32.729 87.9036 28.2053 86.6507 24.5686 80.1859L25.5489 80.2161C25.5489 80.2161 32.4073 87.4589 35.0745 87.9439C35.0745 87.9439 46.6218 94.156 58.263 90.8478C58.263 90.8478 69.3433 88.6501 75.8056 80.2161Z" fill="#02020C"/>
<path d="M87.0643 100.361C86.9987 100.361 86.9423 100.313 86.9335 100.246C86.275 95.094 87.7218 89.783 90.9027 85.6753C90.9469 85.6175 91.0295 85.6078 91.0874 85.652C91.1447 85.6967 91.1554 85.7793 91.1107 85.8367C87.9726 89.8894 86.5447 95.129 87.195 100.213C87.2042 100.284 87.1532 100.351 87.0808 100.36C87.0754 100.361 87.0701 100.361 87.0643 100.361Z" fill="#02020C"/>
<path d="M14.6605 100.361C14.6547 100.361 14.6493 100.361 14.6435 100.36C14.5716 100.351 14.5201 100.285 14.5293 100.213C15.1791 95.129 13.7517 89.8894 10.6131 85.8371C10.5684 85.7793 10.5791 85.6972 10.6364 85.6525C10.6938 85.6082 10.7764 85.6184 10.8211 85.6758C14.002 89.783 15.4488 95.0935 14.7903 100.247C14.7825 100.313 14.7261 100.361 14.6605 100.361Z" fill="#02020C"/>
<path d="M72.6295 25.7899C72.5367 25.0439 72.421 24.309 72.2179 23.6107C72.0186 22.9045 71.7192 22.2805 71.2755 21.7041C71.2609 21.6856 71.2488 21.6657 71.2391 21.6453L71.2327 21.6317C70.1553 19.3688 68.6288 17.3218 66.7713 15.632C64.9021 13.9543 62.752 12.5935 60.4426 11.5958C55.8042 9.62794 50.5739 9.15361 45.6269 10.0712C40.677 10.9776 35.9953 13.4839 32.6652 17.2591C32.4572 17.4943 32.2716 17.748 32.0738 17.991C31.8857 18.2418 31.6675 18.4712 31.5037 18.7395C31.163 19.2658 30.782 19.7683 30.5001 20.3297L30.0452 21.1529L29.6608 22.0171C29.3949 22.5978 29.1529 23.1572 29.0003 23.756C28.264 26.1758 28.0862 28.7234 28.4881 31.2059L28.4925 31.2462C28.6557 34.4101 29.0552 37.5681 29.5699 40.7052C30.0914 43.8404 30.7149 46.9673 31.4566 50.0544L31.4488 50.0282C32.1904 52.1248 33.2684 54.0979 34.53 55.9403C35.8116 57.7711 37.273 59.4828 38.888 61.0331C39.2924 61.4205 39.7016 61.7991 40.1331 62.1543L40.778 62.6894L41.4478 63.1885C42.3561 63.8349 43.3184 64.4084 44.3108 64.926C46.299 65.9529 48.4 66.7825 50.553 67.4012L50.5573 67.4027H50.4597C52.6365 66.7903 54.7656 65.9879 56.7859 64.9809C57.7944 64.4745 58.7746 63.9122 59.7 63.2731L60.3789 62.775C60.6029 62.6058 60.8149 62.4192 61.0336 62.2423C61.4724 61.8861 61.8855 61.508 62.2967 61.1196C63.9325 59.5635 65.4129 57.8426 66.71 55.9977C67.9902 54.1436 69.0735 52.1495 69.8219 50.0345L69.8146 50.0593C70.7618 46.0736 71.5618 42.0417 72.1148 37.9841C72.3899 35.9555 72.6052 33.9158 72.7355 31.8765C72.8609 29.8407 72.8774 27.798 72.6295 25.7899ZM73.3843 25.6995C73.6244 27.7762 73.5898 29.8626 73.447 31.9242C73.2997 33.9858 73.0674 36.0352 72.7748 38.0769C72.1868 42.1613 71.3543 46.1965 70.3711 50.2007L70.3638 50.2255C69.5779 52.3959 68.4543 54.4235 67.1382 56.2995C65.8051 58.1662 64.2917 59.8974 62.6203 61.4642C62.2019 61.8535 61.7723 62.2404 61.3256 62.5976C61.1011 62.7764 60.8839 62.964 60.653 63.1356L59.9532 63.641C59.0016 64.2874 57.9999 64.8521 56.973 65.3581C54.9153 66.3646 52.7623 67.1567 50.5568 67.7594C50.5238 67.7686 50.4898 67.7676 50.4587 67.7594L50.4543 67.7579C48.2654 67.1519 46.1401 66.3378 44.1096 65.3148C43.0968 64.7996 42.1107 64.2257 41.1741 63.573L40.4821 63.068L39.8192 62.529C39.3764 62.1714 38.9526 61.7879 38.539 61.3991C36.8837 59.8405 35.3839 58.1205 34.0596 56.2679C32.7576 54.4012 31.6451 52.3872 30.8675 50.2308L30.8598 50.2041C30.0938 47.0947 29.4518 43.9672 28.909 40.8151C28.3739 37.6633 27.952 34.4868 27.7688 31.2817L27.7732 31.322C27.3363 28.7443 27.5151 26.0445 28.2587 23.5548C28.3437 23.235 28.4443 22.9147 28.5639 22.6012C28.6864 22.281 28.8181 22.0044 28.9488 21.6987L29.3415 20.804L29.811 19.9414C30.104 19.3538 30.4957 18.827 30.8496 18.2763C31.0197 17.9954 31.2442 17.7548 31.4391 17.4924C31.6437 17.2377 31.8366 16.9724 32.0514 16.7265C35.4962 12.7753 40.3363 10.1562 45.4563 9.18666C50.5739 8.18841 55.9898 8.71426 60.7988 10.7642C63.1929 11.8052 65.4304 13.2219 67.3584 14.9929C69.2776 16.7702 70.8556 18.9212 71.9608 21.2983L71.918 21.2263C72.1542 21.5481 72.3724 21.8912 72.5508 22.2615C72.7272 22.6348 72.8599 23.0109 72.9683 23.3944C73.1831 24.1618 73.2963 24.9365 73.3843 25.6995Z" fill="#02020C"/>
<path d="M74.4545 20.891C74.3626 20.2417 74.0671 19.6396 73.7468 19.0676C71.5769 15.1907 68.0908 12.1367 64.1372 10.1096C60.219 8.10098 54.8118 7.05802 50.4077 6.66145V6.64978C50.3887 6.65124 50.3693 6.65415 50.3503 6.65561C50.3294 6.65367 50.3076 6.65124 50.2867 6.64978V6.66242C45.8961 7.05948 41.2422 8.10098 37.3246 10.1096C33.3709 12.1362 29.8849 15.1907 27.7149 19.0676C27.3946 19.6401 27.0991 20.2417 27.0073 20.891C26.9319 21.4256 26.9975 21.9685 27.0636 22.5046C27.2877 24.3164 27.5258 26.1262 27.7674 27.9356C27.7022 29.3149 27.6551 30.7384 27.8116 32.0885C28.0099 33.7982 28.3914 35.5089 28.6946 37.2031C28.9994 38.9046 29.3143 40.6042 29.6399 42.3018C29.7454 42.8505 29.8878 43.4201 30.0311 43.996C30.0637 44.2394 30.0943 44.4829 30.1201 44.7269C30.1784 45.2737 29.948 46.0877 30.5312 46.357C30.574 46.6583 30.6085 46.9576 30.6202 47.2507C30.6095 46.9635 30.6066 46.6753 30.6007 46.3871C30.6416 46.4012 30.6848 46.4138 30.7329 46.4235C30.9166 45.7174 30.8165 44.9116 30.7786 44.1879C30.7499 43.6417 30.7315 43.0949 30.7145 42.5482C30.8962 40.3582 31.2913 38.1936 32.014 36.1208C33.2524 32.5696 35.4928 29.2911 38.6572 27.2586C39.9504 26.428 41.37 25.8181 42.7692 25.1814C44.4717 24.4072 46.1532 23.5883 47.8129 22.7257C48.6906 22.2693 49.6097 21.7255 50.242 20.9941C50.3489 22.1177 50.6283 23.0523 51.0949 23.8182C51.5289 24.5312 52.1534 25.1727 53.0593 25.8361C54.9989 27.2572 57.2899 28.114 59.5056 28.9421C61.5541 29.7081 63.6726 30.4997 65.4897 31.7337C66.7737 32.6061 67.9027 33.7146 68.8271 34.9719C68.9855 35.351 69.1347 35.7335 69.2693 36.1203C70.1845 38.7447 70.5835 41.5164 70.6734 44.3007C70.636 44.9305 70.5689 45.6119 70.686 46.2335C70.6807 46.5727 70.6763 46.912 70.6632 47.2502C70.6734 46.9766 70.7152 46.6952 70.7701 46.4109C71.5511 46.2209 71.276 45.3174 71.3392 44.7264C71.451 43.6781 71.6366 42.6323 71.7853 41.5888C71.7902 41.5538 71.7956 41.5183 71.8004 41.4833C71.8014 41.478 71.8024 41.4727 71.8038 41.4673C72.179 39.4907 72.5396 37.5118 72.8861 35.5298C73.483 32.1157 73.9792 28.7268 74.0385 25.2641C74.157 24.3441 74.2824 23.425 74.3961 22.5046C74.4637 21.9685 74.5298 21.4252 74.4545 20.891ZM65.7133 31.4076C63.8567 30.1469 61.7159 29.3465 59.6456 28.5723C57.4552 27.7529 55.1899 26.9063 53.294 25.5178C52.4314 24.8855 51.8404 24.2799 51.4336 23.6122C50.9301 22.785 50.6623 21.7765 50.6026 20.4974C50.6162 20.4745 50.6308 20.4522 50.6439 20.4293C51.2276 21.4597 52.3833 22.1585 53.4729 22.7247C55.1321 23.5874 56.8141 24.4063 58.5166 25.1805C59.9158 25.8171 61.3354 26.4271 62.6286 27.2576C65.0047 28.7837 66.8593 31.012 68.1603 33.5309C67.4259 32.7319 66.6061 32.0141 65.7133 31.4076Z" fill="#02020C"/>
</g>
<defs>
<clipPath id="clip0_2728_697">
<rect width="100" height="100" fill="white"/>
</clipPath>
</defs>
</svg>
