<svg width="100" height="100" viewBox="0 0 100 100" fill="none" xmlns="http://www.w3.org/2000/svg">
<g clip-path="url(#clip0_2728_835)">
<rect width="100" height="100" fill="white"/>
<path d="M75.2042 42.4427C75.1396 42.1905 75.0521 41.9431 74.9525 41.7006C74.8577 41.4673 74.7308 41.1844 74.4669 40.9764C74.2089 40.7723 73.8862 40.6994 73.596 40.7004C73.302 40.7013 73.0216 40.765 72.7596 40.871C72.2916 41.0595 71.8848 41.354 71.531 41.6821C71.5373 41.6194 71.5441 41.5572 71.5509 41.494C71.5898 41.077 71.6185 40.66 71.6375 40.2426C71.7142 38.5732 71.6326 36.8989 71.4032 35.2407C71.1748 33.5829 70.7651 31.9436 70.1595 30.3734C69.5491 28.806 68.7321 27.3106 67.7043 25.9687C66.6734 24.6308 65.4385 23.4474 64.0515 22.488C62.6571 21.5364 61.1301 20.8118 59.5584 20.2417C58.7594 19.9963 57.9692 19.7212 57.1503 19.5613L56.5413 19.4218C56.3387 19.3742 56.136 19.3256 55.929 19.3018L54.6955 19.12C54.4899 19.0928 54.2853 19.053 54.0788 19.0364L53.4586 18.9873L52.2193 18.8897C52.0055 18.8668 51.8281 18.8761 51.6337 18.8727L51.0583 18.8785L49.8773 18.9072C49.9113 18.9373 49.9366 18.9966 49.9351 19.0418L49.7378 18.8459C49.6581 18.8479 49.5784 18.8484 49.4987 18.8464L49.3019 18.842V18.8532C46.0675 18.9047 42.8123 19.331 39.7374 20.407C38.1851 20.9902 36.6824 21.7206 35.308 22.6635C33.9384 23.6116 32.7234 24.7819 31.7053 26.1014C29.6626 28.7501 28.4797 31.9835 28.0019 35.2649C27.7648 36.9101 27.6734 38.5751 27.74 40.2362C27.7657 40.7971 27.7998 41.3526 27.8634 41.912C27.8173 41.8648 27.7725 41.8172 27.7249 41.771C27.3497 41.4075 26.9109 41.0756 26.4006 40.87C26.1386 40.7645 25.8582 40.7004 25.5642 40.6994C25.274 40.6984 24.9513 40.7713 24.6932 40.9754C24.4294 41.1835 24.3025 41.4663 24.2077 41.6996C24.1076 41.9421 24.0206 42.1895 23.956 42.4417C23.6897 43.454 23.7057 44.4985 23.8204 45.5011C23.9366 46.5086 24.1494 47.4859 24.3642 48.4613L24.6743 49.9276C24.7798 50.416 24.8726 50.9059 24.9975 51.3924C25.2405 52.3634 25.537 53.3446 26.0492 54.236C26.3048 54.6792 26.6232 55.0942 26.9731 55.4587C27.1471 55.6434 27.3225 55.8193 27.4989 55.9977C27.6773 56.1756 27.8634 56.3544 28.0758 56.5114C28.4933 56.8225 29.0517 57.0514 29.6325 56.9128C29.7749 56.8798 29.9197 56.8152 30.0368 56.7408C30.1544 56.6664 30.2599 56.5945 30.3556 56.5386C30.4519 56.4803 30.5369 56.455 30.6176 56.4463C30.6988 56.4395 30.7478 56.4686 30.7546 56.4963L30.8115 56.3807L31.4948 59.6344L32.0095 62.0479C32.1932 62.8858 32.5324 63.6882 33.0053 64.4021C33.243 64.7583 33.5132 65.0922 33.8116 65.3984C33.9389 65.5316 34.0745 65.6565 34.2135 65.7775C34.2111 65.7911 34.2057 65.8032 34.2057 65.8173C34.2062 67.3307 34.2402 68.8412 34.2684 70.3522L34.3768 74.8841C34.3953 75.8469 34.4113 76.8092 34.4239 77.772L33.7047 78.6963C33.4029 79.0774 33.1015 79.4564 32.7881 79.8258C32.477 80.1971 32.1577 80.5616 31.836 80.9266C31.5128 81.2906 31.1848 81.6517 30.863 82.0313L31.0676 82.2747C31.0856 82.2641 31.1031 82.2519 31.1211 82.2412C33.3324 83.9947 49.6192 95.9168 67.6736 82.2057C67.6955 82.2189 67.7164 82.2334 67.7383 82.2466L67.9434 82.0036C67.6255 81.6255 67.3009 81.2663 66.9811 80.9042C66.6628 80.5412 66.3464 80.1791 66.0383 79.8098C65.7277 79.4428 65.4288 79.0662 65.1294 78.6881L64.3557 77.6942C64.3907 76.6347 64.4495 75.5762 64.5253 74.5187C64.6352 72.9829 64.7965 71.4476 64.8407 69.9051C64.9093 68.3995 64.9963 66.9045 65.3433 65.4567C65.3661 65.4339 65.3904 65.412 65.4128 65.3887C65.7117 65.084 65.9824 64.7511 66.2205 64.3963C66.6944 63.6848 67.0355 62.8843 67.2212 62.0469L67.7431 59.6349L68.4274 56.4696C68.4503 56.4536 68.4887 56.4414 68.5421 56.4458C68.6228 56.4545 68.7074 56.4798 68.8041 56.5381C68.8998 56.594 69.0053 56.6664 69.1229 56.7403C69.24 56.8147 69.3848 56.8793 69.5272 56.9124C70.1075 57.0509 70.6664 56.822 71.0839 56.5109C71.2963 56.3539 71.4824 56.1751 71.6608 55.9972C71.8372 55.8189 72.0127 55.6429 72.1866 55.4582C72.5366 55.0937 72.8549 54.6787 73.1105 54.2355C73.6228 53.3441 73.9187 52.3629 74.1622 51.3919C74.2876 50.9054 74.3799 50.4155 74.4854 49.9271L74.7955 48.4608C75.0103 47.4854 75.2227 46.5081 75.3393 45.5006C75.4545 44.4989 75.4705 43.455 75.2042 42.4427Z" fill="#F9BF9A"/>
<path d="M64.8199 65.6725C64.8199 65.6725 61.5944 85.4211 45.2983 82.4147C45.2983 82.4147 37.7566 80.9543 35.102 73.2711L34.4697 65.9344C34.4697 65.9344 40.0748 70.3872 40.9598 71.0807C41.8448 71.7742 46.4681 75.0751 49.3122 75.2481C49.3122 75.2481 53.6847 75.2166 59.8885 69.5853L64.8199 65.6725Z" fill="#BF7D5D"/>
<path d="M24.5303 43.8444C25.307 43.4891 26.5341 44.205 26.9812 44.9174C27.457 45.6761 27.5693 46.6058 27.5771 47.501C27.5853 48.3962 27.5017 49.2983 27.6354 50.1833C27.8118 51.3502 28.3571 52.431 28.9952 53.4239C29.6333 54.4168 30.3706 55.3441 30.9902 56.3487C30.5174 54.3906 30.2953 52.3931 29.8248 50.4306C29.3466 48.4366 28.7828 46.462 28.3892 44.448C28.2064 43.5134 28.0363 42.5195 27.4109 41.8012C26.9341 41.254 26.2133 40.9269 25.4873 40.9293C25.3177 40.9298 25.1388 40.9507 25.0018 41.0513C24.888 41.1349 24.8171 41.2627 24.7534 41.3886C24.3369 42.209 23.7668 43.5882 23.9714 44.5253C24.0886 44.1714 24.2873 43.9557 24.5303 43.8444Z" fill="#BF7D5D"/>
<path d="M74.3747 43.8444C73.5981 43.4891 72.3709 44.205 71.9238 44.9174C71.448 45.6761 71.3358 46.6058 71.328 47.501C71.3197 48.3962 71.4033 49.2983 71.2692 50.1833C71.0932 51.3502 70.5475 52.431 69.9093 53.4239C69.2712 54.4168 68.534 55.3441 67.9143 56.3487C68.3872 54.3906 68.6093 52.3931 69.0797 50.4306C69.558 48.4366 70.1212 46.462 70.5154 44.448C70.6981 43.5134 70.8682 42.5195 71.4937 41.8012C71.9705 41.254 72.6912 40.9269 73.4173 40.9293C73.5869 40.9298 73.7657 40.9507 73.9028 41.0513C74.0165 41.1349 74.0875 41.2627 74.1511 41.3886C74.5677 42.209 75.1377 43.5882 74.9331 44.5253C74.816 44.1714 74.6172 43.9557 74.3747 43.8444Z" fill="#BF7D5D"/>
<path d="M45.4343 41.3254C45.7954 42.1264 45.6671 43.6126 45.8003 43.8653C45.9772 44.2016 45.9558 44.448 45.9767 44.8154C46.0501 46.1271 46.1167 47.4388 46.1808 48.7506C46.2348 49.8601 46.296 50.7757 46.5696 52.2352C46.5696 52.2352 46.937 49.7435 47.0333 46.9801C47.0984 45.1085 47.0512 43.1227 47.0095 41.9456L45.4343 41.3254Z" fill="#BF7D5D"/>
<path d="M47.0089 41.946L46.7795 41.0061L37.5441 37.8821L33.0977 40.2309L37.4984 39.2502L47.0089 41.946Z" fill="#BF7D5D"/>
<path d="M48.8391 69.0692L50.9134 67.9708L50.5717 69.6791L49.155 69.7909L48.8391 69.0692Z" fill="#BF7D5D"/>
<path d="M52.2879 59.8639C52.2879 59.8639 51.3728 59.9664 51.1147 59.8129L49.7189 60.0165L48.3226 59.8129C48.0645 59.9669 47.1494 59.8639 47.1494 59.8639C48.6866 61.2563 49.6071 61.076 49.7184 61.0468C49.8302 61.076 50.7507 61.2563 52.2879 59.8639Z" fill="#BF7D5D"/>
<path d="M51.6824 41.8726L54.5099 40.9603L60.9635 39.4324L63.585 39.8357L65.6976 40.3387L63.0621 39.0183L61.3965 37.8135L53.4592 39.5339L51.6824 41.8726Z" fill="#BF7D5D"/>
<path d="M56.6837 53.5328C56.6837 53.7004 56.5476 53.837 56.3794 53.837C56.2113 53.837 56.0752 53.7009 56.0752 53.5328C56.0752 53.3646 56.2113 53.2285 56.3794 53.2285C56.5476 53.2285 56.6837 53.3651 56.6837 53.5328Z" fill="#BF7D5D"/>
<path d="M59.6634 53.4113C59.6634 53.5795 59.5273 53.7155 59.3592 53.7155C59.1915 53.7155 59.0549 53.5795 59.0549 53.4113C59.0549 53.2436 59.191 53.1071 59.3592 53.1071C59.5273 53.1071 59.6634 53.2431 59.6634 53.4113Z" fill="#BF7D5D"/>
<path d="M56.6228 55.661C56.6228 55.7616 56.5412 55.8433 56.4406 55.8433C56.3399 55.8433 56.2583 55.7616 56.2583 55.661C56.2583 55.5604 56.3399 55.4788 56.4406 55.4788C56.5412 55.4788 56.6228 55.5604 56.6228 55.661Z" fill="#BF7D5D"/>
<path d="M58.5384 55.5395C58.6224 55.5395 58.6905 55.4714 58.6905 55.3873C58.6905 55.3033 58.6224 55.2352 58.5384 55.2352C58.4543 55.2352 58.3862 55.3033 58.3862 55.3873C58.3862 55.4714 58.4543 55.5395 58.5384 55.5395Z" fill="#BF7D5D"/>
<path d="M58.2039 51.891C58.2039 51.9581 58.1495 52.0125 58.0824 52.0125C58.0154 52.0125 57.9609 51.9581 57.9609 51.891C57.9609 51.824 58.0154 51.7695 58.0824 51.7695C58.1495 51.7695 58.2039 51.824 58.2039 51.891Z" fill="#BF7D5D"/>
<path d="M61.9436 51.1611C62.0611 51.1611 62.1565 51.0658 62.1565 50.9482C62.1565 50.8307 62.0611 50.7354 61.9436 50.7354C61.826 50.7354 61.7307 50.8307 61.7307 50.9482C61.7307 51.0658 61.826 51.1611 61.9436 51.1611Z" fill="#BF7D5D"/>
<path d="M59.846 56.6946C59.846 56.8628 59.7099 56.9989 59.5418 56.9989C59.3736 56.9989 59.2375 56.8628 59.2375 56.6946C59.2375 56.527 59.3736 56.3904 59.5418 56.3904C59.7095 56.3909 59.846 56.527 59.846 56.6946Z" fill="#BF7D5D"/>
<path d="M43.7417 53.5328C43.7417 53.7004 43.8778 53.837 44.0459 53.837C44.2141 53.837 44.3502 53.7009 44.3502 53.5328C44.3502 53.3646 44.2141 53.2285 44.0459 53.2285C43.8783 53.2285 43.7417 53.3651 43.7417 53.5328Z" fill="#BF7D5D"/>
<path d="M41.0662 53.7155C41.2342 53.7155 41.3704 53.5793 41.3704 53.4113C41.3704 53.2433 41.2342 53.1071 41.0662 53.1071C40.8982 53.1071 40.762 53.2433 40.762 53.4113C40.762 53.5793 40.8982 53.7155 41.0662 53.7155Z" fill="#BF7D5D"/>
<path d="M43.803 55.661C43.803 55.7616 43.8846 55.8433 43.9852 55.8433C44.0858 55.8433 44.1675 55.7616 44.1675 55.661C44.1675 55.5604 44.0858 55.4788 43.9852 55.4788C43.8846 55.4788 43.803 55.5604 43.803 55.661Z" fill="#BF7D5D"/>
<path d="M41.887 55.5395C41.971 55.5395 42.0391 55.4714 42.0391 55.3873C42.0391 55.3033 41.971 55.2352 41.887 55.2352C41.803 55.2352 41.7349 55.3033 41.7349 55.3873C41.7349 55.4714 41.803 55.5395 41.887 55.5395Z" fill="#BF7D5D"/>
<path d="M42.2214 51.891C42.2214 51.9581 42.2759 52.0125 42.3429 52.0125C42.41 52.0125 42.4644 51.9581 42.4644 51.891C42.4644 51.824 42.41 51.7695 42.3429 51.7695C42.2759 51.7695 42.2214 51.824 42.2214 51.891Z" fill="#BF7D5D"/>
<path d="M38.4817 51.1611C38.5992 51.1611 38.6945 51.0658 38.6945 50.9482C38.6945 50.8307 38.5992 50.7354 38.4817 50.7354C38.3641 50.7354 38.2688 50.8307 38.2688 50.9482C38.2688 51.0658 38.3641 51.1611 38.4817 51.1611Z" fill="#BF7D5D"/>
<path d="M40.8841 56.9989C41.0521 56.9989 41.1883 56.8626 41.1883 56.6946C41.1883 56.5266 41.0521 56.3904 40.8841 56.3904C40.716 56.3904 40.5798 56.5266 40.5798 56.6946C40.5798 56.8626 40.716 56.9989 40.8841 56.9989Z" fill="#BF7D5D"/>
<path d="M68.6272 80.3599L71.4003 82.4395L71.6603 84.086C71.6603 84.086 77.5525 87.2922 78.8526 87.6387C80.1526 87.9852 91.5041 91.6249 92.3707 91.9714C93.2372 92.3179 96.6169 93.9645 97.0499 95.351C97.4834 96.7376 99.303 103.93 99.303 103.93H-0.348877C-0.348877 103.93 1.81771 96.1311 2.59725 95.178C3.37728 94.225 5.37037 92.0584 9.26955 91.2788C13.1687 90.4988 20.2745 87.8127 21.0546 87.3796C21.8346 86.9461 26.9468 84.347 26.9468 84.347L27.2068 83.0474L28.2469 81.9209L29.8934 80.5343L30.8465 82.0074C30.8465 82.0074 37.4323 86.5131 49.3903 86.3401C49.3903 86.3401 59.4423 86.5136 67.6741 82.0939L68.6272 80.3599Z" fill="#363F20"/>
<path d="M29.5604 103.433C26.3976 103.292 23.2133 102.84 20.2744 101.662C18.4335 100.924 16.628 99.8295 15.6467 98.1057C15.1389 97.2139 14.8828 96.2001 14.7875 95.1839C14.7442 94.7217 14.6801 94.3018 14.8235 93.8595C14.9693 93.409 15.1442 92.9667 15.3396 92.5352C15.8562 91.394 16.5332 90.3258 17.3448 89.3718C17.7244 88.9256 18.1808 88.3172 18.6847 88.0086C19.214 87.6844 20.0057 87.5921 20.5996 87.3865C22.8201 86.6162 24.9405 85.5557 26.8865 84.2377C32.5119 88.0727 38.9218 90.9897 45.7039 91.5904C53.615 92.2912 61.546 89.7907 68.4754 85.9105C69.3366 85.4284 70.1876 84.9283 71.0328 84.4185C71.2194 84.3062 71.7073 83.9291 71.91 84.263C72.047 84.4885 71.6529 84.9565 71.5329 85.1193C70.5254 86.4879 69.0572 87.6897 67.7892 88.81C66.4381 90.0041 65.0214 91.1233 63.5488 92.1639C57.7494 96.2623 48.4235 101.074 41.464 102.487C37.5537 103.281 33.5476 103.611 29.5604 103.433Z" fill="#232818"/>
<path d="M85.0515 90.7025C86.4735 92.1799 88.4535 92.9609 90.3815 93.6588C90.7474 93.7915 91.1148 93.9227 91.4959 94.0014C92.8047 94.2726 94.1868 93.911 95.4893 94.2104C95.6857 94.2556 95.9034 94.3368 95.9773 94.5244C93.9997 93.2933 93.0127 92.2645 90.8621 91.3693C89.7871 90.9217 87.6025 90.4779 86.4944 90.1188C85.5069 89.7985 84.2588 89.2479 83.2285 89.2372C83.9779 89.6051 84.4717 90.1003 85.0515 90.7025Z" fill="#232818"/>
<path d="M13.3689 90.7025C11.9468 92.1799 9.96687 92.9609 8.03891 93.6588C7.67295 93.7915 7.30553 93.9227 6.92451 94.0014C5.61571 94.2726 4.23354 93.911 2.93106 94.2104C2.73471 94.2556 2.51699 94.3368 2.44312 94.5244C4.42065 93.2933 6.49878 92.2246 8.64933 91.3294C9.72436 90.8818 10.8179 90.4779 11.9259 90.1188C12.9135 89.7985 14.1615 89.2479 15.1919 89.2372C14.4425 89.6051 13.9487 90.1003 13.3689 90.7025Z" fill="#232818"/>
<path d="M31.6689 84.2289C40.1209 87.9245 49.6703 89.625 58.6701 87.6018C55.7959 89.7348 52.1907 90.5708 48.6988 91.3556C54.9998 90.8361 61.4791 90.268 67.1303 87.4336C68.5674 86.7129 69.9589 85.8308 70.9843 84.592C71.2575 84.2625 71.515 83.8606 71.4499 83.4377C71.4086 83.1704 71.2434 82.9401 71.0737 82.7291C70.5158 82.0356 69.8553 81.4247 69.121 80.9222C69.0277 80.858 68.9213 80.7934 68.809 80.8095C68.6554 80.8313 68.5674 80.9893 68.4843 81.1205C68.1607 81.6337 67.61 81.954 67.073 82.2368C62.6008 84.5905 57.5557 85.735 52.5095 86.0092C47.4634 86.2833 42.4022 85.7093 37.4353 84.7757C35.9583 84.4982 34.4716 84.1837 33.1074 83.5529C31.7432 82.9221 30.4942 81.9433 29.7973 80.6116C29.755 80.531 27.7648 81.3562 28.7966 82.4847C29.5441 83.3026 30.6745 83.794 31.6689 84.2289Z" fill="#02020C"/>
<path d="M26.6726 86.4077C27.529 87.0905 28.431 87.7121 29.368 88.2735C30.2992 88.8431 31.2644 89.3553 32.2558 89.8092C34.2367 90.7205 36.3081 91.4324 38.4309 91.9296C40.5489 92.453 42.7155 92.7641 44.8918 92.9536C45.9804 93.0503 47.073 93.1082 48.1665 93.1373C49.2605 93.1767 50.3559 93.1845 51.4523 93.167C51.4931 93.1665 51.5272 93.1991 51.5276 93.2399C51.5281 93.2797 51.4975 93.3128 51.4582 93.3152C50.3617 93.3837 49.2629 93.426 48.1631 93.4377C47.0633 93.4391 45.9625 93.4061 44.8631 93.3371C42.665 93.1947 40.475 92.872 38.3259 92.3646C36.1841 91.831 34.0837 91.1093 32.1013 90.1339C31.1118 89.6445 30.1495 89.1006 29.2275 88.4951C28.311 87.8817 27.4342 87.2106 26.6099 86.4826C26.5895 86.4646 26.5876 86.4335 26.6056 86.4131C26.6226 86.3936 26.6527 86.3912 26.6726 86.4077Z" fill="#02020C"/>
<path d="M30.1365 79.9011L32.8683 80.3021C32.8683 80.3021 31.9731 82.4395 30.5287 81.9486L30.1365 79.9011Z" fill="#02020C"/>
<path d="M68.5682 79.8923L65.8364 80.2933C65.8364 80.2933 67.0461 82.1085 68.176 81.9399L68.5682 79.8923Z" fill="#02020C"/>
<path d="M34.6636 65.7862C34.8663 67.2947 34.9688 68.8101 35.0529 70.3259C35.1263 71.8422 35.1526 73.36 35.1409 74.8778C35.1292 76.3956 35.1146 77.9138 35.0228 79.4311C34.945 80.9479 34.825 82.4652 34.5971 83.9699C34.5888 84.0243 34.5378 84.0622 34.4833 84.054C34.4328 84.0462 34.3968 84.001 34.3983 83.9509C34.4493 82.439 34.4512 80.9285 34.4469 79.418C34.425 77.907 34.4206 76.3961 34.3822 74.8856L34.2685 70.3536C34.2466 68.8422 34.2097 67.3322 34.2058 65.8188C34.2048 65.6914 34.3074 65.5879 34.4347 65.5869C34.5514 65.5855 34.6486 65.673 34.6636 65.7862Z" fill="#02020C"/>
<path d="M30.863 82.0318C31.5104 81.2794 32.166 80.5709 32.7876 79.8263C33.4145 79.0866 33.9963 78.3163 34.6057 77.5377L34.908 77.7098C34.5387 78.6516 33.9812 79.5104 33.3363 80.2865C32.686 81.0588 31.9356 81.7538 31.0676 82.2748L30.863 82.0318Z" fill="#02020C"/>
<path d="M45.2137 75.5699C45.5476 76.6386 45.9655 77.6776 46.4885 78.6632C47.0051 79.6522 47.6252 80.5834 48.3095 81.4684C48.3455 81.5151 48.3372 81.5817 48.2906 81.6181C48.2463 81.6521 48.1836 81.6458 48.1467 81.6055C47.3812 80.7662 46.7422 79.8136 46.2149 78.8066C45.6944 77.7957 45.2842 76.726 45.03 75.6199C45.0183 75.5689 45.0504 75.5178 45.1014 75.5062C45.1505 75.494 45.1986 75.5232 45.2137 75.5699Z" fill="#02020C"/>
<path d="M47.0739 43.4414C47.1488 44.1791 47.1745 44.9178 47.192 45.657C47.2018 46.3963 47.194 47.1355 47.1687 47.8751C47.1279 48.6139 47.0978 49.3536 47.0108 50.0899C46.9291 50.8261 46.8285 51.5629 46.6453 52.2837C46.6385 52.3104 46.6113 52.3269 46.5841 52.3201C46.5598 52.3138 46.5442 52.2909 46.5466 52.2666C46.6122 51.5323 46.6536 50.7989 46.69 50.0651C46.7206 49.3307 46.7629 48.5964 46.7785 47.8606L46.864 45.6532C46.899 44.9169 46.9306 44.1801 46.9879 43.4428C46.9899 43.419 47.0103 43.401 47.0341 43.403C47.055 43.4039 47.0715 43.421 47.0739 43.4414Z" fill="#02020C"/>
<path d="M49.5968 19.1861C49.5633 19.1541 49.538 19.0933 49.539 19.0457L49.7363 19.2406C49.6566 19.2425 49.5769 19.242 49.4972 19.2401L49.6935 19.0442V19.0476L49.6921 19.243L49.4976 19.2435C46.2303 19.2537 42.942 19.6755 39.8671 20.7705C38.344 21.3459 36.8792 22.0754 35.5495 23.009C34.2232 23.9465 33.0543 25.0959 32.078 26.3867C30.1174 28.9776 29.004 32.1341 28.5554 35.3451C28.3338 36.9548 28.2546 38.5868 28.3294 40.2105C28.3707 41.0177 28.4296 41.8425 28.5749 42.6181L29.0842 45.0301C29.7719 48.2445 30.427 51.4653 31.0826 54.686L32.0687 59.5168L32.562 61.9308C32.7239 62.7016 33.0296 63.4423 33.4592 64.1037C33.675 64.4337 33.9218 64.7438 34.1945 65.0286C34.4637 65.3148 34.7719 65.5637 35.0907 65.8314L36.9836 67.409C38.2482 68.4568 39.5181 69.4993 40.8036 70.5199C42.0925 71.5298 43.3765 72.5723 44.7514 73.4237C46.1452 74.246 47.6883 74.8239 49.276 75.1383L49.2381 75.1349L49.9958 75.1354L49.9579 75.1388C51.5462 74.8268 53.0907 74.2519 54.4864 73.431C55.8604 72.5771 57.1463 71.5376 58.4357 70.5277C59.7216 69.5075 60.992 68.466 62.2571 67.4187L64.1491 65.8402C64.7974 65.324 65.3461 64.7797 65.7762 64.1056C66.2029 63.4418 66.5047 62.7001 66.6627 61.9293L67.1453 59.5134L68.11 54.6787L70.0433 45.0107L70.5327 42.5948C70.6707 41.8323 70.7252 41.007 70.7611 40.2051C70.8263 38.5897 70.7373 36.9674 70.5074 35.3704C70.281 33.772 69.8693 32.2051 69.2944 30.7082C68.7224 29.2099 67.9564 27.7874 66.9922 26.5111C66.0236 25.2417 64.8893 24.0894 63.5819 23.1534C62.2727 22.2207 60.8287 21.4825 59.3226 20.8896C58.5552 20.632 57.7951 20.3428 57.0005 20.1659C56.6054 20.0716 56.2171 19.9457 55.8147 19.8806L54.6118 19.6668C54.2123 19.5846 53.8065 19.5414 53.4007 19.5006L52.1833 19.3679C51.3381 19.3101 50.4376 19.2605 49.5968 19.1861ZM49.8763 18.9072C50.6777 18.9004 51.4222 18.8765 52.2159 18.9213L53.4527 19.0291C53.8653 19.0622 54.2779 19.0972 54.6867 19.1716L55.9163 19.363C56.3269 19.4223 56.7274 19.5394 57.1342 19.6226C57.9521 19.779 58.7409 20.0507 59.5389 20.2927C61.1092 20.8541 62.6333 21.5753 64.0281 22.5196C65.4161 23.4692 66.6661 24.6366 67.692 25.9775C68.7228 27.315 69.5432 28.8075 70.158 30.3734C70.766 31.9427 71.1742 33.5829 71.4031 35.2402C71.632 36.8979 71.7137 38.5727 71.6374 40.2421C71.5936 41.0809 71.5387 41.9008 71.3808 42.7557L70.8666 45.1687L68.7865 54.8143L67.744 59.6359L67.2221 62.0479C67.0364 62.8848 66.6948 63.6853 66.2214 64.3968C65.9833 64.752 65.7126 65.0845 65.4137 65.3892C65.1153 65.6978 64.7809 65.9636 64.4689 66.2222L62.5613 67.7871C61.2856 68.8252 60.0045 69.8579 58.7064 70.8703C57.401 71.8744 56.1155 72.8998 54.6886 73.7712C53.251 74.6188 51.6711 75.2103 50.0352 75.5344L50.0167 75.5383H49.9968L49.2391 75.5388H49.2197L49.2012 75.5354C47.5648 75.2137 45.9834 74.6246 44.5434 73.7785C43.117 72.9047 41.83 71.8821 40.5242 70.8776C39.2256 69.8657 37.944 68.8339 36.6673 67.7963L34.7607 66.2304C34.4491 65.9719 34.1138 65.7056 33.8169 65.395C33.519 65.0888 33.2492 64.7545 33.013 64.3982C32.5421 63.6843 32.2043 62.8824 32.0226 62.046L31.5113 59.632L30.4902 54.806C29.8079 51.5892 29.125 48.3719 28.4752 45.1482L27.981 42.7319C27.8303 41.8901 27.7793 41.0692 27.7414 40.2358C27.6748 38.5751 27.7662 36.9101 28.0033 35.2645C28.4811 31.9835 29.664 28.7496 31.7067 26.1009C32.7248 24.7815 33.9398 23.6112 35.3094 22.663C36.6833 21.7192 38.1865 20.9892 39.7402 20.4104C42.8798 19.33 46.1987 18.8829 49.4986 18.8489L49.3033 19.0447V19.0413V18.8411L49.5001 18.8454C49.5798 18.8474 49.6595 18.8469 49.7392 18.845L49.9365 19.0398C49.9351 18.9956 49.9098 18.9373 49.8763 18.9072Z" fill="#02020C"/>
<path d="M65.3621 65.3727C64.9971 66.8462 64.9111 68.3708 64.8406 69.9061C64.7959 71.4486 64.6351 72.9839 64.5252 74.5197C64.2919 77.5912 64.2521 80.6714 64.4411 83.7537C64.4445 83.8086 64.4027 83.8562 64.3478 83.8596C64.2953 83.863 64.2492 83.8241 64.2424 83.7726C64.045 82.2373 63.8997 80.6914 63.839 79.1405C63.7685 77.5902 63.7637 76.0369 63.7914 74.4861C63.8229 72.9353 63.8667 71.3869 64.0431 69.8473C64.204 68.3081 64.4052 66.7271 64.985 65.2492C65.0248 65.1472 65.1405 65.0966 65.2425 65.1369C65.3363 65.1739 65.3869 65.2745 65.3631 65.3697L65.3621 65.3727Z" fill="#02020C"/>
<path d="M67.7382 82.2471C66.877 81.7285 66.1335 81.0374 65.4885 80.27C64.8495 79.4982 64.2969 78.6458 63.9314 77.7103L64.2337 77.5382C64.8392 78.3105 65.4166 79.0754 66.0382 79.8103C66.6545 80.55 67.3033 81.2546 67.9433 82.0041L67.7382 82.2471Z" fill="#02020C"/>
<path d="M54.2844 75.619C54.0307 76.7251 53.62 77.7948 53.0995 78.8057C52.5722 79.8127 51.9331 80.7657 51.1676 81.6045C51.1278 81.6483 51.0607 81.6512 51.0175 81.6114C50.9762 81.5739 50.9718 81.5108 51.0048 81.4675C51.6896 80.583 52.3098 79.6518 52.8259 78.6623C53.3488 77.6767 53.7668 76.6376 54.1007 75.5689C54.1162 75.5188 54.1697 75.4907 54.2197 75.5067C54.2674 75.5223 54.2951 75.5713 54.2844 75.619Z" fill="#02020C"/>
<path d="M37.9867 48.8141C38.4907 48.6839 38.949 48.662 39.4273 48.6435C39.9006 48.6309 40.372 48.6401 40.841 48.6717C41.7795 48.7281 42.7097 48.8501 43.6321 49.0041C43.6501 49.007 43.6623 49.0245 43.6594 49.0425C43.6564 49.06 43.6404 49.0722 43.6229 49.0702C42.6946 48.9706 41.763 48.9035 40.8337 48.9026C40.3691 48.8987 39.9055 48.9166 39.4457 48.956C38.9937 48.9968 38.5141 49.059 38.1185 49.1869L38.0966 49.1937C37.9926 49.2272 37.8813 49.1703 37.8478 49.0663C37.8142 48.9623 37.8711 48.8515 37.9751 48.818C37.9795 48.8165 37.9833 48.8151 37.9867 48.8141Z" fill="#02020C"/>
<path d="M43.3823 45.3519C43.3823 47.2823 42.2057 48.8467 40.754 48.8467C39.3023 48.8467 38.1257 47.2818 38.1257 45.3519C38.1257 43.422 39.3023 41.8571 40.754 41.8571C42.2052 41.8566 43.3823 43.4215 43.3823 45.3519Z" fill="#02020C"/>
<path d="M43.7575 43.3442C43.7575 43.9901 43.3245 44.514 42.7899 44.514C42.2553 44.514 41.8223 43.9901 41.8223 43.3442C41.8223 42.6983 42.2553 42.1744 42.7899 42.1744C43.3245 42.1744 43.7575 42.6983 43.7575 43.3442Z" fill="#F4EFE9"/>
<path d="M55.3842 48.8141C55.8882 48.6839 56.3465 48.662 56.8247 48.6435C57.2981 48.6309 57.7695 48.6401 58.2385 48.6717C59.177 48.7281 60.1072 48.8501 61.0296 49.0041C61.0476 49.007 61.0597 49.0245 61.0568 49.0425C61.0539 49.06 61.0379 49.0722 61.0204 49.0702C60.0921 48.9706 59.1604 48.9035 58.2312 48.9026C57.7666 48.8987 57.3029 48.9166 56.8432 48.956C56.3912 48.9968 55.9115 49.059 55.5159 49.1869L55.4941 49.1937C55.39 49.2272 55.2788 49.1703 55.2452 49.0663C55.2117 48.9623 55.2685 48.8515 55.3726 48.818C55.3764 48.8165 55.3803 48.8151 55.3842 48.8141Z" fill="#02020C"/>
<path d="M55.6953 45.3519C55.6953 47.2823 56.8719 48.8467 58.3236 48.8467C59.7753 48.8467 60.9519 47.2818 60.9519 45.3519C60.9519 43.422 59.7748 41.8571 58.3236 41.8571C56.8724 41.8566 55.6953 43.4215 55.6953 45.3519Z" fill="#02020C"/>
<path d="M61.0248 43.3442C61.0248 43.9901 60.5918 44.514 60.0572 44.514C59.5226 44.514 59.0896 43.9901 59.0896 43.3442C59.0896 42.6983 59.5226 42.1744 60.0572 42.1744C60.5918 42.1744 61.0248 42.6983 61.0248 43.3442Z" fill="#F4EFE9"/>
<path d="M73.909 44.3484C74.0908 43.9849 74.2342 43.5742 74.118 43.2C74.0213 42.8151 73.6199 42.6459 73.2384 42.6163C72.8515 42.5857 72.4608 42.6926 72.1128 42.8729C71.7614 43.0537 71.4436 43.3045 71.1286 43.5684C71.045 43.6383 70.9206 43.6276 70.8506 43.5436C70.7806 43.46 70.7913 43.3356 70.8749 43.2656C70.8779 43.2632 70.8817 43.2602 70.8847 43.2578C71.2219 43.0095 71.5762 42.7616 71.9767 42.5857C72.3752 42.4097 72.8238 42.314 73.266 42.3767C73.4862 42.4097 73.7015 42.4768 73.8935 42.6022C74.0898 42.7252 74.2303 42.9395 74.2769 43.1577C74.3829 43.6077 74.1899 44.0344 73.9868 44.3887C73.9751 44.4096 73.9484 44.4174 73.9275 44.4057C73.9066 44.3946 73.8988 44.3688 73.909 44.3484Z" fill="#02020C"/>
<path d="M70.4473 46.7735C70.9197 47.1302 71.2249 47.6901 71.2929 48.2815C71.3711 48.8817 71.1418 49.4834 70.8259 49.965C70.5134 50.4573 70.1343 50.886 69.848 51.355C69.5632 51.8225 69.3664 52.3416 69.2702 52.8767C69.2507 52.9841 69.1482 53.0555 69.0408 53.0361C68.9334 53.0166 68.8619 52.9141 68.8814 52.8072C68.8818 52.8052 68.8823 52.8018 68.8828 52.7999C69.0087 52.221 69.2425 51.668 69.5666 51.1771C69.8922 50.6872 70.2864 50.2736 70.5989 49.8168C70.9148 49.3668 71.133 48.8458 71.0839 48.3024C71.0426 47.7649 70.7812 47.2361 70.3559 46.8906C70.3243 46.8648 70.319 46.8182 70.3447 46.7866C70.37 46.755 70.4152 46.7496 70.4473 46.7735Z" fill="#02020C"/>
<path d="M70.4166 42.921C71.0377 42.1545 71.7235 41.2919 72.7582 40.8676C73.0206 40.7622 73.3015 40.6985 73.5955 40.698C73.8862 40.6975 74.2089 40.7709 74.4674 40.9755C74.7313 41.184 74.8582 41.4668 74.9525 41.7006C75.0521 41.9431 75.1396 42.1905 75.2037 42.4427C75.47 43.4551 75.454 44.4995 75.3393 45.5016C75.2232 46.5091 75.0108 47.4864 74.7955 48.4618C74.5811 49.4382 74.397 50.4185 74.1622 51.3929C73.9192 52.3639 73.6232 53.3452 73.111 54.2365C72.9803 54.4567 72.8422 54.6739 72.6848 54.8775C72.522 55.0734 72.346 55.2547 72.1769 55.4437C71.8338 55.8194 71.5077 56.1926 71.0839 56.5129C70.6664 56.824 70.108 57.0529 69.5272 56.9144C69.2288 56.8502 68.9917 56.6456 68.8041 56.5396C68.6257 56.4269 68.4138 56.4283 68.4051 56.4974L68.1013 55.8821C68.5635 55.7309 68.8867 55.9594 69.0952 56.1343C69.3066 56.3205 69.4451 56.4721 69.6371 56.5367C70.0346 56.6743 70.5172 56.5246 70.8793 56.2378C71.2525 55.955 71.5879 55.5735 71.913 55.2114C72.0748 55.0282 72.2464 54.8503 72.401 54.6627C72.5472 54.4707 72.676 54.2657 72.7985 54.0567C73.7443 52.3484 73.978 50.3135 74.4057 48.3826C74.6025 47.4082 74.796 46.4299 74.8907 45.4535C74.9855 44.4796 74.9772 43.493 74.7172 42.5749C74.6541 42.346 74.5724 42.1225 74.4747 41.9076C74.3795 41.686 74.2735 41.5033 74.1355 41.4066C73.8556 41.1957 73.3739 41.2389 72.9866 41.4124C72.155 41.7789 71.549 42.555 70.958 43.3418L70.4166 42.921Z" fill="#02020C"/>
<path d="M25.1734 44.3886C24.9703 44.0343 24.7773 43.6076 24.8833 43.1576C24.93 42.9393 25.0704 42.725 25.2668 42.6021C25.4592 42.4767 25.674 42.4096 25.8942 42.3766C26.3364 42.3139 26.785 42.4096 27.1835 42.5855C27.584 42.7615 27.9388 43.0093 28.2756 43.2577C28.3635 43.3223 28.382 43.4458 28.3174 43.5337C28.2527 43.6217 28.1293 43.6402 28.0413 43.5755C28.0379 43.5731 28.0345 43.5707 28.0316 43.5678C27.7167 43.3039 27.3988 43.0536 27.0475 42.8723C26.6995 42.692 26.3087 42.5851 25.9219 42.6157C25.5404 42.6448 25.1389 42.8144 25.0422 43.1994C24.9261 43.5736 25.0694 43.9842 25.2512 44.3478C25.2619 44.3692 25.2531 44.3954 25.2317 44.4061C25.2104 44.4168 25.1846 44.4085 25.1734 44.3886Z" fill="#02020C"/>
<path d="M28.8035 46.89C28.3782 47.2351 28.1168 47.7643 28.0754 48.3019C28.0264 48.8452 28.2446 49.3662 28.5605 49.8162C28.873 50.2731 29.2671 50.6867 29.5927 51.1765C29.9169 51.6679 30.1502 52.2205 30.2765 52.7993C30.2999 52.9057 30.2323 53.0112 30.1259 53.0345C30.0194 53.0578 29.914 52.9903 29.8906 52.8839C29.8902 52.8819 29.8897 52.8785 29.8892 52.8766C29.793 52.342 29.5961 51.8224 29.3113 51.3549C29.0256 50.8859 28.6465 50.4578 28.3335 49.965C28.0181 49.4828 27.7882 48.8816 27.8665 48.2814C27.9345 47.69 28.2397 47.1301 28.7121 46.7734C28.7447 46.7486 28.7908 46.7554 28.8156 46.788C28.8399 46.82 28.8341 46.8652 28.8035 46.89Z" fill="#02020C"/>
<path d="M28.2007 43.3422C27.6097 42.5554 27.0032 41.7792 26.1721 41.4128C25.7848 41.2393 25.3032 41.196 25.0233 41.407C24.8852 41.5037 24.7793 41.6864 24.684 41.908C24.5863 42.1228 24.5047 42.3459 24.4415 42.5753C24.1815 43.4934 24.1732 44.4799 24.268 45.4539C24.3628 46.4303 24.5562 47.4086 24.753 48.383C25.1812 50.3139 25.415 52.3488 26.3602 54.057C26.4827 54.266 26.6115 54.4711 26.7578 54.6631C26.9123 54.8507 27.0839 55.0281 27.2457 55.2118C27.5709 55.5734 27.9062 55.9554 28.2794 56.2382C28.642 56.525 29.1241 56.6746 29.5217 56.5371C29.7141 56.472 29.8521 56.3204 30.0636 56.1347C30.2716 55.9598 30.5952 55.7318 31.0574 55.8825L30.7537 56.4977C30.7449 56.4287 30.533 56.4273 30.3547 56.54C30.1671 56.6455 29.9299 56.8501 29.6315 56.9147C29.0512 57.0532 28.4928 56.8243 28.0748 56.5133C27.6511 56.193 27.3249 55.8198 26.9818 55.4441C26.8127 55.255 26.6368 55.0738 26.474 54.8779C26.3165 54.6743 26.1785 54.457 26.0477 54.2369C25.5355 53.3455 25.2395 52.3643 24.9965 51.3933C24.7618 50.4193 24.5776 49.4391 24.3633 48.4622C24.1485 47.4873 23.9361 46.51 23.8199 45.502C23.7052 44.4994 23.6892 43.4554 23.9555 42.4431C24.0201 42.1909 24.1076 41.9435 24.2073 41.701C24.3015 41.4677 24.4284 41.1844 24.6923 40.9759C24.9504 40.7713 25.2731 40.6979 25.5637 40.6984C25.8577 40.6989 26.1391 40.7625 26.4011 40.868C27.4358 41.2923 28.121 42.1549 28.7426 42.9213L28.2007 43.3422Z" fill="#02020C"/>
<path d="M52.6393 50.3114C52.736 50.7498 52.7807 51.1926 52.8283 51.6348C52.8609 52.0786 52.8968 52.5223 52.8755 52.9708C52.873 53.0214 52.8298 53.0608 52.7792 53.0583C52.737 53.0564 52.7029 53.0258 52.6937 52.9864C52.596 52.548 52.5557 52.1053 52.5119 51.662C52.4828 51.2178 52.4512 50.7741 52.4721 50.3255C52.474 50.2789 52.5139 50.2424 52.5605 50.2449C52.5999 50.2468 52.6315 50.275 52.6393 50.3114Z" fill="#02020C"/>
<path d="M72.2205 32.2974L72.2361 32.295C72.2361 32.295 72.2716 28.546 70.053 24.5797C70.276 23.7526 70.4282 22.9069 70.4986 22.053C70.5681 21.2103 70.556 20.3311 70.2061 19.5608C69.844 18.7643 69.1612 18.1675 68.4978 17.5964C67.2852 16.553 66.0726 15.509 64.8601 14.4656C63.5775 13.3614 62.2629 12.2383 60.6911 11.6108C58.424 10.7059 55.7952 10.9052 53.6247 9.78785C52.5492 9.23429 51.6438 8.38283 50.5469 7.87204C49.3392 7.30974 47.973 7.19455 46.6409 7.19795C42.1614 7.20961 37.716 8.54757 33.9135 10.9013C31.9865 12.0939 30.2204 13.5495 28.6973 15.2276C27.1994 16.8781 25.2608 17.7514 24.2752 19.8996C23.5957 21.3809 23.3207 23.0129 23.117 24.6298C22.8493 26.757 22.6932 28.912 22.911 31.045C22.9727 31.6491 23.0728 32.2668 23.2526 32.8495C23.4636 33.5314 23.7838 34.1651 24.2805 34.674C25.0669 35.4788 26.276 35.7612 27.2393 35.3184C27.3725 35.8535 27.5702 36.3725 27.8356 36.8561C27.8191 36.9888 27.8103 37.0631 27.8103 37.0631L28.3882 42.8976L30.0634 49.6564C30.0634 49.6564 30.5256 49.772 30.5834 48.7898C30.5834 48.7898 31.0568 42.4096 30.7881 38.5411C31.3912 38.4434 32.0327 38.2461 32.5362 38.1999C32.2052 37.084 31.9107 35.958 31.6478 34.8246L33.0679 33.25L41.4324 27.9477L49.3066 29.0164L49.3056 29.1034L49.6254 29.0597L49.9452 29.1034L49.9447 29.0164L57.8189 27.9477L66.1834 33.25L66.3001 33.2315L66.285 33.25L67.3979 34.4839C67.1161 35.7325 66.7982 36.9727 66.4337 38.1999C67.0446 38.2563 67.8592 38.5328 68.5614 38.5863C68.2995 42.4592 68.769 48.7893 68.769 48.7893C68.8268 49.7716 69.289 49.6559 69.289 49.6559L70.9642 42.4349L71.5421 37.0627C71.5421 37.0627 71.5251 36.9227 71.4949 36.6787C72.0776 35.5303 72.3095 34.2045 72.1379 32.9278C72.1175 32.7747 72.0917 32.6162 72.136 32.4685C72.1535 32.4063 72.185 32.3509 72.2205 32.2974Z" fill="#02020C"/>
<path d="M48.8796 91.8553C43.0394 91.5666 34.6077 90.1392 27.5049 84.9769C27.3416 84.8579 27.2342 84.7772 27.1792 84.7475C26.2933 84.2645 26.9921 82.6383 27.1408 82.3171L27.1768 82.2398L30.1438 79.8798L30.9268 81.5876C37.1709 85.5903 47.3682 85.9455 49.3569 85.9766C51.3349 85.946 61.5321 85.5908 67.7763 81.5876L68.5592 79.8798L71.5262 82.2398L71.5622 82.3171C71.7114 82.6383 72.4098 84.2645 71.5238 84.7475C71.4694 84.7772 71.362 84.8579 71.1987 84.9769C64.0953 90.1392 55.6642 91.5666 49.8414 91.8548L48.8796 91.8553ZM27.7585 82.6952C27.4815 83.3274 27.3624 84.0292 27.5233 84.1172C27.605 84.1614 27.7197 84.245 27.9272 84.3957C34.8872 89.454 43.1725 90.8541 48.8976 91.1375L49.8234 91.137C55.5305 90.8537 63.8159 89.454 70.7759 84.3957C70.9839 84.2445 71.0981 84.1609 71.1797 84.1172C71.3411 84.0292 71.2215 83.3274 70.9445 82.6952L68.8299 81.0131L68.3425 82.0775L68.255 82.1343C61.8544 86.2974 51.3898 86.6638 49.3574 86.6949C47.3137 86.6638 36.8497 86.2974 30.449 82.1343L30.3616 82.0775L29.8741 81.0131L27.7585 82.6952Z" fill="#02020C"/>
<path d="M27.4746 84.4875C26.1201 85.2564 24.7734 85.9587 23.4058 86.6692L22.374 87.1892C22.027 87.3637 21.6572 87.5202 21.3044 87.6616C20.587 87.9493 19.8614 88.2142 19.1314 88.463C16.2106 89.4579 13.2275 90.1956 10.3227 91.1151C8.87198 91.5783 7.44072 92.092 6.06242 92.7136C5.37668 93.0222 4.72593 93.3609 4.20931 93.8324C3.68929 94.3052 3.25528 94.9142 2.86114 95.5402C2.07333 96.7989 1.54991 98.2156 1.1305 99.6639C0.720312 101.118 0.427735 102.616 0.120097 104.118L-0.352295 104.04C-0.160325 102.518 0.0632364 100.99 0.44183 99.4802C0.80633 97.9702 1.35795 96.4796 2.18172 95.1237C2.59725 94.454 3.04485 93.7876 3.66839 93.2317C4.29338 92.6708 5.02919 92.3039 5.73826 91.989C7.15884 91.3586 8.62121 90.8449 10.0928 90.3856C13.0355 89.4618 16.0259 88.7794 18.9264 87.8443C19.651 87.6106 20.3703 87.3613 21.0798 87.0901C21.4399 86.9511 21.7821 86.8218 22.1242 86.6605L23.1594 86.174C24.5314 85.5096 25.9223 84.8302 27.254 84.123L27.4746 84.4875Z" fill="#02020C"/>
<path d="M71.9323 84.1226C73.264 84.8302 74.6554 85.5091 76.0269 86.1735L77.062 86.66C77.4047 86.8213 77.7463 86.9506 78.1065 87.0896C78.816 87.3613 79.5348 87.6106 80.2599 87.8439C83.1604 88.7789 86.1507 89.4613 89.0935 90.3852C90.5651 90.8449 92.0274 91.3586 93.448 91.9885C94.1571 92.3034 94.8924 92.6703 95.5179 93.2312C96.1414 93.7872 96.5886 94.4535 97.0046 95.1232C97.8279 96.4786 98.3795 97.9697 98.7445 99.4797C99.1226 100.989 99.3461 102.518 99.5386 104.039L99.0662 104.117C98.7585 102.616 98.4665 101.117 98.0558 99.6634C97.6364 98.2146 97.113 96.7979 96.3251 95.5397C95.931 94.9132 95.497 94.3043 94.977 93.8319C94.4604 93.3609 93.8096 93.0222 93.1239 92.7131C91.7456 92.091 90.3143 91.5773 88.8636 91.1146C85.9588 90.1946 82.9762 89.4569 80.0548 88.4625C79.3249 88.2142 78.5993 87.9493 77.8819 87.6611C77.5291 87.5197 77.1592 87.3632 76.8122 87.1887L75.7805 86.6687C74.4129 85.9582 73.0662 85.2559 71.7117 84.4871L71.9323 84.1226Z" fill="#02020C"/>
<path d="M30.1223 86.5394C30.115 86.5394 30.1082 86.5389 30.1009 86.5379C30.0159 86.5263 29.9561 86.448 29.9678 86.3625C30.1641 84.9361 30.5694 83.549 31.1716 82.2402C31.2071 82.1615 31.2994 82.1284 31.3781 82.1634C31.4559 82.1994 31.4904 82.2918 31.4544 82.37C30.8649 83.6516 30.4683 85.0085 30.2764 86.4048C30.2657 86.483 30.1986 86.5394 30.1223 86.5394Z" fill="#02020C"/>
<path d="M32.6176 87.924C32.6142 87.924 32.6103 87.924 32.6069 87.9235C32.5213 87.9182 32.4562 87.8438 32.462 87.7578C32.5636 86.2629 32.915 84.8073 33.506 83.4305C33.5405 83.3517 33.6323 83.3158 33.7106 83.3488C33.7893 83.3828 33.8257 83.4742 33.7922 83.5529C33.2148 84.8972 32.8717 86.3188 32.7726 87.7782C32.7668 87.8613 32.6987 87.924 32.6176 87.924Z" fill="#02020C"/>
<path d="M35.634 89.0053C35.6281 89.0053 35.6228 89.0053 35.617 89.0044C35.5314 88.9956 35.4697 88.9183 35.4789 88.8328C35.634 87.4069 35.9533 85.9975 36.4286 84.6445C36.4573 84.5633 36.5452 84.5205 36.6273 84.5487C36.7085 84.5769 36.7513 84.6658 36.7226 84.747C36.2551 86.0781 35.9411 87.4637 35.789 88.8658C35.7798 88.946 35.7127 89.0053 35.634 89.0053Z" fill="#02020C"/>
<path d="M38.946 90.2636C38.9417 90.2636 38.9378 90.2636 38.9334 90.2631C38.8479 90.2563 38.7837 90.1815 38.7905 90.0959C38.9218 88.446 39.3057 86.8329 39.9312 85.3011C39.9637 85.2223 40.0551 85.1849 40.1338 85.216C40.2135 85.2486 40.2519 85.3395 40.2189 85.4192C39.6056 86.9209 39.2294 88.5028 39.1001 90.1202C39.0948 90.2019 39.0262 90.2636 38.946 90.2636Z" fill="#02020C"/>
<path d="M42.4015 90.9596C42.3267 90.9596 42.2606 90.9056 42.2484 90.8293C42.1838 90.4366 42.2265 90.0401 42.2795 89.6347C42.4428 88.3901 42.6712 87.1382 42.9575 85.9139C42.9774 85.8298 43.0629 85.7798 43.1441 85.7983C43.2282 85.8177 43.2797 85.9013 43.2603 85.9854C42.9764 87.1989 42.7504 88.4401 42.5881 89.6756C42.5361 90.0717 42.4977 90.4279 42.5551 90.7793C42.5692 90.8638 42.5113 90.9445 42.4268 90.9581C42.418 90.9591 42.4098 90.9596 42.4015 90.9596Z" fill="#02020C"/>
<path d="M45.8887 91.4766C45.8051 91.4766 45.7361 91.411 45.7332 91.3264C45.6836 89.9583 45.7361 88.5752 45.8887 87.2154C45.9281 86.8616 45.9801 86.5199 46.1817 86.2336C46.2313 86.1636 46.328 86.1457 46.399 86.1962C46.4695 86.2458 46.486 86.343 46.4364 86.413C46.2775 86.639 46.2328 86.9374 46.1978 87.2494C46.0471 88.5941 45.9956 89.9622 46.0442 91.3153C46.0476 91.4008 45.9801 91.4732 45.894 91.4761C45.8921 91.4766 45.8901 91.4766 45.8887 91.4766Z" fill="#02020C"/>
<path d="M69.012 86.2347C68.9357 86.2347 68.8686 86.1783 68.8579 86.1006C68.6664 84.7106 68.265 83.6429 67.6799 82.3705C67.6439 82.2927 67.6779 82.1999 67.7562 82.164C67.8344 82.1295 67.9267 82.162 67.9627 82.2407C68.56 83.5389 68.9697 84.6304 69.1665 86.0583C69.1782 86.1433 69.1189 86.2221 69.0334 86.2337C69.0261 86.2342 69.0188 86.2347 69.012 86.2347Z" fill="#02020C"/>
<path d="M66.517 87.5775C66.4358 87.5775 66.3673 87.5148 66.362 87.4322C66.2609 85.9436 65.8969 84.8442 65.3423 83.5534C65.3083 83.4747 65.3448 83.3828 65.424 83.3493C65.5032 83.3162 65.5946 83.3522 65.6286 83.4309C66.1957 84.7514 66.5685 85.8784 66.6725 87.4118C66.6783 87.4973 66.6132 87.5717 66.5277 87.577C66.5243 87.5775 66.5204 87.5775 66.517 87.5775Z" fill="#02020C"/>
<path d="M63.4999 89.0054C63.4217 89.0054 63.3541 88.9466 63.3454 88.8664C63.1927 87.4643 62.8788 86.0787 62.4113 84.7476C62.3826 84.6664 62.4254 84.5775 62.5065 84.5493C62.5877 84.5206 62.6761 84.5639 62.7053 84.645C63.1806 85.998 63.4999 87.4069 63.6549 88.8334C63.6642 88.9184 63.6024 88.9957 63.5169 89.0049C63.5116 89.0054 63.5057 89.0054 63.4999 89.0054Z" fill="#02020C"/>
<path d="M60.1878 90.0474C60.1076 90.0474 60.039 89.9857 60.0327 89.904C59.9132 88.4047 59.5681 87.0216 58.9139 85.4192C58.8814 85.34 58.9198 85.2486 58.999 85.2166C59.0787 85.1854 59.1696 85.2224 59.2021 85.3021C59.8689 86.935 60.2208 88.3469 60.3428 89.8797C60.3496 89.9653 60.2859 90.0401 60.1999 90.0469C60.1965 90.0474 60.1921 90.0474 60.1878 90.0474Z" fill="#02020C"/>
<path d="M56.7327 90.9596C56.7245 90.9596 56.7157 90.9591 56.7075 90.9576C56.6229 90.9435 56.5651 90.8633 56.5792 90.7788C56.6365 90.4274 56.5981 90.0712 56.5461 89.6751C56.3838 88.4397 56.1578 87.1979 55.874 85.9849C55.8545 85.9008 55.906 85.8172 55.9901 85.7977C56.0727 85.7793 56.1578 85.8298 56.1767 85.9134C56.4635 87.1367 56.6914 88.3881 56.8547 89.6342C56.9077 90.04 56.9505 90.4361 56.8858 90.8288C56.8737 90.9056 56.8076 90.9596 56.7327 90.9596Z" fill="#02020C"/>
<path d="M53.2457 91.4767C53.2438 91.4767 53.2423 91.4767 53.2399 91.4767C53.1539 91.4733 53.0868 91.4014 53.0902 91.3159C53.1388 89.9628 53.0873 88.5947 52.9366 87.25C52.9016 86.938 52.8574 86.6396 52.698 86.4136C52.6484 86.3431 52.6649 86.2464 52.7354 86.1968C52.8059 86.1463 52.9031 86.1643 52.9522 86.2342C53.1543 86.5205 53.2063 86.8617 53.2457 87.216C53.3983 88.5758 53.4503 89.9589 53.4012 91.327C53.3983 91.4111 53.3293 91.4767 53.2457 91.4767Z" fill="#02020C"/>
<path d="M49.6065 91.4772C49.5204 91.4772 49.4509 91.4077 49.4509 91.3217V86.3824C49.4509 86.2964 49.5209 86.2269 49.6065 86.2269C49.692 86.2269 49.762 86.2964 49.762 86.3824V91.3217C49.7624 91.4082 49.6925 91.4772 49.6065 91.4772Z" fill="#02020C"/>
<path d="M89.2238 104.529C89.2141 104.529 89.2048 104.528 89.1956 104.527C89.111 104.511 89.0552 104.43 89.0707 104.345C89.8352 100.203 91.663 96.3017 94.3564 93.063C94.4114 92.9969 94.5095 92.9872 94.5756 93.043C94.6417 93.0975 94.6505 93.1961 94.5956 93.2622C91.9362 96.4596 90.1317 100.312 89.3769 104.402C89.3628 104.477 89.2972 104.529 89.2238 104.529Z" fill="#02020C"/>
<path d="M9.55575 104.529C9.48237 104.529 9.41676 104.477 9.40315 104.402C8.64791 100.312 6.8434 96.4601 4.18401 93.2622C4.12909 93.1961 4.13783 93.0975 4.20392 93.043C4.26953 92.9872 4.36772 92.9969 4.42312 93.063C7.11653 96.3017 8.94437 100.203 9.70884 104.345C9.7244 104.43 9.66851 104.511 9.58395 104.527C9.57471 104.529 9.56499 104.529 9.55575 104.529Z" fill="#02020C"/>
<path d="M47.9118 59.3069C48.1912 59.4619 48.4819 59.5883 48.7759 59.6772C49.0704 59.7657 49.3703 59.8211 49.6672 59.8143C49.9637 59.8259 50.2572 59.773 50.5357 59.6743C50.8205 59.5897 51.079 59.4323 51.3483 59.2821L51.3609 59.2748C51.4348 59.2335 51.5286 59.2602 51.5699 59.3341C51.6059 59.3982 51.5903 59.4775 51.5373 59.5241C51.2856 59.7457 51.0008 59.945 50.6723 60.0587C50.351 60.189 49.9948 60.2264 49.6517 60.2094C49.3076 60.1783 48.9722 60.0903 48.6714 59.9406C48.3715 59.7885 48.0965 59.5965 47.8773 59.3472C47.8676 59.336 47.8685 59.319 47.8797 59.3093C47.888 59.3015 47.9021 59.3015 47.9118 59.3069Z" fill="#02020C"/>
<path d="M46.6999 57.1558C46.5244 57.4936 46.3718 57.8425 46.2435 58.1988C46.1813 58.3825 46.1021 58.5521 46.1633 58.6906C46.2178 58.8369 46.3466 58.9924 46.4583 59.1348C46.6906 59.4172 46.9784 59.6607 47.3045 59.7219C47.6311 59.7865 47.9829 59.683 48.3426 59.5688C48.4466 59.5358 48.5579 59.5926 48.5909 59.6966C48.6244 59.8006 48.5671 59.9119 48.4631 59.945C48.4587 59.9464 48.4529 59.9479 48.4485 59.9489C48.0796 60.0363 47.6607 60.1433 47.2306 60.03C46.8005 59.9134 46.4962 59.5965 46.2678 59.2806C46.158 59.1149 46.0399 58.9667 45.9704 58.7489C45.9373 58.6406 45.9461 58.5108 45.9811 58.4126C46.0146 58.3115 46.054 58.2284 46.0919 58.1385C46.2469 57.7847 46.4253 57.4426 46.625 57.114C46.6372 57.0941 46.6634 57.0878 46.6834 57.0999C46.7033 57.1121 46.7101 57.1364 46.6999 57.1558Z" fill="#02020C"/>
<path d="M52.5929 57.1145C52.7917 57.4416 52.9696 57.7823 53.1241 58.1346C53.162 58.224 53.2009 58.3076 53.2349 58.4068C53.2699 58.5035 53.2816 58.6328 53.25 58.7411C53.1839 58.9603 53.0648 59.1081 52.9565 59.2733C52.73 59.5887 52.4291 59.9036 52.0044 60.0261C51.5889 60.1462 51.1617 60.0699 50.7874 59.979C50.6815 59.9537 50.6159 59.8473 50.6412 59.7413C50.6664 59.6349 50.7729 59.5698 50.8793 59.595C50.8837 59.596 50.8895 59.598 50.8939 59.5989C51.2457 59.7117 51.5966 59.7928 51.9276 59.7209C52.2522 59.6538 52.537 59.4108 52.7679 59.129C52.8787 58.9861 53.0075 58.8315 53.059 58.6857C53.1173 58.5477 53.0366 58.3771 52.9754 58.1949C52.8471 57.8401 52.6955 57.4926 52.5205 57.1563C52.5098 57.1354 52.5176 57.1101 52.5385 57.0994C52.5575 57.0887 52.5818 57.0955 52.5929 57.1145Z" fill="#02020C"/>
<path d="M65.4448 40.2581L60.9353 38.5877L61.8169 38.6859L52.2888 41.0323L52.5936 40.7689L51.7926 41.787C51.7144 41.8862 51.571 41.9032 51.4719 41.8254C51.3999 41.7691 51.3713 41.6777 51.3907 41.5941L51.6842 40.332C51.7085 40.2275 51.7824 40.1478 51.8752 40.1118L51.989 40.0685L61.1593 36.5771L61.2482 36.5431C61.5262 36.4372 61.8276 36.4979 62.0414 36.6748L65.7408 39.7478C65.8682 39.8532 65.8852 40.0418 65.7797 40.1691C65.6956 40.2688 65.5605 40.3009 65.4448 40.2581Z" fill="#02020C"/>
<path d="M33.0334 39.7473L36.7328 36.6744C36.9617 36.4843 37.265 36.444 37.525 36.5422L37.6149 36.5767L46.7853 40.0681L46.897 40.1109C46.9972 40.1488 47.0667 40.2348 47.09 40.3315L47.3835 41.5937C47.4122 41.7166 47.3354 41.8396 47.2125 41.8683C47.1235 41.8892 47.0341 41.8542 46.9811 41.7871L46.1802 40.7689L46.4849 41.0323L36.9569 38.6859L37.8385 38.5878L33.3289 40.2581C33.1739 40.3155 33.0018 40.2363 32.9445 40.0817C32.8988 39.9593 32.9386 39.8261 33.0334 39.7473Z" fill="#02020C"/>
<path d="M46.118 64.128C47.2582 64.0079 48.3983 63.9792 49.5385 63.9773C50.6786 63.9817 51.8188 64.0079 52.9589 64.1202C52.9891 64.1231 53.0105 64.1498 53.0076 64.1795C53.0051 64.2057 52.9842 64.2256 52.9589 64.2281C51.8188 64.3398 50.6786 64.3666 49.5385 64.371C48.3983 64.369 47.2582 64.3403 46.118 64.2203C46.0927 64.2179 46.0738 64.1945 46.0767 64.1693C46.0791 64.1474 46.0966 64.1304 46.118 64.128Z" fill="#02020C"/>
</g>
<defs>
<clipPath id="clip0_2728_835">
<rect width="100" height="100" fill="white"/>
</clipPath>
</defs>
</svg>
