<svg width="128" height="128" viewBox="0 0 128 128" fill="none" xmlns="http://www.w3.org/2000/svg">
<path d="M82 57.5L86 43L90.5 25" stroke="white" stroke-width="7"/>
<path d="M79.5 56.5L80.976 62.6846L85 58" stroke="white" stroke-width="2" stroke-linecap="round" stroke-linejoin="round"/>
<path d="M78.8174 70L76.1545 79.4556" stroke="white" stroke-width="5" stroke-linecap="round"/>
<path d="M97.3213 39.3306L96.0001 39.3247" stroke="white" stroke-width="5" stroke-linecap="round"/>
<path d="M100.926 51.9968L94.0758 51.9662" stroke="white" stroke-width="5" stroke-linecap="round"/>
<path d="M106.107 65.6001L89.0002 65.5235" stroke="white" stroke-width="5" stroke-linecap="round"/>
<path d="M73.8174 88L71.1545 97.4556" stroke="white" stroke-width="5" stroke-linecap="round"/>
<path d="M18.8174 83L16.1545 92.4556" stroke="white" stroke-width="5" stroke-linecap="round"/>
<path d="M12.8174 103L10.1545 112.456" stroke="white" stroke-width="5" stroke-linecap="round"/>
<path d="M24.8174 63L22.1545 72.4556" stroke="white" stroke-width="5" stroke-linecap="round"/>
<path d="M57.1548 83L59.8176 92.4556" stroke="white" stroke-width="5" stroke-linecap="round"/>
<path d="M63.1548 103L65.8176 112.456" stroke="white" stroke-width="5" stroke-linecap="round"/>
<path d="M51.1548 63L53.8176 72.4556" stroke="white" stroke-width="5" stroke-linecap="round"/>
<path d="M88 22.4999C90 18.9999 93.6667 19.9999 93.5 23.9999L88 22.4999Z" stroke="white" stroke-width="2" stroke-linecap="round" stroke-linejoin="round"/>
<path d="M26.5 98L30.5 90.5L34 98L41 81L49 98" stroke="white" stroke-width="2" stroke-linecap="round" stroke-linejoin="round"/>
<path d="M56 32C56 46 38 58 38 58C38 58 20 46 20 32C20 27.2261 21.8964 22.6477 25.2721 19.2721C28.6477 15.8964 33.2261 14 38 14C42.7739 14 47.3523 15.8964 50.7279 19.2721C54.1036 22.6477 56 27.2261 56 32Z" stroke="#EB6708" stroke-width="4" stroke-linecap="round" stroke-linejoin="round"/>
<path d="M38 38C41.3137 38 44 35.3137 44 32C44 28.6863 41.3137 26 38 26C34.6863 26 32 28.6863 32 32C32 35.3137 34.6863 38 38 38Z" stroke="#EB6708" stroke-width="4" stroke-linecap="round" stroke-linejoin="round"/>
<circle cx="30.5" cy="83.5" r="1.5" fill="#EB6708" stroke="#EB6708" stroke-width="2"/>
<path d="M106.52 95.24C105.016 95.24 103.728 94.992 102.656 94.496C101.6 93.984 100.776 93.248 100.184 92.288C99.608 91.312 99.296 90.136 99.248 88.76C99.232 88.072 99.224 87.336 99.224 86.552C99.224 85.768 99.232 85.024 99.248 84.32C99.296 82.976 99.608 81.832 100.184 80.888C100.776 79.944 101.608 79.224 102.68 78.728C103.768 78.216 105.048 77.96 106.52 77.96C107.704 77.96 108.744 78.112 109.64 78.416C110.536 78.72 111.288 79.12 111.896 79.616C112.504 80.096 112.968 80.624 113.288 81.2C113.608 81.776 113.776 82.328 113.792 82.856C113.792 83 113.744 83.128 113.648 83.24C113.552 83.336 113.424 83.384 113.264 83.384H110.288C110.128 83.384 110 83.352 109.904 83.288C109.824 83.224 109.752 83.128 109.688 83C109.576 82.712 109.392 82.424 109.136 82.136C108.896 81.832 108.568 81.576 108.152 81.368C107.736 81.16 107.192 81.056 106.52 81.056C105.512 81.056 104.712 81.32 104.12 81.848C103.544 82.376 103.232 83.24 103.184 84.44C103.136 85.816 103.136 87.216 103.184 88.64C103.232 89.888 103.552 90.784 104.144 91.328C104.752 91.872 105.56 92.144 106.568 92.144C107.224 92.144 107.808 92.032 108.32 91.808C108.848 91.568 109.264 91.2 109.568 90.704C109.872 90.208 110.024 89.576 110.024 88.808V88.208H107.408C107.248 88.208 107.112 88.152 107 88.04C106.888 87.912 106.832 87.768 106.832 87.608V86.072C106.832 85.896 106.888 85.752 107 85.64C107.112 85.528 107.248 85.472 107.408 85.472H113.288C113.464 85.472 113.608 85.528 113.72 85.64C113.832 85.752 113.888 85.896 113.888 86.072V88.688C113.888 90.064 113.584 91.24 112.976 92.216C112.384 93.192 111.528 93.944 110.408 94.472C109.304 94.984 108.008 95.24 106.52 95.24Z" fill="#EB6708"/>
<path d="M113.448 115.24C111.992 115.24 110.736 115 109.68 114.52C108.624 114.04 107.8 113.32 107.208 112.36C106.616 111.384 106.296 110.16 106.248 108.688C106.232 108 106.224 107.32 106.224 106.648C106.224 105.96 106.232 105.264 106.248 104.56C106.296 103.12 106.616 101.912 107.208 100.936C107.816 99.944 108.648 99.2 109.704 98.704C110.776 98.208 112.024 97.96 113.448 97.96C114.856 97.96 116.088 98.208 117.144 98.704C118.216 99.2 119.056 99.944 119.664 100.936C120.272 101.912 120.592 103.12 120.624 104.56C120.656 105.264 120.672 105.96 120.672 106.648C120.672 107.32 120.656 108 120.624 108.688C120.576 110.16 120.256 111.384 119.664 112.36C119.072 113.32 118.248 114.04 117.192 114.52C116.136 115 114.888 115.24 113.448 115.24ZM113.448 112.144C114.376 112.144 115.136 111.864 115.728 111.304C116.336 110.728 116.656 109.816 116.688 108.568C116.72 107.864 116.736 107.208 116.736 106.6C116.736 105.976 116.72 105.32 116.688 104.632C116.672 103.8 116.52 103.12 116.232 102.592C115.944 102.064 115.56 101.68 115.08 101.44C114.616 101.184 114.072 101.056 113.448 101.056C112.824 101.056 112.272 101.184 111.792 101.44C111.312 101.68 110.928 102.064 110.64 102.592C110.368 103.12 110.216 103.8 110.184 104.632C110.168 105.32 110.16 105.976 110.16 106.6C110.16 107.208 110.168 107.864 110.184 108.568C110.232 109.816 110.552 110.728 111.144 111.304C111.736 111.864 112.504 112.144 113.448 112.144Z" fill="#EB6708"/>
</svg>
