<svg width="122" height="104" viewBox="0 0 122 104" fill="none" xmlns="http://www.w3.org/2000/svg">
<path d="M82.5381 45.5L86.5381 31L91.0381 13" stroke="#F26B0F" stroke-width="7"/>
<path d="M80.0381 44.5L81.5141 50.6846L85.5381 46" stroke="#F26B0F" stroke-width="2" stroke-linecap="round" stroke-linejoin="round"/>
<path d="M79.3555 58L69.5381 88" stroke="white" stroke-width="5" stroke-linecap="round"/>
<path d="M97.8594 27.3307L96.5382 27.3248" stroke="white" stroke-width="5" stroke-linecap="round"/>
<path d="M101.464 39.9967L94.6139 39.966" stroke="white" stroke-width="5" stroke-linecap="round"/>
<path d="M106.646 53.6L89.5384 53.5234" stroke="white" stroke-width="5" stroke-linecap="round"/>
<path d="M25.3555 51L10.3426 100.179" stroke="white" stroke-width="5" stroke-linecap="round"/>
<path d="M51.6929 51L66.7058 100.179" stroke="white" stroke-width="5" stroke-linecap="round"/>
<path d="M88.5381 10.5C90.5381 7.00001 94.2048 8.00001 94.0381 12L88.5381 10.5Z" stroke="#F26B0F" stroke-width="2" stroke-linecap="round" stroke-linejoin="round"/>
<path d="M27.0381 86L31.0381 78.5L34.5381 86L41.5381 69L49.5381 86" stroke="white" stroke-width="2" stroke-linecap="round" stroke-linejoin="round"/>
<path d="M56.5381 20C56.5381 34 38.5381 46 38.5381 46C38.5381 46 20.5381 34 20.5381 20C20.5381 15.2261 22.4345 10.6477 25.8102 7.27208C29.1858 3.89642 33.7642 2 38.5381 2C43.312 2 47.8904 3.89642 51.266 7.27208C54.6417 10.6477 56.5381 15.2261 56.5381 20Z" stroke="#F26B0F" stroke-width="4" stroke-linecap="round" stroke-linejoin="round"/>
<path d="M38.5381 26C41.8518 26 44.5381 23.3137 44.5381 20C44.5381 16.6863 41.8518 14 38.5381 14C35.2244 14 32.5381 16.6863 32.5381 20C32.5381 23.3137 35.2244 26 38.5381 26Z" stroke="#F26B0F" stroke-width="4" stroke-linecap="round" stroke-linejoin="round"/>
<circle cx="31.0381" cy="71.5" r="1.5" fill="#F26B0F" stroke="#F26B0F" stroke-width="2"/>
<path d="M107.058 83.24C105.554 83.24 104.266 82.992 103.194 82.496C102.138 81.984 101.314 81.248 100.722 80.288C100.146 79.312 99.8341 78.136 99.7861 76.76C99.7701 76.072 99.7621 75.336 99.7621 74.552C99.7621 73.768 99.7701 73.024 99.7861 72.32C99.8341 70.976 100.146 69.832 100.722 68.888C101.314 67.944 102.146 67.224 103.218 66.728C104.306 66.216 105.586 65.96 107.058 65.96C108.242 65.96 109.282 66.112 110.178 66.416C111.074 66.72 111.826 67.12 112.434 67.616C113.042 68.096 113.506 68.624 113.826 69.2C114.146 69.776 114.314 70.328 114.33 70.856C114.33 71 114.282 71.128 114.186 71.24C114.09 71.336 113.962 71.384 113.802 71.384H110.826C110.666 71.384 110.538 71.352 110.442 71.288C110.362 71.224 110.29 71.128 110.226 71C110.114 70.712 109.93 70.424 109.674 70.136C109.434 69.832 109.106 69.576 108.69 69.368C108.274 69.16 107.73 69.056 107.058 69.056C106.05 69.056 105.25 69.32 104.658 69.848C104.082 70.376 103.77 71.24 103.722 72.44C103.674 73.816 103.674 75.216 103.722 76.64C103.77 77.888 104.09 78.784 104.682 79.328C105.29 79.872 106.098 80.144 107.106 80.144C107.762 80.144 108.346 80.032 108.858 79.808C109.386 79.568 109.802 79.2 110.106 78.704C110.41 78.208 110.562 77.576 110.562 76.808V76.208H107.946C107.786 76.208 107.65 76.152 107.538 76.04C107.426 75.912 107.37 75.768 107.37 75.608V74.072C107.37 73.896 107.426 73.752 107.538 73.64C107.65 73.528 107.786 73.472 107.946 73.472H113.826C114.002 73.472 114.146 73.528 114.258 73.64C114.37 73.752 114.426 73.896 114.426 74.072V76.688C114.426 78.064 114.122 79.24 113.514 80.216C112.922 81.192 112.066 81.944 110.946 82.472C109.842 82.984 108.546 83.24 107.058 83.24Z" fill="#F26B0F"/>
<path d="M113.986 103.24C112.53 103.24 111.274 103 110.218 102.52C109.162 102.04 108.338 101.32 107.746 100.36C107.154 99.384 106.834 98.16 106.786 96.688C106.77 96 106.762 95.32 106.762 94.648C106.762 93.96 106.77 93.264 106.786 92.56C106.834 91.12 107.154 89.912 107.746 88.936C108.354 87.944 109.186 87.2 110.242 86.704C111.314 86.208 112.562 85.96 113.986 85.96C115.394 85.96 116.626 86.208 117.682 86.704C118.754 87.2 119.594 87.944 120.202 88.936C120.81 89.912 121.13 91.12 121.162 92.56C121.194 93.264 121.21 93.96 121.21 94.648C121.21 95.32 121.194 96 121.162 96.688C121.114 98.16 120.794 99.384 120.202 100.36C119.61 101.32 118.786 102.04 117.73 102.52C116.674 103 115.426 103.24 113.986 103.24ZM113.986 100.144C114.914 100.144 115.674 99.864 116.266 99.304C116.874 98.728 117.194 97.816 117.226 96.568C117.258 95.864 117.274 95.208 117.274 94.6C117.274 93.976 117.258 93.32 117.226 92.632C117.21 91.8 117.058 91.12 116.77 90.592C116.482 90.064 116.098 89.68 115.618 89.44C115.154 89.184 114.61 89.056 113.986 89.056C113.362 89.056 112.81 89.184 112.33 89.44C111.85 89.68 111.466 90.064 111.178 90.592C110.906 91.12 110.754 91.8 110.722 92.632C110.706 93.32 110.698 93.976 110.698 94.6C110.698 95.208 110.706 95.864 110.722 96.568C110.77 97.816 111.09 98.728 111.682 99.304C112.274 99.864 113.042 100.144 113.986 100.144Z" fill="#EB6708"/>
</svg>
