<svg xmlns="http://www.w3.org/2000/svg" style="display:none">

  <!-- share -->
  <symbol id="icon-share" viewBox="0 0 24 24">
    <path fill="currentColor" stroke="currentColor" stroke-linecap="round" stroke-linejoin="round" stroke-width="2"
          d="m20 12l-6.4-7v3.5C10.4 8.5 4 10.6 4 19c0-1.167 1.92-3.5 9.6-3.5V19l6.4-7z"/>
  </symbol>

  <!-- share-02 -->
  <symbol id="icon-share-2" viewBox="0 0 24 24">
    <path fill="currentColor" stroke="currentColor" stroke-linecap="round" stroke-linejoin="round" stroke-width="2"
          d="m20 12l-6.4-7v3.5C10.4 8.5 4 10.6 4 19c0-1.167 1.92-3.5 9.6-3.5V19l6.4-7z"/>
  </symbol>

  <!-- drag -->
  <symbol id="drag" viewBox="0 0 21 21">
    <path fill="none" stroke="#000000" stroke-linecap="round" stroke-linejoin="round" 
          d="M4.5 7.5h12m-12.002 3h11.997M4.5 13.5h11.995"/>
  </symbol>

  <!-- search -->
  <symbol id="icon-search" viewBox="0 0 640 640">
    <path fill="currentColor"
          d="M480 272C480 317.9 465.1 360.3 440 394.7L566.6 521.4C579.1 533.9 
             579.1 554.2 566.6 566.7C554.1 579.2 533.8 579.2 521.3 566.7L394.7 440
             C360.3 465.1 317.9 480 272 480C157.1 480 64 386.9 64 272C64 157.1 
             157.1 64 272 64C386.9 64 480 157.1 480 272zM272 416C351.5 416 
             416 351.5 416 272C416 192.5 351.5 128 272 128C192.5 128 
             128 192.5 128 272C128 351.5 192.5 416 272 416z"/>
  </symbol>

  <!-- save -->
  <symbol id="icon-save" viewBox="0 0 24 24">
    <path fill="currentColor" d="M4 3h16v19.943l-8-5.714l-8 5.714V3Zm2 2v14.057l6-4.286l6 4.286V5H6Z"/>
  </symbol>

  <!-- star-filled -->
  <symbol id="icon-star-filled" viewBox="0 0 24 24">
    <path fill="currentColor" 
          d="M17.562 21.56a1.003 1.003 0 0 1-.465-.115L12 18.765l-5.097 2.68
             a1 1 0 0 1-1.451-1.054l.973-5.676l-4.123-4.02a1 1 0 0 1 .554-1.705
             l5.699-.828l2.548-5.164a1.042 1.042 0 0 1 1.794 0l2.548 5.164
             l5.699.828a1 1 0 0 1 .554 1.706l-4.123 4.019l.973 5.676
             a1 1 0 0 1-.986 1.169Z"/>
  </symbol>

  <!-- star-unfilled -->
  <symbol id="icon-star-unfilled" viewBox="0 0 24 24">
    <path fill="currentColor"
          d="M22 9.67a1 1 0 0 0-.86-.67l-5.69-.83L12.9 3a1 1 0 0 0-1.8 0L8.55 8.16
             L2.86 9a1 1 0 0 0-.81.68a1 1 0 0 0 .25 1l4.13 4l-1 5.68a1 1 0 0 0 .4 1
             a1 1 0 0 0 1.05.07L12 18.76l5.1 2.68a.93.93 0 0 0 .46.12a1 1 0 0 0 .59-.19
             a1 1 0 0 0 .4-1l-1-5.68l4.13-4A1 1 0 0 0 22 9.67Zm-6.15 4a1 1 0 0 0-.29.89
             l.72 4.19l-3.76-2a1 1 0 0 0-.94 0l-3.76 2l.72-4.19a1 1 0 0 0-.29-.89l-3-3
             l4.21-.61a1 1 0 0 0 .76-.55L12 5.7l1.88 3.82a1 1 0 0 0 .76.55l4.21.61Z"/>
  </symbol>

  <!-- star-half-->
  <symbol id="icon-star-half" viewBox="0 0 12 12">
    <path fill="currentColor" d="m6 9.428l-2.223 1.169a.8.8 0 0 1-1.16-.844l.424-2.476l-1.799-1.753a.8.8 0 0 1 .444-1.365l2.486-.36l1.111-2.253A.79.79 0 0 1 6 1.1a.79.79 0 0 1 .718.446L7.83 3.798l2.486.361a.8.8 0 0 1 .443 1.365L8.96 7.277l.425 2.476a.8.8 0 0 1-1.16.844L6 9.428Zm0-7.075v6.049a.8.8 0 0 1 .373.092l1.958 1.029l-.374-2.18a.8.8 0 0 1 .23-.708L9.771 5.09l-2.189-.318a.8.8 0 0 1-.602-.438L6 2.352v.001Z"/>
</symbol>


  <!-- add -->
  <symbol id="icon-add" viewBox="0 0 20 20">
    <path fill="currentColor" d="M11 9V4H9v5H4v2h5v5h2v-5h5V9z"/>
  </symbol>

  <!-- user profile -->
  <symbol id="default-profile" viewBox="0 0 18 18">
    <path fill="currentColor" d="M9 0a9 9 0 0 0-9 9 8.654 8.654 0 0 0 .05.92 9 9 0 0 0 17.9 0A8.654 8.654 0 0 0 18 9a9 9 0 0 0-9-9zm5.42 13.42c-.01 0-.06.08-.07.08a6.975 6.975 0 0 1-10.7 0c-.01 0-.06-.08-.07-.08a.512.512 0 0 1-.09-.27.522.522 0 0 1 .34-.48c.74-.25 1.45-.49 1.65-.54a.16.16 0 0 1 .03-.13.49.49 0 0 1 .43-.36l1.27-.1a2.077 2.077 0 0 0-.19-.79v-.01a2.814 2.814 0 0 0-.45-.78 3.83 3.83 0 0 1-.79-2.38A3.38 3.38 0 0 1 8.88 4h.24a3.38 3.38 0 0 1 3.1 3.58 3.83 3.83 0 0 1-.79 2.38 2.814 2.814 0 0 0-.45.78v.01a2.077 2.077 0 0 0-.19.79l1.27.1a.49.49 0 0 1 .43.36.16.16 0 0 1 .03.13c.2.05.91.29 1.65.54a.49.49 0 0 1 .25.75z"/>
  </symbol>

  <!-- dashed line -->
  <symbol id="dashed-line">
    <line x1="1" x2="1" y1="0" y2="100%" style="stroke-dasharray: 1, 5; stroke: rgb(206, 212, 218); stroke-width: 2; stroke-linecap: round; stroke-dashoffset: 0;"></line>
  </symbol>

  <!-- return -->
  <symbol id="return" viewBox="0 0 48 48">
    <g fill="none" stroke-linecap="round" stroke-linejoin="round" stroke-width="4">
      <path d="M12.9998 8L6 14L12.9998 21"/><path d="M6 14H28.9938C35.8768 14 41.7221 19.6204 41.9904 26.5C42.2739 33.7696 36.2671 40 28.9938 40H11.9984"/>
    </g>
  </symbol>

  <svg xmlns="http://www.w3.org/2000/svg" width="200" height="200" viewBox="0 0 32 32"><path fill="#000000" d="M22 8v2c2.206 0 4 1.794 4 4s-1.794 4-4 4H10v-5l-6 6l6 6v-5h12c3.309 0 6-2.691 6-6s-2.691-6-6-6Z"/></svg>

  <!--route icon-->
  <symbol id="icon-route" viewBox="0 0 512 512">
  <path fill="currentColor"
    d="M416 320h-96c-17.6 0-32-14.4-32-32s14.4-32 32-32h96s96-107 96-160s-43-96-96-96s-96 43-96 96c0 25.5 22.2 63.4 45.3 96H320c-52.9 0-96 43.1-96 96s43.1 96 96 96h96c17.6 0 32 14.4 32 32s-14.4 32-32 32H185.5c-16 24.8-33.8 47.7-47.3 64H416c52.9 0 96-43.1 96-96s-43.1-96-96-96zm0-256c17.7 0 32 14.3 32 32s-14.3 32-32 32s-32-14.3-32-32s14.3-32 32-32zM96 256c-53 0-96 43-96 96s96 160 96 160s96-107 96-160s-43-96-96-96zm0 128c-17.7 0-32-14.3-32-32s14.3-32 32-32s32 14.3 32 32s-14.3 32-32 32z"/>
  </symbol>

 <!--people-->
  <symbol id="icon-people" viewBox="0 0 16 16">
  <path fill="currentColor"
    d="M3 3a2 2 0 1 1 4 0a2 2 0 0 1-4 0Zm6.779 1.584l.042.032a2 2 0 1 0-.042-.032ZM6.268 6A2 2 0 1 1 9.73 7.998A2 2 0 0 1 6.268 6ZM2.5 6h2.67a3.013 3.013 0 0 0 .594 3H5.5a2.501 2.501 0 0 0-2.355 1.658a3.733 3.733 0 0 1-.933-.543C1.46 9.51 1 8.616 1 7.5A1.5 1.5 0 0 1 2.5 6Zm8 3a2.5 2.5 0 0 1 2.354 1.658c.34-.139.655-.32.934-.543C14.54 9.51 15 8.616 15 7.5A1.5 1.5 0 0 0 13.5 6h-2.67c.11.313.17.65.17 1a2.99 2.99 0 0 1-.764 2h.264Zm1.387 1.928c.073.176.113.37.113.572c0 1.116-.459 2.01-1.212 2.615C10.047 14.71 9.053 15 8 15c-1.053 0-2.047-.29-2.788-.885C4.46 13.51 4 12.616 4 11.5A1.496 1.496 0 0 1 5.5 10h5a1.5 1.5 0 0 1 1.387.928Z"/>
  </symbol>

  <!--signal-->
  <symbol id="icon-signal" viewBox="0 0 24 24">
  <path 
    fill="none" 
    stroke="currentColor" 
    stroke-linecap="square" 
    stroke-width="2" 
    d="M2.1 9.1A13.94 13.94 0 0 1 8 5.582m8 0a13.94 13.94 0 0 1 5.9 3.52M6.697 13.697q.607-.604 1.303-1.043m8 0q.697.438 1.303 1.043M12 3v11m-.707 4.293a1 1 0 0 1 1.414 0L12 19z"/>
  </symbol>
  <!--book-->
  <symbol id="icon-doc" viewBox="0 0 448 512">
  <path fill="currentColor"
    d="M384 512H96c-53 0-96-43-96-96V96C0 43 43 0 96 0h304c26.5 0 48 21.5 48 48v288c0 20.9-13.4 38.7-32 45.3V448c17.7 0 32 14.3 32 32s-14.3 32-32 32zM96 384c-17.7 0-32 14.3-32 32s14.3 32 32 32h256v-64zm32-232c0 13.3 10.7 24 24 24h176c13.3 0 24-10.7 24-24s-10.7-24-24-24H152c-13.3 0-24 10.7-24 24m24 72c-13.3 0-24 10.7-24 24s10.7 24 24 24h176c13.3 0 24-10.7 24-24s-10.7-24-24-24z"/>
  </symbol>
  <!--more-->
  <symbol id="icon-more" viewBox="0 0 20 20">
  <path 
    fill="currentColor" 
    fill-rule="evenodd"
    d="M2.5 7.5a2.5 2.5 0 1 1 0 5a2.5 2.5 0 0 1 0-5Zm15 0a2.5 2.5 0 1 1 0 5a2.5 2.5 0 0 1 0-5Zm-7.274 0a2.5 2.5 0 1 1 0 5a2.5 2.5 0 0 1 0-5Z"/>
  </symbol>

  <!--arrow-->

  <symbol id="icon-arrow" viewBox="0 0 72 72">
  <path 
    fill="currentColor" 
    d="M49.212 51.534L67 35.036L49.212 18.538l-3.789 4.076l10.396 9.641H5v5.562h50.819l-10.396 9.642z"/>
  <path 
    fill="none" 
    stroke="currentColor" 
    stroke-linecap="round" 
    stroke-linejoin="round" 
    stroke-miterlimit="10" 
    stroke-width="2" 
    d="M49.212 51.534L67 35.036L49.212 18.538l-3.789 4.076l10.396 9.641H5v5.562h50.819l-10.396 9.642z"/>
  </symbol>

  <!--ig icon-->
  <symbol id="icon-instagram" viewBox="0 0 24 24">
  <path d="M12 0C8.74 0 8.333.015 7.053.072C5.775.132 4.905.333 4.14.63c-.789.306-1.459.717-2.126 1.384S.935 3.35.63 4.14C.333 4.905.131 5.775.072 7.053C.012 8.333 0 8.74 0 12s.015 3.667.072 4.947c.06 1.277.261 2.148.558 2.913a5.885 5.885 0 0 0 1.384 2.126A5.868 5.868 0 0 0 4.14 23.37c.766.296 1.636.499 2.913.558C8.333 23.988 8.74 24 12 24s3.667-.015 4.947-.072c1.277-.06 2.148-.262 2.913-.558a5.898 5.898 0 0 0 2.126-1.384a5.86 5.86 0 0 0 1.384-2.126c.296-.765.499-1.636.558-2.913c.06-1.28.072-1.687.072-4.947s-.015-3.667-.072-4.947c-.06-1.277-.262-2.149-.558-2.913a5.89 5.89 0 0 0-1.384-2.126A5.847 5.847 0 0 0 19.86.63c-.765-.297-1.636-.499-2.913-.558C15.667.012 15.26 0 12 0zm0 2.16c3.203 0 3.585.016 4.85.071c1.17.055 1.805.249 2.227.415c.562.217.96.477 1.382.896c.419.42.679.819.896 1.381c.164.422.36 1.057.413 2.227c.057 1.266.07 1.646.07 4.85s-.015 3.585-.074 4.85c-.061 1.17-.256 1.805-.421 2.227a3.81 3.81 0 0 1-.899 1.382a3.744 3.744 0 0 1-1.38.896c-.42.164-1.065.36-2.235.413c-1.274.057-1.649.07-4.859.07c-3.211 0-3.586-.015-4.859-.074c-1.171-.061-1.816-.256-2.236-.421a3.716 3.716 0 0 1-1.379-.899a3.644 3.644 0 0 1-.9-1.38c-.165-.42-.359-1.065-.42-2.235c-.045-1.26-.061-1.649-.061-4.844c0-3.196.016-3.586.061-4.861c.061-1.17.255-1.814.42-2.234c.21-.57.479-.96.9-1.381c.419-.419.81-.689 1.379-.898c.42-.166 1.051-.361 2.221-.421c1.275-.045 1.65-.06 4.859-.06l.045.03zm0 3.678a6.162 6.162 0 1 0 0 12.324a6.162 6.162 0 1 0 0-12.324zM12 16c-2.21 0-4-1.79-4-4s1.79-4 4-4s4 1.79 4 4s-1.79 4-4 4zm7.846-10.405a1.441 1.441 0 0 1-2.88 0a1.44 1.44 0 0 1 2.88 0z"/>
  </symbol>

  <!--fb icom-->

  <symbol id="icon-facebook" viewBox="0 0 48 48">
  <g fill="none" stroke="currentColor" stroke-linecap="round" stroke-linejoin="round" stroke-width="3">
    <path d="M3.539 39.743c.208 2.555 2.163 4.51 4.718 4.718C11.485 44.723 16.636 45 24 45s12.515-.277 15.743-.539c2.555-.208 4.51-2.163 4.718-4.718C44.723 36.515 45 31.364 45 24s-.277-12.515-.539-15.743c-.208-2.555-2.163-4.51-4.718-4.718C36.515 3.277 31.364 3 24 3s-12.515.277-15.743.539c-2.555.208-4.51 2.163-4.718 4.718C3.277 11.485 3 16.636 3 24s.277 12.515.539 15.743"/>
    <path d="M29.516 44.944V30.04h5.539c.888 0 1.687-.585 1.817-1.463a12.9 12.9 0 0 0-.015-3.715c-.128-.862-.896-1.43-1.768-1.43h-5.573c0-4.994.831-5.72 5.515-5.811c.899-.018 1.705-.61 1.836-1.5c.22-1.495.132-2.802-.006-3.72c-.127-.85-.888-1.402-1.746-1.395c-8.279.072-12.994 1.051-12.994 12.426h-4.288c-.834 0-1.574.522-1.7 1.346c-.136.888-.218 2.175.009 3.74c.13.904.944 1.522 1.858 1.522h4.121v14.955"/>
  </g>
</symbol>

<symbol id="icon-fb2" viewBox="0 0 24 24">
  <path d="M24 12.073c0-6.627-5.373-12-12-12s-12 5.373-12 12c0 5.99 4.388 10.954 10.125 11.854v-8.385H7.078v-3.47h3.047V9.43c0-3.007 1.792-4.669 4.533-4.669c1.312 0 2.686.235 2.686.235v2.953H15.83c-1.491 0-1.956.925-1.956 1.874v2.25h3.328l-.532 3.47h-2.796v8.385C19.612 23.027 24 18.062 24 12.073z"/>
</symbol>

<!-- redo and return icon -->
<symbol id="redo" viewBox="0 0 24 24">
  <path d="M7.94.56a8.05 8.05 0 0 1 6.82 3.64V1.55H16V5a1.16 1.16 0 0 1-1.15 1.15h-3.44V4.9h2.32a6.79 6.79 0 0 0-5.79-3.1A6.48 6.48 0 0 0 1.24 8a6.48 6.48 0 0 0 6.7 6.2a6.48 6.48 0 0 0 6.7-6.2h1.24a7.71 7.71 0 0 1-7.94 7.44A7.71 7.71 0 0 1 0 8A7.71 7.71 0 0 1 7.94.56z"/>
</symbol>

<symbol id="return" viewBox="0 0 24 24">
  <path fill-rule="evenodd" d="M10.095.28A8 8 0 0 0 1.5 3.335V1.75a.75.75 0 0 0-1.5 0V6h4.25a.75.75 0 1 0 0-1.5H2.523a6.5 6.5 0 1 1-.526 5.994a.75.75 0 0 0-1.385.575A8 8 0 1 0 10.095.279Z" clip-rule="evenodd"/>
</symbol>




</svg>


