<svg xmlns="http://www.w3.org/2000/svg" style="display:none">

  <!-- share -->
  <symbol id="icon-share" viewBox="0 0 24 24">
    <path fill="currentColor" stroke="currentColor" stroke-linecap="round" stroke-linejoin="round" stroke-width="2"
          d="m20 12l-6.4-7v3.5C10.4 8.5 4 10.6 4 19c0-1.167 1.92-3.5 9.6-3.5V19l6.4-7z"/>
  </symbol>

  <!-- search -->
  <symbol id="icon-search" viewBox="0 0 640 640">
    <path fill="currentColor"
          d="M480 272C480 317.9 465.1 360.3 440 394.7L566.6 521.4C579.1 533.9 
             579.1 554.2 566.6 566.7C554.1 579.2 533.8 579.2 521.3 566.7L394.7 440
             C360.3 465.1 317.9 480 272 480C157.1 480 64 386.9 64 272C64 157.1 
             157.1 64 272 64C386.9 64 480 157.1 480 272zM272 416C351.5 416 
             416 351.5 416 272C416 192.5 351.5 128 272 128C192.5 128 
             128 192.5 128 272C128 351.5 192.5 416 272 416z"/>
  </symbol>

  <!-- add -->
<symbol id="icon-add" viewBox="0 0 48 48">
  <g fill="none" stroke="currentColor" stroke-linejoin="round" stroke-width="4">
    <rect width="36" height="36" x="6" y="6" rx="3"/>
    <path stroke-linecap="round" d="M24 16v16m-8-8h16"/>
  </g>
</symbol>


  <!-- save -->
  <symbol id="icon-save" viewBox="0 0 24 24">
    <path fill="currentColor" d="M4 3h16v19.943l-8-5.714l-8 5.714V3Zm2 2v14.057l6-4.286l6 4.286V5H6Z"/>
  </symbol>

  <!-- star-filled -->
  <symbol id="icon-star-filled" viewBox="0 0 24 24">
    <path fill="currentColor" 
          d="M17.562 21.56a1.003 1.003 0 0 1-.465-.115L12 18.765l-5.097 2.68
             a1 1 0 0 1-1.451-1.054l.973-5.676l-4.123-4.02a1 1 0 0 1 .554-1.705
             l5.699-.828l2.548-5.164a1.042 1.042 0 0 1 1.794 0l2.548 5.164
             l5.699.828a1 1 0 0 1 .554 1.706l-4.123 4.019l.973 5.676
             a1 1 0 0 1-.986 1.169Z"/>
  </symbol>

  <!-- star-unfilled -->
  <symbol id="icon-star-unfilled" viewBox="0 0 24 24">
    <path fill="currentColor"
          d="M22 9.67a1 1 0 0 0-.86-.67l-5.69-.83L12.9 3a1 1 0 0 0-1.8 0L8.55 8.16
             L2.86 9a1 1 0 0 0-.81.68a1 1 0 0 0 .25 1l4.13 4l-1 5.68a1 1 0 0 0 .4 1
             a1 1 0 0 0 1.05.07L12 18.76l5.1 2.68a.93.93 0 0 0 .46.12a1 1 0 0 0 .59-.19
             a1 1 0 0 0 .4-1l-1-5.68l4.13-4A1 1 0 0 0 22 9.67Zm-6.15 4a1 1 0 0 0-.29.89
             l.72 4.19l-3.76-2a1 1 0 0 0-.94 0l-3.76 2l.72-4.19a1 1 0 0 0-.29-.89l-3-3
             l4.21-.61a1 1 0 0 0 .76-.55L12 5.7l1.88 3.82a1 1 0 0 0 .76.55l4.21.61Z"/>
  </symbol>

</svg>
